<?xml version="1.0" encoding="utf-8"?>
<!-- Generator: Adobe Illustrator 22.1.0, SVG Export Plug-In . SVG Version: 6.00 Build 0)  -->
<svg version="1.1" id="Layer_1" xmlns="http://www.w3.org/2000/svg" xmlns:xlink="http://www.w3.org/1999/xlink" x="0px" y="0px"
	 viewBox="0 0 1142.1 800.4" style="enable-background:new 0 0 1142.1 800.4;" xml:space="preserve">
<style type="text/css">
	.st0{fill:none;stroke:#F9B6B8;stroke-width:5;stroke-linecap:round;stroke-linejoin:round;stroke-miterlimit:10;}
	.st1{fill:#F9B6B8;}
	.st2{opacity:0.59;}
	.st3{fill:#3850A3;}
	.st4{fill:#FFFFFF;}
	.st5{fill:none;stroke:#F9B6B8;stroke-width:4;stroke-linecap:round;stroke-linejoin:round;stroke-miterlimit:10;}
	.st6{fill:none;stroke:#3850A3;stroke-width:2;stroke-linecap:round;stroke-linejoin:round;stroke-miterlimit:10;}
	.st7{fill:none;stroke:#3850A3;stroke-width:2;stroke-miterlimit:10;}
	.st8{fill:none;stroke:#F9B6B8;stroke-width:2;stroke-linecap:round;stroke-linejoin:round;stroke-miterlimit:10;}
</style>
<g>
	<path class="st5" d="M362.2,413.6c-0.3,6.7-1.7,22.7-30.7,9.7s-48.8-43.2-48.8-43.2l8.1-74.5c0,0,4,0,15.3,1.7s27,20.7,33.7,41
		c6.7,20.3,20.3,19.7,23.3,8.7s-31-60-13-77s32-48,34-87s87-61,124-59s62.9-9,62.9-9s19.1-7,37.8,44.3c18.7,51.3,40.7,156,42,200.7
		v24.7c-10.7,17.3-8,38-14.7,60c-6.7,22-28.7,61.3-34,71.3c-5.3,10-16,32.7-52,38.7s-127.3-42-150.7-59.3
		c-23.3-17.3-22.7-56-22.7-56"/>
	<path class="st5" d="M101.5,806.6c0,0,106-288,118.7-388s24-362,156.7-373.3c0,0,24-5.3,50,16c26,21.3,39.4,76,71,72.7
		c0,0-25.1-42.9,19.6-48.5s76.3,25.5,94,61.5s101.7,409,101.7,409"/>
	<path class="st5" d="M556.2,929.2c0,0-16.7-76.7-19.3-128.8c-2.7-52.2-33.3-107.8-33.3-107.8s-21.3-17.3-12-47.3
		c9.3-30,17.3-55.3,17.3-55.3s6.4-12.8,14.9-20.2c2.8-2.5,5.9-4.4,9.1-5.1l78.6,306.7"/>
	<path class="st5" d="M522.9,255.2c0,0,3,9.7,0,12.3c-3,2.7-26.2-4.8-42.2-3.8s-14.8-5.2-73.2,14.5c0,0,35.7-29.5,51.2-32.7
		S519.7,248.2,522.9,255.2z"/>
	<path class="st5" d="M630.5,245.4c0,0-15.1-3.5-20.4-2.7c-5.3,0.8-31.3,9.2-32.5,15.3c-1.2,6.2-0.2,14,7.8,10.8
		c8-3.2,33.2-16.1,48.1-10.2"/>
	<path class="st5" d="M345,360.2c0,0-8.5,9.7-2.8,16.3c5.7,6.7,15,19.5,1.2,16.7c-13.8-2.8-2.8-8.7-20.5-7.5
		c-17.7,1.2-5.5-37.3-5.5-37.3s6.8-10.8,12.5,1.8"/>
	<path class="st5" d="M314.6,327.7c0,0-11.4-15.9-25.4-7"/>
	<path class="st5" d="M284.9,360.5c0,0,4.8,14.2,17.1,25.7"/>
	<path class="st5" d="M407.5,49.5c0,0,44.3-39.6,103.5-23.6s132.5,38.7,150.5,136s17.3,79.6,17.3,79.6"/>
	<path class="st5" d="M686,272.8c0,0,31.5,122.5,30.8,172.5c-0.7,50-12.7,148.7,5.3,247.3s42.7,208,40,280"/>
	<path class="st5" d="M384.9,529.2c0,0,73.3,85.3,78.7,116c5.3,30.7,23.1,35.3,26.2,22"/>
	<path class="st5" d="M323.5,633.9c0,0,32-4.7,40,0s106.4,114,126.2,104.7"/>
	<path class="st5" d="M578.3,267.5c0,0-16.1,6.4-14.1,31.4s17.7,70,17.7,70s7,10.7,3.3,20.4c-3.7,9.7-12.3,18-17,20.7
		c-4.7,2.7-1.6,24.5,8.2,31.1"/>
	<path class="st5" d="M532.5,377.9c0,0-15.3,4.7-15,12.7s-1,15.3,10,20"/>
	<path class="st1" d="M534.9,403.9c0,0,8-5.6,14.7-2.2c6.7,3.3,5.6-2.1,4-4.4c-1.7-2.3-7.1-4.5-14.6-1.2
		C531.4,399.4,532.7,404.7,534.9,403.9z"/>
	<path class="st5" d="M575.2,404.3c0,0,7.5-1.7,11.1-0.3c3.6,1.4,9.2-3.4,8.1-7.7c-1.2-4.3-2.7-11.9-8.1-12.7"/>
	<path class="st5" d="M554.8,411.4c0,0-7.4,21.2,3.3,29"/>
	<path class="st5" d="M507,465.9c0,0,7.9-0.5,18.1-10.2s33.7-21,43.4-10.2c0,0,5.5-6.2,13.8-3.2s13.8,16.8,13.8,17.5
		s-14.5-2-23.5,0.2s-14.4-1.5-14.4-1.5S547,452.9,507,465.9z"/>
	<path class="st5" d="M514.7,463.5c0,0,12.2,4.1,17.8,8.4s22.3,6.8,31.5,3.5c0,0,2.4-1.5,4.7-0.2s24.2,3.5,27.2-13"/>
	<path class="st5" d="M547.2,504.7c0,0,21-13.8,44.2-1.8"/>
	<path class="st5" d="M578.3,308.7c0,0,0,0,1.6-2.1c3.4-4.3,7.1-10.5,9.5-12.9c2-2,17-9.8,29.8-3.1s16.2,10.8,16.2,10.8"/>
	<path class="st5" d="M631.7,300.2c0,0-3.8,12.2-14.5,12.8s-26.2,2.6-37.2-6.3"/>
	<path class="st5" d="M504.6,307.2c0,0-11.3-17.8-29.1-16.6s-21.9,2.7-43.4,22.2"/>
	<path class="st5" d="M438.5,310.2c0,0,16.8,7,33.2,7.2s30.5-10.6,30.5-10.6"/>
	<path class="st5" d="M457.4,294.5c0,0-2.8,7.4,0,13.4s16.3,6.2,21.3,2.2s6.8-11.5,3.2-17.5"/>
	<path class="st5" d="M609.1,287.9c0,0,4.8,8.3,1.3,14.8s-9.1,8.6-15.9,5.9s-8.6-10.2-6.8-13"/>
	<path class="st5" d="M721,685.5c0,0,89.2,31.8,122.6,61.4"/>
	<path class="st5" d="M671.2,211.8c0,0,7.3,0.8,10.3-1.2s20.5,5,31.8-1.5"/>
	<path class="st5" d="M720.5,247.2c0,0-12.5-23.6-12-35.2"/>
	<path class="st5" d="M665.9,247.2l32.3-8.5c0,0,4.5-2,9,0s15.5,11.5,15.5,11.5"/>
	<path class="st5" d="M673.2,273.7c0,0,22.5-0.8,26.8-4c4.2-3.2,5.2,17,15.5,24.8c0,0,0,4.5,3,7.2c0,0-2.2,11.2,0,14l-7.9,69.1"/>
	<path class="st5" d="M692.2,294.6h5.5c0,0,6.4-0.9,7.7-16.9"/>
	<line class="st5" x1="718.5" y1="301.7" x2="721" y2="301"/>
	<line class="st5" x1="718.5" y1="315.7" x2="721" y2="317.2"/>
	<line class="st5" x1="716.8" y1="293.9" x2="717.7" y2="293"/>
	<path class="st5" d="M688,212c0,0,1.1,16.3,10.2,26.7"/>
	<path class="st5" d="M663.7,173.5c0,0,7.8,0.9,10.8-3.1c0,0,6,7.2,24.8,10.8"/>
	<path class="st5" d="M658.8,149.4l7-2.5c0,0,39.1-0.2,56.8,8.8c0,0,7,1,8.2,2.5s1.2,19.5,0,24.8"/>
	<path class="st5" d="M716.4,430.4l19.3,23c0,0,35,68.9,82.5,201.4c0,0,31,124,47.5,156.5"/>
	<path class="st5" d="M313.3,310.1c0,0,32.3-100.2,61.6-145.2c29.3-45,99.6-40.3,99.6-40.3s-3.6-54.9,36.4-52.8s77,3.1,90.7,28.5
		s114.2,323.2,114.2,323.2"/>
	<path class="st5" d="M462.8,110.4c0,0-76.6,7.5-96.6,36.5s-60,160.3-60,160.3"/>
	<path class="st5" d="M197.9,651.7l93-346.1l43-154.3c0,0,22.2-68.8,112.9-65.7c0,0,14.1-34.4,37-40s65.3-7.1,93.3,3.4"/>
	<path class="st5" d="M453.9,96.8c0,0-63.2-5.5-95.7,39.1s-58.5,170.5-58.5,170.5"/>
	<path class="st5" d="M483.8,135.2c0,0-75.7-14.6-107,50.7S324.1,320,324.1,320"/>
	<line class="st5" x1="382.7" y1="208.8" x2="350.2" y2="279.9"/>
	<line class="st5" x1="345.1" y1="297.6" x2="331.9" y2="331"/>
	<path class="st5" d="M350.4,318.7l-12,25.4c0,0-7.5,9.8-3.2,14.5c4.3,4.7,8.7-0.8,8.7-0.8"/>
	<line class="st5" x1="355.2" y1="331" x2="342.1" y2="353.2"/>
	<line class="st5" x1="359.1" y1="340.4" x2="347.7" y2="361"/>
	<line class="st5" x1="362.8" y1="349.5" x2="354.7" y2="363.8"/>
	<path class="st5" d="M438.5,73.6c0,0-43.6-10.7-77.6,20s-44.3,70-44.3,70L184.3,665.6"/>
	<line class="st5" x1="282.7" y1="380.1" x2="211.4" y2="639.9"/>
	<line class="st5" x1="290.5" y1="390.2" x2="226.7" y2="627.8"/>
	<polyline class="st5" points="234.6,620 303.5,404 320.1,417 247.1,612.5 	"/>
	<line class="st5" x1="331.5" y1="423.2" x2="265.5" y2="599"/>
	<line class="st5" x1="340.2" y1="426.5" x2="282.7" y2="586.1"/>
	<line class="st5" x1="349.5" y1="438.7" x2="296.4" y2="575.8"/>
	<line class="st5" x1="350.6" y1="465.9" x2="311.5" y2="564.6"/>
	<path class="st5" d="M426.9,61.2c0,0-68.8-24.3-102.8,49.2S154.9,739.1,154.9,739.1"/>
	<path class="st5" d="M393.9,45.5c0,0-73.3,0.1-97.5,86.3s-89.1,349.1-89.1,349.1l22.1-145.2l64-234.4"/>
	<line class="st5" x1="141.3" y1="767.9" x2="207.3" y2="480.9"/>
	<line class="st5" x1="166" y1="620" x2="129.3" y2="791.9"/>
	<path class="st5" d="M134.4,714l-15.6,97.9c0,0,54-101.3,55.3-126.7c1.3-25.3,70-69.3,114-103.3c2.8-2.2,5.6-4.2,8.2-6.1
		c38.8-27.9,59.9-31.9,52.5-147.6"/>
	<line class="st5" x1="112.9" y1="775.3" x2="106.2" y2="835.4"/>
	<path class="st5" d="M662.4,243.2c0,0,3.2,26.5,12.2,37.5"/>
	<path class="st5" d="M508.2,133.9c0,0-8.2-34.3,15.7-36c23.8-1.7,43.9,5.5,57.7,29.1"/>
	<path class="st5" d="M518.5,133.9c0,0-3.3-24,16.8-22.3c20.2,1.7,30.1,15.3,30.1,15.3"/>
	<path class="st5" d="M533,132.4c0,0-2.7-11.7,5.5-10.7s17.5,7.8,17.5,7.8"/>
	<line class="st5" x1="673.2" y1="273.7" x2="703.1" y2="346.9"/>
	<path class="st5" d="M458.4,103.9c0,0,9.8-44.5,38.3-46.5c28.5-2,86.7-8,108.6,23.3c21.9,31.2,67.1,164.8,67.1,164.8"/>
	<line class="st5" x1="668.5" y1="201.5" x2="620.7" y2="79.4"/>
	<path class="st5" d="M532.6,32c0,0-56.3-4.6-69.9,12.6c-13.6,17.3-20.1,34.8-20.1,34.8"/>
	<path class="st5" d="M432.1,66.1c0,0,17.8-31.6,30.7-34.6c12.9-3,52.3-4.5,52.3-4.5"/>
	<line class="st5" x1="421.9" y1="57.4" x2="450" y2="27"/>
	<line class="st5" x1="647" y1="331" x2="712.9" y2="601.7"/>
	<line class="st5" x1="650.9" y1="394.6" x2="716.3" y2="651.7"/>
	<line class="st5" x1="643.5" y1="414.4" x2="734.5" y2="757.7"/>
	<path class="st5" d="M638.6,445l114.8,419.5c0,0,80.8,36.1,115.4,38.8c34.7,2.7,93.3,6.6,118.7-19.4s24.7-22.6,12.7-72
		S895.5,564.1,850.9,504.7c-44.7-59.4-68.6-113.4-68.6-113.4s-18.3-68.2-19.8-91.1c-1.5-22.9-0.2-29.5-10.2-48.8
		s-14.5-59.2-14.5-59.2s0.5-6.5-1.8-7.8s-16-4.5-36.8-3.2s-33.3,3.8-33.3,3.8"/>
	<line class="st5" x1="630.6" y1="469.5" x2="761.6" y2="935.8"/>
	<line class="st5" x1="618" y1="496.2" x2="739.2" y2="913.9"/>
	<line class="st5" x1="606.9" y1="517.3" x2="698.8" y2="843.2"/>
	<line class="st5" x1="596" y1="536.8" x2="683.6" y2="855.9"/>
	<line class="st5" x1="582.7" y1="551.2" x2="662.4" y2="855.9"/>
	<line class="st5" x1="569.3" y1="559" x2="647" y2="863.2"/>
	<line class="st5" x1="550.2" y1="564.6" x2="626.2" y2="863.2"/>
	<line class="st5" x1="596" y1="865.9" x2="523.8" y2="569.7"/>
	<line class="st5" x1="580" y1="860.6" x2="513.2" y2="582.5"/>
	<line class="st5" x1="564" y1="860.6" x2="504.6" y2="603.6"/>
	<line class="st5" x1="498" y1="624.4" x2="525" y2="743"/>
	<line class="st5" x1="491.5" y1="645.2" x2="503.5" y2="692.6"/>
	<line class="st5" x1="714.5" y1="499.7" x2="628.4" y2="201.5"/>
	<line class="st5" x1="716.3" y1="457.2" x2="631.7" y2="212"/>
	<g>
		<g>
			<path class="st3" d="M728.6,686.2c4.4-28.9-2.8-154.5-3-156.1c-0.1-0.6,0.4-1,0.9-1.1c0.5-0.1,1,0.4,1.1,0.9
				c0,0.4,3.9,41.5,5,85.6c1.4,59.3-1.8,71.6-1.8,71.6"/>
		</g>
		<g>
			<path class="st3" d="M732.3,633.6c-0.2,0.1-0.5,0.1-0.7,0c-0.5-0.2-0.8-0.8-0.6-1.3c8.8-23.9,41.7-47.3,51.5-53.9
				c13.8-9.2,45-54.3,48.6-59.5l0.5-0.8c0.5-2.6,4.8-24.8,14.3-30.1c0.3-0.2,0.7-0.2,1,0c0.3,0.2,0.5,0.6,0.4,0.9
				c-0.1,1-2.9,23.4-13.6,31.2c-0.4,0.3-0.8,0.2-1.2,0c-6.1,8.8-35.3,50.7-49,59.8c-9.7,6.5-42.2,29.6-50.8,52.9
				C732.8,633.3,732.5,633.5,732.3,633.6z M845.1,491.1c-6.8,6-10.5,22.4-11.3,26.6C841,511.3,844.1,496.8,845.1,491.1z"/>
		</g>
		<g>
			<path class="st3" d="M731.5,600.5c-0.2,0.1-0.4,0.1-0.6,0c-0.5-0.1-0.9-0.7-0.7-1.2c5.9-24.4,22.4-59.8,39.3-84.3
				c13.6-19.7,29.4-64.6,33.9-77.9c0.8-2.3,1.2-3.6,1.2-3.6c1.2-2.8,11.4-27.2,19.1-25.5c0.5,0.1,0.8,0.6,0.8,1.1
				c0,0.3-0.6,6.8-3.2,13.6c-3.5,9.2-9,14.4-15.9,15.1c0,0,0,0-0.1,0c-4.5,13.4-20.4,58.5-34.1,78.3c-16.8,24.2-33.2,59.4-39,83.6
				C732,600.1,731.8,600.3,731.5,600.5z M805.9,435.7c12.5-2,15.8-21,16.4-25.7c-4.8,0.9-12.1,15-15.9,24.2
				C806.4,434.2,806.3,434.8,805.9,435.7z"/>
		</g>
		<g>
			<path class="st3" d="M741.6,669.6c-4.5,1.7-8.8,2.7-10.9,2.1c-0.3-0.1-0.6-0.4-0.7-0.7c-0.1-0.3,0-0.7,0.2-0.9
				c0.5-0.6,13.2-15.3,21-15.1c5,0.1,7.3,0.5,7.8,2.1c0.4,1.4-0.8,2.9-4.4,5.6C751.2,665.3,746.2,667.9,741.6,669.6z M733.1,669.9
				c4.6-0.4,14.2-4.2,20.3-8.7c3-2.2,3.6-3.2,3.7-3.4c-0.7-0.5-4.6-0.6-5.9-0.7C746.1,656.9,737.4,665.2,733.1,669.9z"/>
		</g>
		<g>
			<path class="st3" d="M730.2,685.6C730.2,685.6,730.2,685.6,730.2,685.6c-7.6,2.1-15.5-4.2-20.4-10.9c-0.8-1.1-5-6.9-3.5-9.2
				c0.2-0.3,0.8-1,2.1-0.7c5.6,1.2,20.6,17.4,22.2,19.2c0.2,0.3,0.3,0.6,0.2,1C730.7,685.2,730.5,685.5,730.2,685.6z M708,666.7
				c0,1.1,1.7,5.3,6,9.9c2.3,2.5,8,7.8,13.9,7.4C722.7,678.4,711.8,667.6,708,666.7z"/>
		</g>
		<g>
			<path class="st3" d="M737.2,649.2c-2,0.8-3.9,1.1-5.6,0.7c-0.3-0.1-0.6-0.3-0.7-0.6c-0.1-0.3-0.1-0.7,0.1-0.9
				c0.5-0.7,12.3-17.6,17-20.2c0.7-0.5,5.7-4.3,9.8-3.6c0.6,0.1,1,0.5,1.2,1c0.9,2.7-5.1,9.9-6.4,11.4
				C748.2,642.1,742.4,647.2,737.2,649.2z M733.7,648.1c3.5-0.3,8.3-3.2,13.5-8.3c6-5.8,9.6-11.6,9.8-13.3c-2.8-0.2-6.6,2.3-7.9,3.3
				c0,0-0.1,0.1-0.1,0.1C745.9,631.6,737.7,642.5,733.7,648.1z"/>
		</g>
		<g>
			<path class="st3" d="M731.8,663.2c-0.1,0-0.2,0.1-0.3,0.1c-9.6,1-24.7-15.9-25.4-16.6c-0.2-0.2-0.3-0.5-0.2-0.8l1.1-7.7
				c0-0.3,0.2-0.5,0.4-0.7c0.2-0.2,0.5-0.2,0.7-0.2c7.6,1.1,22.4,22,24.1,24.4c0.2,0.3,0.2,0.7,0.1,1
				C732.2,662.9,732,663.1,731.8,663.2z M708,645.6c2,2.2,13.5,14.4,21.5,15.5c-4.9-6.7-15.1-19.5-20.6-21.6L708,645.6z"/>
		</g>
		<g>
			<path class="st3" d="M732.3,638.5c0,0-0.1,0-0.1,0c-11.4,3-20.4-13.3-20.7-14c-0.2-0.3-0.2-0.7,0-1l2.8-4.3
				c0.2-0.3,0.7-0.5,1.1-0.4c6.8,1.6,17,17.6,17.4,18.2c0.2,0.3,0.2,0.6,0.1,0.9C732.8,638.2,732.5,638.4,732.3,638.5z M713.5,624
				c1.5,2.5,8.5,13.6,16.8,12.8c-3.2-4.8-10.1-14.1-14.7-15.9L713.5,624z"/>
		</g>
		<g>
			<path class="st3" d="M799.4,594c-8.1,3.1-32.7,1.9-36.2,0.8c-0.4-0.1-0.7-0.5-0.7-0.9c0-0.4,0.2-0.8,0.7-0.9
				c0.1,0,7.3-2.5,15.4-4.3c11.1-2.4,18.5-2.2,22,0.5c1.8,1.4,1.5,2.6,1.2,3.3C801.4,593,800.6,593.6,799.4,594z M767.7,593.5
				c4,0.4,10.1,0.6,15.9,0.5c12.8-0.3,16.2-2,16.4-2.6l0,0c0,0-0.1-0.2-0.7-0.7C794,586.6,777.2,590.6,767.7,593.5z"/>
		</g>
		<g>
			<path class="st3" d="M775,586.1c-0.3,0.1-0.6,0.1-0.9-0.1c-4.3-2.8-5.4-20.8-4-27.9c0.3-1.5,0.8-3.5,2.3-3.8
				c0.9-0.2,1.7,0.4,2.5,1.6c5.1,8,0.9,28.5,0.7,29.4C775.6,585.6,775.4,585.9,775,586.1C775.1,586,775.1,586,775,586.1z
				 M772.8,556.3c-0.7,0.9-1.4,5-1.1,12c0.2,6.3,1.2,11.8,2.5,14.4c0.9-5.5,2.9-19.9-0.9-25.8C773,556.6,772.9,556.4,772.8,556.3z"
				/>
		</g>
		<g>
			<path class="st3" d="M788.8,575.7C788.8,575.7,788.8,575.7,788.8,575.7c-0.5,0.1-0.9,0-1.1-0.3c-4-4.9-5.6-11.8-4.5-19.9
				c0.8-6,2.7-10.6,2.8-10.8c0.1-0.3,0.4-0.5,0.7-0.6c0.3-0.1,0.6,0,0.9,0.2c5.5,4.5,2.3,27.9,1.9,30.5
				C789.4,575.2,789.2,575.5,788.8,575.7z M787.1,547.3c-1.5,4.4-4.6,16.1,0.7,24.8C789.7,557.4,788.4,550.2,787.1,547.3z"/>
		</g>
		<g>
			<path class="st3" d="M820.2,564.7c-2.7,1.1-6.4,1.8-11,1.5c-0.3,0-6.4-0.9-8.3-5.9c-0.1-0.3-0.1-0.5,0-0.8
				c0.1-0.2,0.3-0.4,0.6-0.5c0.2-0.1,5.1-1.8,10.8-2.9c7.8-1.5,13-0.9,15.5,1.7c0.3,0.3,0.3,0.8,0.1,1.2
				C827.7,559.2,825.7,562.6,820.2,564.7z M803.2,560.5c1.9,3.1,6.1,3.7,6.2,3.7c10.3,0.5,14.9-4,16.3-5.7
				C821.3,555.4,808.9,558.6,803.2,560.5z"/>
		</g>
		<g>
			<path class="st3" d="M732,616.7c-0.1,0-0.2,0.1-0.3,0.1c-5.3,0.6-13.9-6.7-14.3-7c-0.2-0.1-0.3-0.3-0.3-0.5l-2.1-9.6
				c-0.1-0.5,0.2-1,0.7-1.2c5.4-1.9,14.9,12.4,16.7,15.3c0.3,0.4,0.2,1-0.2,1.3c0.2,0.2,0.3,0.4,0.4,0.7
				C732.7,616.1,732.4,616.5,732,616.7z M719.1,608.4c2.3,1.9,8.1,6.1,11.7,6.4c0,0,0,0,0,0c-3.9-6-10.2-13.8-13.5-14.5L719.1,608.4
				z"/>
		</g>
		<g>
			<path class="st3" d="M736.3,602.5c-1.5,0.6-3.1,1-4.8,1.4c-0.4,0.1-0.8-0.1-1-0.4c-0.2-0.3-0.3-0.8,0-1.1
				c0.5-0.9,12.9-21.1,20.4-22.8c0.3-0.1,0.6,0,0.8,0.2c0.2,0.2,0.4,0.4,0.4,0.7C752,580.7,752.8,596.2,736.3,602.5z M733.5,601.4
				c14.4-4.4,16.3-15.4,16.6-19.3C745,584.6,737.4,595.3,733.5,601.4z"/>
		</g>
		<g>
			<path class="st3" d="M747.3,573.7c-1.1,0.4-2.2,0.7-3.2,0.7c-1.8,0-3.3-0.7-4.4-2.1c-0.3-0.4-0.3-1,0.1-1.3
				c2.2-2.1,21.2-20.2,28.1-17.7c0.3,0.1,0.5,0.4,0.6,0.7c0.1,0.3,0,0.6-0.2,0.9C767.8,555.4,756.2,570.3,747.3,573.7z M741.9,571.7
				c0.6,0.5,1.4,0.7,2.2,0.7c6.1,0,16.7-11.5,21.5-17.4C760.3,555.8,748.9,565,741.9,571.7z"/>
		</g>
		<g>
			<path class="st3" d="M730,570.5C730,570.5,730,570.5,730,570.5c-10.3,3.4-24.2-13.8-24.8-14.5c-0.2-0.2-0.3-0.6-0.2-0.9
				c0.1-0.3,0.3-0.6,0.6-0.7c0,0,0.1,0,0.1-0.1c11.3-4.3,24.1,13.8,24.7,14.6c0.2,0.3,0.2,0.6,0.1,0.9
				C730.5,570.2,730.3,570.4,730,570.5z M707.8,555.9c3.1,3.5,12.7,13.9,20.1,13.1C725,565.2,715.8,554.3,707.8,555.9z"/>
		</g>
		<g>
			<path class="st3" d="M728.5,549c-0.1,0-0.1,0-0.2,0.1c-7.7,1.2-20.9-10-21.4-10.4c-0.2-0.2-0.4-0.5-0.4-0.8
				c0-0.3,0.2-0.6,0.4-0.8l5.1-3.6c0.2-0.1,0.3-0.2,0.5-0.2c8.1-0.4,16.2,13.7,16.5,14.3c0.2,0.3,0.2,0.6,0,0.9
				C729,548.7,728.8,548.9,728.5,549z M709.2,537.9c2.9,2.3,11.5,8.7,17.2,9.2c-2.7-4.3-8.5-11.8-13.5-11.8L709.2,537.9z"/>
		</g>
		<g>
			<path class="st3" d="M731.3,595.5c-0.2,0.1-0.4,0.1-0.5,0c-17.8-3.4-22.3-16.5-22.5-17c-0.1-0.3-0.1-0.5,0.1-0.8
				c0.1-0.2,0.3-0.4,0.6-0.5c11.5-3.5,22.4,16,22.9,16.8c0.2,0.3,0.2,0.8-0.1,1.1C731.7,595.3,731.5,595.4,731.3,595.5z M710.6,579
				c1.3,2.9,6,11,18.3,14.1C726,588.6,718.2,577.8,710.6,579z"/>
		</g>
		<g>
			<path class="st3" d="M747.7,556.9c-0.3,0.1-0.7,0.1-1-0.1c-6.2-4.6-9.9-11.7-10.7-20.4c-0.6-6.6,0.7-11.7,0.8-12
				c0.1-0.3,0.2-0.5,0.5-0.6c0.2-0.1,0.5-0.2,0.8-0.1c4.6,1.2,7.7,7,9.3,17.5c1.1,7.5,1,14.8,1,14.9
				C748.3,556.4,748.1,556.7,747.7,556.9C747.7,556.9,747.7,556.9,747.7,556.9z M738.6,526c-0.7,4.1-2.5,18.9,7.8,27.9
				C746.3,545.5,744.8,529.1,738.6,526z"/>
		</g>
		<g>
			<path class="st3" d="M816.2,578c-0.1,0-0.1,0-0.2,0.1c-0.8,0.1-20.7,2.9-26.1-4.9c-0.2-0.3-0.2-0.7-0.1-1
				c0.2-0.3,0.5-0.5,0.8-0.6c0.2,0,5.5-0.5,11.3-0.1c8,0.5,13,2.2,14.8,5.1c0.2,0.3,0.2,0.6,0.1,0.9
				C816.7,577.7,816.5,577.9,816.2,578z M792.9,573.4c5,4,16.3,3.3,20.9,2.9C809.7,573.2,798.9,573,792.9,573.4z"/>
		</g>
		<g>
			<path class="st3" d="M802.2,560.9c-0.1,0-0.2,0-0.2,0.1c-0.4,0-0.8-0.1-1-0.5c-0.5-0.8-11.7-19.9-4.3-32c0.2-0.3,0.6-0.5,1-0.5
				c0.4,0,0.7,0.3,0.8,0.6c0.3,0.9,7.7,21,4.4,31.7C802.7,560.5,802.5,560.8,802.2,560.9z M797.3,531.5c-3.4,8.7,1.6,20.6,4.1,25.6
				C802.5,548.8,798.9,536.5,797.3,531.5z"/>
		</g>
		<g>
			<path class="st3" d="M832.3,547.8c-4.7,1.8-11.4,2.5-19.8-1c-0.4-0.2-0.6-0.5-0.6-0.9c0-0.4,0.3-0.8,0.6-0.9
				c4-1.5,24.4-9.1,28.3-4.3c0.3,0.4,0.3,0.9,0,1.3C840.8,542,837.8,545.6,832.3,547.8z M815.7,545.9c12.9,4.3,20.6-2.1,22.9-4.4
				C835.3,539.9,824.3,542.8,815.7,545.9z"/>
		</g>
		<g>
			<path class="st3" d="M845.7,521.9c-3.9,1.5-9.4,2.8-17,3.3c-0.5,0-0.9-0.3-1-0.7c-0.1-0.5,0.1-0.9,0.5-1.2
				c7.1-3.7,23.9-12,26.8-9.8c0.4,0.3,0.5,0.7,0.3,1.2C855.2,515,853.6,518.9,845.7,521.9z M833.9,522.7c12.6-1.7,17.3-5.6,18.8-7.6
				C849.7,515.5,841.8,518.8,833.9,522.7z"/>
		</g>
		<g>
			<path class="st3" d="M827.3,527.5c-0.1,0-0.2,0.1-0.4,0.1c-0.5,0-0.9-0.3-1-0.8c-1.6-6.5-6.3-28.1-2.3-31c0.6-0.4,1.6-0.8,3,0.1
				c7.8,4.6,1.9,28.3,1.3,31C827.8,527.1,827.6,527.4,827.3,527.5z M824.9,497.3C824.9,497.3,824.9,497.4,824.9,497.3
				c-1.8,1.4-0.4,13.1,2,24.7c1.7-8.4,3.3-21.8-1.3-24.5C825.5,497.5,825.1,497.3,824.9,497.3z"/>
		</g>
		<g>
			<path class="st3" d="M816.9,541.9c-0.1,0-0.2,0-0.2,0.1c-0.4,0-0.8-0.1-1-0.5c-7.9-12.9-1-33.4-0.7-34.2c0.1-0.4,0.4-0.6,0.8-0.7
				c0.4-0.1,0.7,0.1,1,0.4c8,10.9,1.1,33.3,0.8,34.3C817.4,541.6,817.2,541.8,816.9,541.9z M816.2,510c-1.4,5.1-4.3,18.5,0,28.3
				C817.7,532.7,820.6,518.5,816.2,510z"/>
		</g>
		<g>
			<path class="st3" d="M772.2,545.2c-5.3,2-12,3.1-19.8,1.1c-0.4-0.1-0.7-0.4-0.7-0.9c0-0.4,0.2-0.8,0.5-1
				c1-0.5,24.1-12.7,33.2-10.1c0.3,0.1,0.6,0.3,0.7,0.7c0.1,0.3,0,0.7-0.2,0.9C785.8,536,780.8,541.9,772.2,545.2z M755.6,544.9
				c14.1,2.4,24.1-5.7,27.5-9C775.6,535.5,761.4,542.1,755.6,544.9z"/>
		</g>
		<g>
			<path class="st3" d="M757.5,537.9c-0.2,0.1-0.4,0.1-0.6,0c-10.1-2.1-10.6-21.6-10.6-22.4c0-0.1,0-0.3,0.1-0.4l4.5-10.8
				c0.2-0.4,0.5-0.6,0.9-0.6c0.4,0,0.8,0.2,0.9,0.6c2.7,5.7,5.3,31.6,5.4,32.7c0,0.3-0.1,0.6-0.3,0.8
				C757.7,537.8,757.6,537.9,757.5,537.9z M748.3,515.7c0.1,1.9,0.9,16.7,7.7,19.9c-0.5-5-2.3-21.1-4.3-28.1L748.3,515.7z"/>
		</g>
		<g>
			<path class="st3" d="M786.4,520.3c-7.6,2.9-14.2,2.8-18.9-0.5c-0.3-0.2-0.5-0.6-0.4-0.9c0-0.4,0.3-0.7,0.6-0.8
				c0.9-0.4,23-9.3,30.4-6c0.3,0.1,0.5,0.4,0.6,0.8c0,0.4-0.1,0.7-0.4,0.9c-0.2,0.1-4.7,3.6-10.7,6.1
				C787.1,520,786.7,520.2,786.4,520.3z M770.3,519.1c8.7,4.1,20.5-2.8,25-5.7C789.1,512.7,776.8,516.7,770.3,519.1z"/>
		</g>
		<g>
			<path class="st3" d="M799.8,498.1c-6,2.3-15.3,4.4-21.8,5.7c-0.5,0.1-0.9-0.2-1.1-0.6c-0.2-0.4,0-0.9,0.3-1.2
				c0.8-0.5,19-13.3,26.7-10c1.5,0.6,1.7,1.5,1.6,2.1C805.4,495.5,803.1,496.8,799.8,498.1z M782.9,500.7c9.9-2.2,19.4-5.1,20.6-6.6
				c-0.1,0-0.2-0.1-0.4-0.2C798.8,492,789.2,496.8,782.9,500.7z"/>
		</g>
		<g>
			<path class="st3" d="M798.1,484.5c-2.4,0.9-6.4,1.4-11.1-1.8c-0.3-0.2-0.4-0.5-0.4-0.8c0-0.3,0.1-0.6,0.4-0.8
				c0.1,0,5.1-4.2,10.6-7.9c10.4-7.1,13.5-6.8,15-6c0.8,0.4,1.3,1.2,1.3,2c0.2,4.2-10.7,12.1-13,13.8
				C800.6,483.2,799.6,484,798.1,484.5z M789.2,481.8c6.3,3.4,10.2-0.3,10.3-0.3c0,0,0.1-0.1,0.1-0.1c5.1-3.6,12.3-9.8,12.2-12.1
				c0-0.1,0-0.2-0.3-0.4C809.9,468,802,471.5,789.2,481.8z"/>
		</g>
		<g>
			<path class="st3" d="M803.5,463c-2.5,1-5.4,1.2-8.5,0.6c-0.3-0.1-0.6-0.3-0.8-0.6c-0.1-0.3-0.1-0.7,0.1-1
				c2.6-3.2,15.6-19.5,20.4-19.8c0.3,0,0.6,0.1,0.8,0.3c0.2,0.2,0.3,0.5,0.3,0.8c-0.1,0.5-1.6,12.3-9.1,17.9
				C805.8,461.9,804.7,462.5,803.5,463z M797.1,461.9c3.3,0.3,6.1-0.5,8.6-2.3c5.3-3.9,7.3-11.5,8-14.9
				C809.9,446.9,802.2,455.5,797.1,461.9z"/>
		</g>
		<g>
			<path class="st3" d="M770.7,516.1c-0.6,0.2-1.2,0.2-1.9-0.1c-5.5-2.4-14.5-25.8-11.5-32.9c0.1-0.3,0.5-0.6,0.8-0.6
				c0.4,0,0.7,0.1,0.9,0.4c1.7,2.4,16.7,24.1,13.2,31.7C771.8,515.3,771.3,515.9,770.7,516.1z M758.6,485.9
				c-0.8,8.2,7.2,26.6,11,28.3c0.3,0.1,0.5,0.2,0.8-0.5C772.8,508.7,763.7,493.3,758.6,485.9z"/>
		</g>
		<g>
			<path class="st3" d="M779.8,500.5c-0.2,0.1-0.5,0.1-0.8,0c-0.2-0.1-18.5-8.4-13.3-32.9c0.1-0.4,0.4-0.7,0.8-0.8
				c0.4-0.1,0.8,0.1,1,0.4c0.5,0.8,13.4,20.3,12.9,32.4c0,0.3-0.2,0.6-0.5,0.8C779.9,500.4,779.9,500.5,779.8,500.5z M767.3,470.5
				c-2.7,17.4,7.3,25.1,11.2,27.4C778,488.7,770.4,475.6,767.3,470.5z"/>
		</g>
		<g>
			<path class="st3" d="M788.9,480.3c-0.2,0.1-0.5,0.1-0.7,0c-7.4-3-12-16.2-13-24.7c-0.5-4-0.1-6.5,1.2-7.4
				c0.4-0.3,1.1-0.6,2.2-0.1c5.8,2.8,10.4,28.2,10.9,31c0.1,0.4-0.1,0.7-0.4,1C789.1,480.2,789,480.2,788.9,480.3z M777.5,449.9
				c-0.1,0.1-0.7,1.2-0.5,4.5c0.6,7.5,4.6,19,10.1,23c-2-10.6-6-25.8-9.4-27.5C777.6,449.9,777.6,449.9,777.5,449.9z"/>
		</g>
		<g>
			<path class="st3" d="M796.7,459.9c-0.1,0-0.2,0.1-0.3,0.1c-3.5,0.1-6.5-1.1-8.9-3.6c-9.2-9.4-8-34.1-7.9-35.1
				c0-0.4,0.3-0.7,0.6-0.9c0.4-0.2,0.8-0.1,1,0.2c0.3,0.3,8.6,7.5,9.8,20.6c1.1,12.2,6,17.1,6.1,17.1c0.3,0.3,0.4,0.7,0.2,1.1
				C797.2,459.6,797,459.8,796.7,459.9z M781.5,423.7c-0.1,6.4,0.4,24.1,7.4,31.3c1.5,1.6,3.3,2.5,5.3,2.9
				c-1.7-2.5-4.4-7.7-5.2-16.5C788.2,432.4,783.9,426.4,781.5,423.7z"/>
		</g>
		<g>
			<path class="st3" d="M804.2,439.6C804.2,439.6,804.2,439.6,804.2,439.6c-0.4,0.1-0.8,0-1.1-0.2c-0.9-0.9-21.6-21.9-16.2-35.3
				c0.1-0.3,0.4-0.6,0.8-0.6c0.4-0.1,0.7,0.1,0.9,0.4c0.7,0.9,17.5,22.3,16.2,35C804.8,439.2,804.6,439.5,804.2,439.6z M788.3,406.6
				c-2,10.1,10.1,24.6,14.6,29.6C802.2,426.1,791.8,411.4,788.3,406.6z"/>
		</g>
		<g>
			<path class="st3" d="M806.6,433.1c-0.4,0.1-0.8,0.1-1-0.2c-6.3-5.8-7.3-33.3-3.9-37.5c0.8-1,1.9-1.1,3-0.4
				c5.3,3.9,3.1,31.7,2.6,37.2C807.2,432.6,806.9,433,806.6,433.1C806.6,433.1,806.6,433.1,806.6,433.1z M803.3,396.6
				c0,0-0.7,0.5-1.2,3.8c-1.2,7.8,0.1,22.9,3.3,29.1c0.9-12.5,1.2-30.4-2-32.7C803.4,396.6,803.3,396.6,803.3,396.6z"/>
		</g>
	</g>
	<g>
		<path class="st6" d="M222.2,909.9c0,0-7.8-15.4-18.1-47.3c-3.6-11-7.1-23.3-10.2-36.3c-3.1-13-5.6-26.7-7.3-40.7
			c-6.6-56.6-17-95.8-20.4-107.7c-0.7-2.5-1.1-3.8-1.1-3.8s-24.2-88.3-45.8-85.5c0,0,1.8,38.7,16.1,58.6s29.4,29.3,29.4,29.3"/>
		<path class="st6" d="M182.7,756.6c0,0,50.6-67,42.4-125.9c0,0,21.5,4.9,17,42.2c0,0-9.5,41.4-40.1,55"/>
		<path class="st6" d="M193.9,826.3c-9.7-16.3-22.8-26.2-22.8-26.2c-1.1-1-2.2-2-3.4-3c-44.9-39.2-90.1-37.5-90.1-37.5
			s34.4-16.3,76,13.8c0,0,16.1,14.1,15.9,24.7s-39.1,10.1-60.8-7.3S77.1,760,77.1,760"/>
		<path class="st6" d="M190,807.9c0,0,10.4-3.8,16.6-32.6s56.5-62.5,56.5-62.5s-41.2,13.2-55,31.8s-3.7,39.5-3.7,39.5
			s9.1-1.1,20.3-6.8c16.2-8.3,36.7-26.4,40.1-65.1"/>
		<path class="st6" d="M173.2,705.7c8.1-13.1,11.4-38.9,11.4-38.9c14-57.8,39-70.9,39-70.9s0.8,12.5-3.5,39.5
			c-4.3,27-39.9,52.7-39.9,52.7s-17.4-33.9,9.7-73.8c0,0,14.5-19.7,34-19.4"/>
		<path class="st6" d="M200.5,728.4c0,0-2.8-37.3-1.3-57.1"/>
		<path class="st6" d="M79.6,660.8c0,0,14.2,15.1,18.2,32.8s42.2,49.4,72,44.3c0,0-0.1-17.5-21.4-49.8
			C127.1,655.9,79.6,660.8,79.6,660.8s18.2,3.8,43,30c14.8,15.7,33,33.9,45.3,46.1c8.3,8.2,13.9,13.7,13.9,13.7"/>
		<path class="st6" d="M119.4,588.6c0,0,29-4.9,43,32.5s3.9,56.8,3.9,56.8"/>
		<polyline class="st6" points="228.8,794.5 234.2,811.1 260,818 		"/>
		<polyline class="st6" points="150.4,805 165.2,794.9 164.3,785.2 		"/>
		<polyline class="st6" points="156.4,775.9 157.8,789 134.1,802.7 		"/>
		<polyline class="st6" points="123.9,799.4 150.4,783.8 144.9,767.6 		"/>
		<polyline class="st6" points="134.9,762.5 138.7,776.8 113.4,794 		"/>
		<polyline class="st6" points="105.3,787.9 130.2,772.5 125.1,758.8 		"/>
		<polyline class="st6" points="113.4,756.1 119.4,768 97.2,780.9 		"/>
		<polyline class="st6" points="89.2,773.3 109.4,764.6 104.9,755.2 		"/>
		<polyline class="st6" points="96.6,755.3 99.3,762.1 83.7,767.6 		"/>
		<polyline class="st6" points="225.1,630.7 220.1,635.4 225.9,639.3 230.8,633.5 		"/>
		<polyline class="st6" points="199.4,708.3 205.4,719.1 217.4,717.4 		"/>
		<polyline class="st6" points="198.8,696.9 209.5,710.5 224.6,709.3 		"/>
		<polyline class="st6" points="198.8,686 213.6,700.8 232.2,697.8 		"/>
		<polyline class="st6" points="198.8,676.6 216.4,693.6 237.2,687.4 		"/>
		<polyline class="st6" points="202.4,667.8 218.4,687.8 240.5,678.6 		"/>
		<polyline class="st6" points="208,660.6 221.1,677.4 242.4,669.7 		"/>
		<polyline class="st6" points="212.3,654.8 223.8,667.1 242.4,656.7 		"/>
		<polyline class="st6" points="216.4,647.3 225.3,657.2 240.5,648.2 		"/>
		<polyline class="st6" points="218.7,641.3 226,648.2 236.4,639.3 		"/>
		<polyline class="st6" points="153.1,667.1 163.1,667.1 169.6,653 		"/>
		<polyline class="st6" points="146.9,660.9 160.6,659.2 168.1,641.3 		"/>
		<polyline class="st6" points="165.8,631.4 157.5,649.7 135.5,647.2 		"/>
		<polyline class="st6" points="156.9,609.6 150.1,629.7 125.9,626.4 		"/>
		<polyline class="st6" points="162.4,621.1 153.4,638.2 129.7,636.8 		"/>
		<polyline class="st6" points="123.7,618.4 146,620 151,601.6 		"/>
		<polyline class="st6" points="144.6,595.7 140.9,609.6 121.9,609.6 		"/>
		<polyline class="st6" points="120.9,603 137.4,602.2 139.2,592.4 		"/>
		<line class="st6" x1="120.9" y1="595" x2="131.8" y2="595.7"/>
		<line class="st6" x1="201" y1="764.3" x2="207.3" y2="772.8"/>
		<line class="st6" x1="203.2" y1="753.5" x2="209.6" y2="766.9"/>
		<line class="st6" x1="214.1" y1="758.9" x2="209.9" y2="743.3"/>
		<line class="st6" x1="219.4" y1="751.8" x2="217.4" y2="735.5"/>
		<line class="st6" x1="225.5" y1="744.7" x2="224.1" y2="730.8"/>
		<line class="st6" x1="231.7" y1="738.5" x2="231.1" y2="726.7"/>
		<line class="st6" x1="237.8" y1="732.1" x2="237.8" y2="723.2"/>
		<line class="st6" x1="243.7" y1="727.6" x2="243.7" y2="720.4"/>
		<line class="st6" x1="249.5" y1="722.9" x2="249.5" y2="717.9"/>
		<line class="st6" x1="89.2" y1="664.6" x2="83.7" y2="665.6"/>
		<line class="st6" x1="90.5" y1="675.8" x2="103.7" y2="673.7"/>
		<line class="st6" x1="95.9" y1="687.1" x2="115.6" y2="683.8"/>
		<line class="st6" x1="99.3" y1="697.8" x2="125.3" y2="693.6"/>
		<line class="st6" x1="107.1" y1="709.3" x2="135.5" y2="704.3"/>
		<line class="st6" x1="118.9" y1="720.4" x2="144.7" y2="713.7"/>
		<line class="st6" x1="131.8" y1="729.1" x2="154.1" y2="723.2"/>
		<line class="st6" x1="148" y1="736.1" x2="163.5" y2="732.6"/>
		<line class="st6" x1="182.7" y1="677.9" x2="174.8" y2="662.8"/>
		<line class="st6" x1="175.1" y1="654.8" x2="184.2" y2="669.6"/>
		<line class="st6" x1="176.3" y1="646.1" x2="185.8" y2="662.2"/>
		<line class="st6" x1="178.5" y1="637.6" x2="188.1" y2="654.1"/>
		<line class="st6" x1="181.5" y1="629.7" x2="190.3" y2="647.3"/>
		<line class="st6" x1="184.2" y1="624" x2="193" y2="639.8"/>
		<line class="st6" x1="187.7" y1="617.9" x2="195.3" y2="634.4"/>
		<line class="st6" x1="192.3" y1="612.4" x2="198.7" y2="627.2"/>
		<line class="st6" x1="196.4" y1="607.4" x2="201.9" y2="621.1"/>
		<line class="st6" x1="200.5" y1="603.9" x2="205.4" y2="615.3"/>
		<line class="st6" x1="205.4" y1="600.5" x2="208.7" y2="610.6"/>
		<line class="st6" x1="210.9" y1="597.7" x2="212.7" y2="605.7"/>
		<line class="st6" x1="216" y1="595.9" x2="215.9" y2="602.2"/>
		<path class="st6" d="M204.1,862.6c0,0,37.5-79.5,76.8-97l-5.5,27.4c-11,37.6-62,51.8-62,51.8s-4.5-34.6,24.8-60
			c0,0,27.5-20.4,43.9-20.5"/>
		<polyline class="st6" points="262.5,770.1 263.7,776.9 277.7,781.6 		"/>
		<polyline class="st6" points="270.1,766.9 270.1,771.9 279.2,774.2 		"/>
		<polyline class="st6" points="253.3,775 254.9,785.4 276.1,789.2 		"/>
		<polyline class="st6" points="236.4,786.4 240.2,802.8 267.4,809.2 		"/>
		<polyline class="st6" points="272.7,800.1 247.6,793.5 245.5,779.8 		"/>
	</g>
	<g>
		<g>
			<g>
				<g>
					<path class="st6" d="M228.7,543.8c0,0-82.8-26.7-102.7-66.2s36.3-5.7,36.3-5.7S205.9,502.5,228.7,543.8z"/>
					<path class="st6" d="M263.1,712.8c0,0,9.8-49.2,50.8-62.5s6.5,24.4,6.5,24.4S282.4,710.8,263.1,712.8z"/>
					<path class="st6" d="M179.1,609.3c0,0-24.3-29.2-37.7-46.9c-13.4-17.7-32.6-85.3,4.6-33.3c37.2,52,33.6,80.3,33.6,80.3l10.4,5
						c0,0,39.4,23.8,52.4,36.9c1.9,1.9,8.2,13.9,8.2,13.9"/>
					<path class="st6" d="M230.8,594.9c-27.7-7.3-58.5-40.4-58.5-40.4s-28.6-28.5-8.8-28.5s80.2,84.6,80.2,84.6"/>
					<path class="st6" d="M273.5,618.3c0,0-22.3-41.7-23.5-59s-3.2-17.5-4.9-20.3c-1.7-2.8-12.1-17.2,7.1-7.9
						S273.5,618.3,273.5,618.3z"/>
					<line class="st6" x1="223.1" y1="534.4" x2="224.6" y2="519.3"/>
					<path class="st6" d="M223.2,501.1c0,0-24.7-79.7-34.5-83c-9.8-3.3-12.3,21.7-12.3,21.7s-0.4,18,30.4,73"/>
					<path class="st6" d="M292.5,521.6c0,0,6.3-20.9,13.3-15.5c7,5.3-6.2,73.4-20.2,91S292.5,521.6,292.5,521.6z"/>
					<path class="st6" d="M125.6,510.4c0,0,45.6,77.3,54.1,99l-30.8-10.1c-9.3-4.3-28.7-2.2-28.7-2.2s-22.5,1.8-28.6,2
						s-22,9.5-9.2,16.3c12.8,6.8,42.9,8.7,42.9,8.7s21.6,2.2,36.3-6.1"/>
					<path class="st6" d="M169.7,477.4c0,0-26.4-35.7-27.9-40.3c-1.5-4.7-1-15.7,14.7-5.5c15.7,10.2,24.4,26.8,24.4,26.8"/>
					<path class="st6" d="M159.1,584.8c0,0-53.7-46.2-72.7-39.5c0,0,20.1,28.7,49.1,45.4l12.1,8"/>
					<path class="st6" d="M255.8,721.1l7.4-8.2c0,0,44-51.2,68.8-63.7"/>
					<path class="st6" d="M157.5,527.1c0,0,70.2,65.5,72.9,67.1"/>
					<path class="st6" d="M263.6,426.5c0,0-20.9,12.6-25,46.6s-9.9,56.9-9.9,56.9c-14.5-24.7,1.6-80.4,18.4-97.9s20-3,14.5,4.7
						c-5.5,7.7-6.5,15.8-6.5,15.8c-3.5,42.5-26.3,78.6-26.3,78.6c0,1-0.1,2.1-0.1,3.1c0.1,17.4,7.1,36.9,7.1,36.9
						c11.7,46.1,19.3,142.5,19.3,142.5s0.8,14.4,3.5,25.7"/>
					<path class="st6" d="M181.8,421.1c0,0,17.8,65,42.1,106"/>
					<path class="st6" d="M142.6,428.9c0,0,25.2,33.2,46,48.5"/>
					<path class="st6" d="M121.9,462.8c0,0,59.5,53.4,74.5,56.5c15,3.1,32.3,24.5,32.3,24.5"/>
					<path class="st6" d="M86.4,545.4c0,0,78.5,41.2,89.9,63.1"/>
					<path class="st6" d="M77.4,609.3l43.9-3.1c0,0,42.3-2.4,56.5,2.7"/>
					<path class="st6" d="M242.4,529.1c0,0,18.2,21.6,19.8,42.1s12.4,44.9,12.4,44.9s78.2-0.2,89.3,5.4"/>
					<g>
						<path class="st3" d="M307.5,603.8c2.4,0,2.4-3.8,0-3.8C305.1,600.1,305.1,603.8,307.5,603.8L307.5,603.8z"/>
					</g>
					<g>
						<path class="st3" d="M322.6,600.6c2.4,0,2.4-3.8,0-3.8C320.2,596.8,320.2,600.6,322.6,600.6L322.6,600.6z"/>
					</g>
					<g>
						<path class="st3" d="M354.3,596.5c2.4,0,2.4-3.8,0-3.8C351.8,592.7,351.8,596.5,354.3,596.5L354.3,596.5z"/>
					</g>
					<g>
						<path class="st3" d="M295.1,597.6c2.4,0,2.4-3.8,0-3.8C292.7,593.8,292.7,597.6,295.1,597.6L295.1,597.6z"/>
					</g>
					<g>
						<path class="st3" d="M313.3,592.2c2.4,0,2.4-3.8,0-3.8C310.8,588.5,310.8,592.2,313.3,592.2L313.3,592.2z"/>
					</g>
					<g>
						<path class="st3" d="M328.1,587.1c2.4,0,2.4-3.8,0-3.8C325.7,583.3,325.7,587.1,328.1,587.1L328.1,587.1z"/>
					</g>
					<g>
						<path class="st3" d="M347.5,586.5c2.4,0,2.4-3.8,0-3.8C345.1,582.7,345.1,586.5,347.5,586.5L347.5,586.5z"/>
					</g>
					<g>
						<path class="st3" d="M366.4,591.7c2.4,0,2.4-3.8,0-3.8C364,588,364,591.7,366.4,591.7L366.4,591.7z"/>
					</g>
					<g>
						<path class="st3" d="M273.9,696c2.4,0,2.4-3.8,0-3.8C271.5,692.2,271.5,696,273.9,696L273.9,696z"/>
					</g>
					<g>
						<path class="st3" d="M286.9,680c2.4,0,2.4-3.8,0-3.8C284.5,676.2,284.5,680,286.9,680L286.9,680z"/>
					</g>
					<g>
						<path class="st3" d="M302.9,665.7c2.4,0,2.4-3.8,0-3.8C300.5,662,300.5,665.7,302.9,665.7L302.9,665.7z"/>
					</g>
					<g>
						<path class="st3" d="M319.6,655.2c2.4,0,2.4-3.8,0-3.8C317.2,651.5,317.2,655.2,319.6,655.2L319.6,655.2z"/>
					</g>
					<g>
						<path class="st3" d="M166.1,612.7c2.4,0,2.4-3.8,0-3.8C163.7,609,163.7,612.7,166.1,612.7L166.1,612.7z"/>
					</g>
					<g>
						<path class="st3" d="M117.4,616.5c2.4,0,2.4-3.8,0-3.8C115,612.7,115,616.5,117.4,616.5L117.4,616.5z"/>
					</g>
					<g>
						<path class="st3" d="M104.4,616c2.4,0,2.4-3.8,0-3.8C102,612.2,102,616,104.4,616L104.4,616z"/>
					</g>
					<g>
						<path class="st3" d="M90.4,615.7c2.4,0,2.4-3.8,0-3.8C88,612,88,615.7,90.4,615.7L90.4,615.7z"/>
					</g>
					<g>
						<path class="st3" d="M171.6,536.2c2.4,0,2.4-3.8,0-3.8C169.2,532.5,169.2,536.2,171.6,536.2L171.6,536.2z"/>
					</g>
					<g>
						<path class="st3" d="M184.6,547.7c2.4,0,2.4-3.8,0-3.8C182.2,544,182.2,547.7,184.6,547.7L184.6,547.7z"/>
					</g>
					<g>
						<path class="st3" d="M196.6,559.2c2.4,0,2.4-3.8,0-3.8C194.2,555.5,194.2,559.2,196.6,559.2L196.6,559.2z"/>
					</g>
					<g>
						<path class="st3" d="M210.1,573.2c2.4,0,2.4-3.8,0-3.8C207.7,569.5,207.7,573.2,210.1,573.2L210.1,573.2z"/>
					</g>
					<g>
						<path class="st3" d="M237.4,508c2.4,0,2.4-3.8,0-3.8C235,504.2,235,508,237.4,508L237.4,508z"/>
					</g>
					<g>
						<path class="st3" d="M240.1,495.7c2.4,0,2.4-3.8,0-3.8C237.7,492,237.7,495.7,240.1,495.7L240.1,495.7z"/>
					</g>
					<g>
						<path class="st3" d="M242.6,485c2.4,0,2.4-3.8,0-3.8C240.2,481.2,240.2,485,242.6,485L242.6,485z"/>
					</g>
					<g>
						<path class="st3" d="M244.6,474c2.4,0,2.4-3.8,0-3.8C242.2,470.2,242.2,474,244.6,474L244.6,474z"/>
					</g>
					<g>
						<path class="st3" d="M247.1,462.7c2.4,0,2.4-3.8,0-3.8C244.7,459,244.7,462.7,247.1,462.7L247.1,462.7z"/>
					</g>
					<g>
						<path class="st3" d="M249.9,451.5c2.4,0,2.4-3.8,0-3.8C247.5,447.7,247.5,451.5,249.9,451.5L249.9,451.5z"/>
					</g>
					<g>
						<path class="st3" d="M255.1,442.7c2.4,0,2.4-3.8,0-3.8C252.7,439,252.7,442.7,255.1,442.7L255.1,442.7z"/>
					</g>
					<g>
						<path class="st3" d="M250.9,435c2.4,0,2.4-3.8,0-3.8C248.5,431.2,248.5,435,250.9,435L250.9,435z"/>
					</g>
					<g>
						<path class="st3" d="M241.1,448.7c2.4,0,2.4-3.8,0-3.8C238.7,445,238.7,448.7,241.1,448.7L241.1,448.7z"/>
					</g>
					<g>
						<path class="st3" d="M235.9,461.5c2.4,0,2.4-3.8,0-3.8C233.5,457.7,233.5,461.5,235.9,461.5L235.9,461.5z"/>
					</g>
					<g>
						<path class="st3" d="M232.9,474.7c2.4,0,2.4-3.8,0-3.8C230.5,471,230.5,474.7,232.9,474.7L232.9,474.7z"/>
					</g>
					<g>
						<path class="st3" d="M229.6,487.2c2.4,0,2.4-3.8,0-3.8C227.2,483.5,227.2,487.2,229.6,487.2L229.6,487.2z"/>
					</g>
					<g>
						<path class="st3" d="M228.4,499.5c2.4,0,2.4-3.8,0-3.8C226,495.7,226,499.5,228.4,499.5L228.4,499.5z"/>
					</g>
					<g>
						<path class="st3" d="M228.4,512.7c2.4,0,2.4-3.8,0-3.8C226,509,226,512.7,228.4,512.7L228.4,512.7z"/>
					</g>
					<g>
						<path class="st3" d="M187.1,486.7c2.4,0,2.4-3.8,0-3.8C184.7,483,184.7,486.7,187.1,486.7L187.1,486.7z"/>
					</g>
					<g>
						<path class="st3" d="M174.9,476c2.4,0,2.4-3.8,0-3.8C172.5,472.2,172.5,476,174.9,476L174.9,476z"/>
					</g>
					<g>
						<path class="st3" d="M162.6,461.2c2.4,0,2.4-3.8,0-3.8C160.2,457.5,160.2,461.2,162.6,461.2L162.6,461.2z"/>
					</g>
					<g>
						<path class="st3" d="M151.6,446c2.4,0,2.4-3.8,0-3.8C149.2,442.2,149.2,446,151.6,446L151.6,446z"/>
					</g>
					<g>
						<path class="st3" d="M188.9,426.8c1.6,0,1.6-2.5,0-2.5C187.3,424.3,187.3,426.8,188.9,426.8L188.9,426.8z"/>
					</g>
					<g>
						<path class="st3" d="M197.1,448.3c1.6,0,1.6-2.5,0-2.5C195.5,445.8,195.5,448.3,197.1,448.3L197.1,448.3z"/>
					</g>
					<g>
						<path class="st3" d="M206.4,471.3c1.6,0,1.6-2.5,0-2.5C204.8,468.8,204.8,471.3,206.4,471.3L206.4,471.3z"/>
					</g>
					<g>
						<path class="st3" d="M213.1,493.6c1.6,0,1.6-2.5,0-2.5C211.5,491.1,211.5,493.6,213.1,493.6L213.1,493.6z"/>
					</g>
					<g>
						<path class="st3" d="M219.1,510.3c1.6,0,1.6-2.5,0-2.5C217.5,507.8,217.5,510.3,219.1,510.3L219.1,510.3z"/>
					</g>
					<g>
						<path class="st3" d="M130.4,476.1c1.6,0,1.6-2.5,0-2.5C128.8,473.6,128.8,476.1,130.4,476.1L130.4,476.1z"/>
					</g>
					<g>
						<path class="st3" d="M141.6,488.6c1.6,0,1.6-2.5,0-2.5C140,486.1,140,488.6,141.6,488.6L141.6,488.6z"/>
					</g>
					<g>
						<path class="st3" d="M154.9,499.1c1.6,0,1.6-2.5,0-2.5C153.3,496.6,153.3,499.1,154.9,499.1L154.9,499.1z"/>
					</g>
					<g>
						<path class="st3" d="M169.1,508.6c1.6,0,1.6-2.5,0-2.5C167.5,506.1,167.5,508.6,169.1,508.6L169.1,508.6z"/>
					</g>
					<g>
						<path class="st3" d="M184.1,517.8c1.6,0,1.6-2.5,0-2.5C182.5,515.3,182.5,517.8,184.1,517.8L184.1,517.8z"/>
					</g>
					<g>
						<path class="st3" d="M199.4,525.6c1.6,0,1.6-2.5,0-2.5C197.8,523.1,197.8,525.6,199.4,525.6L199.4,525.6z"/>
					</g>
					<g>
						<path class="st3" d="M211.9,531.6c1.6,0,1.6-2.5,0-2.5C210.3,529.1,210.3,531.6,211.9,531.6L211.9,531.6z"/>
					</g>
					<g>
						<path class="st3" d="M269.6,594.6c1.6,0,1.6-2.5,0-2.5C268,592.1,268,594.6,269.6,594.6L269.6,594.6z"/>
					</g>
					<g>
						<path class="st3" d="M267.6,579.6c1.6,0,1.6-2.5,0-2.5C266,577.1,266,579.6,267.6,579.6L267.6,579.6z"/>
					</g>
					<g>
						<path class="st3" d="M265.1,565.8c1.6,0,1.6-2.5,0-2.5C263.5,563.3,263.5,565.8,265.1,565.8L265.1,565.8z"/>
					</g>
					<g>
						<path class="st3" d="M262.6,555.1c1.6,0,1.6-2.5,0-2.5C261,552.6,261,555.1,262.6,555.1L262.6,555.1z"/>
					</g>
					<g>
						<path class="st3" d="M257.4,542.1c1.6,0,1.6-2.5,0-2.5C255.8,539.6,255.8,542.1,257.4,542.1L257.4,542.1z"/>
					</g>
					<g>
						<path class="st3" d="M250.4,534.3c1.6,0,1.6-2.5,0-2.5C248.8,531.8,248.8,534.3,250.4,534.3L250.4,534.3z"/>
					</g>
					<g>
						<path class="st3" d="M130.5,527.3c1.6,0,1.6-2.5,0-2.5C128.9,524.8,128.9,527.3,130.5,527.3L130.5,527.3z"/>
					</g>
					<g>
						<path class="st3" d="M135.1,540.3c1.6,0,1.6-2.5,0-2.5C133.5,537.8,133.5,540.3,135.1,540.3L135.1,540.3z"/>
					</g>
					<g>
						<path class="st3" d="M140.5,550.3c1.6,0,1.6-2.5,0-2.5C138.9,547.8,138.9,550.3,140.5,550.3L140.5,550.3z"/>
					</g>
					<g>
						<path class="st3" d="M147.8,560.3c1.6,0,1.6-2.5,0-2.5C146.2,557.8,146.2,560.3,147.8,560.3L147.8,560.3z"/>
					</g>
					<g>
						<path class="st3" d="M154.5,570.7c1.6,0,1.6-2.5,0-2.5C152.9,568.2,152.9,570.7,154.5,570.7L154.5,570.7z"/>
					</g>
					<g>
						<path class="st3" d="M161.5,580.3c1.6,0,1.6-2.5,0-2.5C159.9,577.8,159.9,580.3,161.5,580.3L161.5,580.3z"/>
					</g>
					<g>
						<path class="st3" d="M167.8,590.7c1.6,0,1.6-2.5,0-2.5C166.2,588.2,166.2,590.7,167.8,590.7L167.8,590.7z"/>
					</g>
					<g>
						<path class="st3" d="M160.1,599c1.6,0,1.6-2.5,0-2.5C158.5,596.5,158.5,599,160.1,599L160.1,599z"/>
					</g>
					<g>
						<path class="st3" d="M140.1,589.3c1.6,0,1.6-2.5,0-2.5C138.5,586.8,138.5,589.3,140.1,589.3L140.1,589.3z"/>
					</g>
					<g>
						<path class="st3" d="M121.5,575c1.6,0,1.6-2.5,0-2.5C119.9,572.5,119.9,575,121.5,575L121.5,575z"/>
					</g>
					<g>
						<path class="st3" d="M106.8,563c1.6,0,1.6-2.5,0-2.5C105.2,560.5,105.2,563,106.8,563L106.8,563z"/>
					</g>
					<path class="st6" d="M249.5,648.2c14-2.9,33-49.2,33-49.2s37.1-26.1,69.9-16.2s19.7,12,19.7,12s-33.4,19.9-89.1,5.7"/>
					<path class="st6" d="M274.6,616.1c0,0,29.7,10.7,42,11.1s60.3,1,44.3-10.7S289.1,609.4,274.6,616.1z"/>
					<path class="st6" d="M296.2,574.6c0,0,37.7-37.8,65.5-35.6c27.8,2.2,0,17.7,0,17.7s-50.3,22.6-59.1,31.5"/>
					<path class="st6" d="M373,542.4c0,0-53.4,17.2-82.5,51.7"/>
					<path class="st6" d="M302.2,505.4c0,0-3.8,29.3-8.6,44.3c-4.8,15-10.6,50.9-10.6,50.9c10.6,1.2,19.5-0.9,42.6-9.9
						c23.1-9,46.5,4.2,46.5,4.2"/>
					<g>
						<path class="st3" d="M337.8,597.3c2.4,0,2.4-3.8,0-3.8C335.3,593.6,335.3,597.3,337.8,597.3L337.8,597.3z"/>
					</g>
					<g>
						<path class="st3" d="M299.8,579.6c3.2,0,3.2-5,0-5C296.6,574.6,296.6,579.6,299.8,579.6L299.8,579.6z"/>
					</g>
					<g>
						<path class="st3" d="M313.1,568.2c3.2,0,3.2-5,0-5C309.9,563.2,309.9,568.2,313.1,568.2L313.1,568.2z"/>
					</g>
					<g>
						<path class="st3" d="M326.8,559.6c3.2,0,3.2-5,0-5C323.6,554.6,323.6,559.6,326.8,559.6L326.8,559.6z"/>
					</g>
					<g>
						<path class="st3" d="M337.8,553.9c3.2,0,3.2-5,0-5C334.6,548.9,334.6,553.9,337.8,553.9L337.8,553.9z"/>
					</g>
					<g>
						<path class="st3" d="M348.8,548.2c3.2,0,3.2-5,0-5C345.6,543.2,345.6,548.2,348.8,548.2L348.8,548.2z"/>
					</g>
					<g>
						<path class="st3" d="M360.5,544.6c3.2,0,3.2-5,0-5C357.2,539.6,357.2,544.6,360.5,544.6L360.5,544.6z"/>
					</g>
					<g>
						<path class="st3" d="M365.8,552.2c3.2,0,3.2-5,0-5C362.6,547.2,362.6,552.2,365.8,552.2L365.8,552.2z"/>
					</g>
					<g>
						<path class="st3" d="M353.8,557.9c3.2,0,3.2-5,0-5C350.6,552.9,350.6,557.9,353.8,557.9L353.8,557.9z"/>
					</g>
					<g>
						<path class="st3" d="M342.1,563.6c3.2,0,3.2-5,0-5C338.9,558.6,338.9,563.6,342.1,563.6L342.1,563.6z"/>
					</g>
					<g>
						<path class="st3" d="M330.8,569.2c3.2,0,3.2-5,0-5C327.6,564.2,327.6,569.2,330.8,569.2L330.8,569.2z"/>
					</g>
					<g>
						<path class="st3" d="M318.8,575.9c3.2,0,3.2-5,0-5C315.6,570.9,315.6,575.9,318.8,575.9L318.8,575.9z"/>
					</g>
					<g>
						<path class="st3" d="M305.8,584.9c3.2,0,3.2-5,0-5C302.6,579.9,302.6,584.9,305.8,584.9L305.8,584.9z"/>
					</g>
				</g>
				<line class="st6" x1="161.5" y1="617.9" x2="179.6" y2="609.3"/>
			</g>
			<path class="st6" d="M258.7,739.4c0,0-1.2,20.8,6.8,28.3"/>
		</g>
	</g>
</g>
</svg>
