<svg xmlns="http://www.w3.org/2000/svg" xmlns:xlink="http://www.w3.org/1999/xlink" width="643" height="707" viewBox="0 0 643 707">
    <defs>
        <path id="a" d="M0 .034h642.152v707.068H0z"/>
    </defs>
    <g fill="none" fill-rule="evenodd">
        <path fill="#FEFEFE" d="M150.983 707.966h-11a6.773 6.773 0 0 1-.891-1.348 6.574 6.574 0 0 1-.394-2.454c.595-14.666-1.361-29.264-1.084-43.928.322-17.15-.835-34.283-1.21-51.422-.376-17.158-3.261-34.094-9.934-50.215-5.197-12.558-13.094-22.674-24.345-30.294-7.726-5.233-15.945-9.693-23.409-15.334-16.733-12.646-20.429-27.543-11.424-46.546 2.929-6.182 6.767-11.861 9.843-17.966 5.428-10.769 5.978-22.563 6.309-34.131.482-16.842 4.216-32.983 8.207-49.159 3.068-12.437 7.002-24.768 5.946-37.827-.537-6.642-1.06-13.261-.978-19.937.105-8.673 3.52-15.273 10.866-20.128 8.094-5.35 16.939-9.288 25.275-14.175 15.134-8.875 27.204-20.7 36.201-35.78 3.923-6.577 8.129-13.013 12.881-19.036 15.762-19.979 28.736-41.643 39.842-64.512 5.254-10.82 11.737-20.914 20.47-29.393 5.45-5.292 11.466-9.624 18.757-12.039 2.21-.732 4.336-1.718 6.491-2.612 6.957-2.888 9.922-8.175 10.324-15.605.54-9.946-2.733-19.043-5.384-28.31-.778-2.721-1.733-5.388-2.51-8.115-3.882-13.613.577-24.094 11.701-32.306 12.887-9.514 26.929-15.898 43.184-16.533 4.01-.158 7.95.708 11.921 1.074 3.023.278 3.822 2.524 1.63 4.474-4.022 3.58-7.122 7.906-10.668 11.865-1.422 1.587-3.484 1.816-5.461 2.187-10.592 1.985-19.086 7.733-26.349 15.321-5.657 5.91-7.588 13.089-5.935 21.248 1.595 7.865 4.296 15.402 6.452 23.098 4.466 15.94 1.225 24.916-12.559 34.27-4.415 2.996-8.808 6.088-13.604 8.396-18.48 8.896-32.006 22.804-40.553 41.206-11.737 25.27-27.661 47.823-43.902 70.224-1.272 1.754-2.598 3.475-3.625 5.388-10.09 18.784-25.541 31.752-44.43 40.995-3.894 1.906-7.629 4.098-11.409 6.215-11.365 6.365-15.228 16.336-13.56 28.688 1.67 12.363 1.157 24.444-1.979 36.588-4.455 17.248-8.708 34.575-10.105 52.431-.481 6.136-.256 12.294-1.17 18.431-1.021 6.852-2.85 13.318-6.341 19.321-2.931 5.039-6.046 9.994-8.396 15.34-6.017 13.697-4.677 27.623 6.798 38.493 6.733 6.376 14.545 11.201 22.494 15.695 14.281 8.075 23.263 20.276 28.552 35.35 4.436 12.641 6.352 25.78 6.88 39.214 1.025 26.114 1.195 52.247 2.128 78.355.404 11.312 1.066 22.582.358 33.893a6.946 6.946 0 0 1-.901 1.345"/>
        <path fill="#FEFDFD" d="M74.983 707.966h-54c-.346-.488-.363-.987-.056-1.499 3.757-3.323 8.712-3.962 13.155-5.658 13.746-5.249 26.963-11.306 38.09-21.244 3.06-2.734 4.85-2.248 4.907 1.313.135 8.6 1.31 17.283-1.163 25.777a9.06 9.06 0 0 1-.933 1.311"/>
        <path fill="#F9BEB2" d="M150.983 707.966l.139-1.166c1.48-1.343 3.336-1.368 5.152-1.379 20.705-.118 41.41.035 62.114-.088a6.246 6.246 0 0 1 2.422.467l.173 2.166h-70z"/>
        <path fill="#F9BFB3" d="M20.966 706.935l.017 1.03h-14c.075-.86.033-1.805 1.307-1.792 2.628.73 5.095-.634 7.667-.586 1.776.034 3.605-.084 5.01 1.348"/>
        <path fill="#F8B7AB" d="M471.983 707.966a4.054 4.054 0 0 1-.05-.914c1.414-1.813 3.43-.916 5.195-1.152 1.071.363.82 1.273.855 2.066h-6z"/>
        <path fill="#F9C1B5" d="M74.983 707.966l.183-1.216c1.345-1.005 2.612-.758 3.832.241.049.327.045.651-.015.975h-4zM139.97 706.944c.003.341.008.682.013 1.022h-4l.161-1.196c1.325-1.034 2.59-.767 3.825.174"/>
        <g transform="translate(0 -.034)">
            <mask id="b" fill="#fff">
                <use xlink:href="#a"/>
            </mask>
            <path fill="#F8BFC0" d="M139.97 706.979l-3.826-.175c-.694-27.31-1.458-54.618-2.055-81.93-.339-15.496-.739-30.967-4.114-46.183-2.617-11.8-6.684-22.989-13.777-32.925-4.013-5.622-8.82-10.433-14.583-14.221-5.562-3.655-11.238-7.137-16.867-10.69-4.375-2.76-8.543-5.803-12.416-9.23-11.98-10.594-15.573-24.166-10.489-39.337 1.915-5.719 4.783-10.97 7.778-16.165 1.065-1.847 2.08-3.724 3.28-5.882-6.474-4.135-12.333-8.943-20.503-8.238-1.12.099-2.079-.337-2.227-1.488-.17-1.332.646-2.244 1.947-2.464 2.835-.478 5.574-.204 8.336.781 5.016 1.791 9.523 4.543 14.22 7.349 3.364-6.39 4.441-13.087 5.18-19.87.127-1.159.171-2.327.2-3.493.176-6.821.882-5.188-4.7-7.486-6.793-2.796-13.374-5.952-19.323-10.308a47.96 47.96 0 0 1-3.495-2.815c-.838-.745-1.039-1.764-.332-2.664.714-.911 1.83-.87 2.734-.38 1.012.548 1.881 1.362 2.816 2.055 6.851 5.08 14.424 8.688 22.745 11.592.612-5.413.341-10.425 1.404-15.29.416-1.906-.524-2.813-2.163-3.245-2.894-.765-5.807-1.454-8.7-2.224-1.282-.341-2.565-.724-3.789-1.23-1.255-.518-1.729-1.575-1.219-2.85.468-1.166 1.55-1.134 2.541-.875 4.63 1.205 9.25 2.455 14.1 3.75L87 371.505c-4.459-1.048-8.485-2.49-12.407-4.308-5.785-2.68-10.092-1.524-14.144 3.464-3.03 3.73-4.39 8.166-5.223 12.803-.307 1.706.146 4.31-2.497 4.003-2.626-.303-1.787-2.853-1.53-4.495.971-6.19 3.043-11.938 7.582-16.508 5.281-5.317 10.931-6.248 17.707-2.844 2.683 1.346 5.37 2.625 8.32 3.298 2.386.544 3.69-.142 4.2-2.728.864-4.401 2.03-8.743 3.068-13.11.247-.404.39-.87.062-1.238-.4-.45-.764.002-1.118.197-1.96 2.719-4.27 5.107-6.85 7.24-1.234 1.02-2.65 1.882-3.917.373-1.12-1.339-.05-2.443 1.038-3.345 3.766-3.125 7.07-6.595 8.534-11.439.261-.86 1.073-1.786 1.732-1.536 3.19 1.214 2.652-1.318 2.968-2.841.588-2.833.285-5.538-.932-8.265-2.445-5.478-5.07-10.858-7.968-16.108-.22-.4-.69-.663-1.224-1.156-2.11 3.714-3.153 7.37-1.542 11.43.244.615.51 1.266.547 1.911.066 1.101-.473 1.926-1.58 2.236-.978.272-1.609-.347-2.035-1.07-1.869-3.171-2.215-6.61-1.414-10.13.667-2.93 1.84-5.699 3.258-8.351.801-1.495 1.054-2.933.795-4.738-1.285-8.945 1.466-16.776 7.27-23.562 5.058-5.913 11.453-10.115 18.217-13.803 3.182-1.733 6.381-3.438 10.236-5.512-2.432-.435-4.125-.702-5.802-1.048-1.149-.236-2.444-.507-2.295-2.082.163-1.733 1.471-2.212 2.895-1.865 3.032.742 5.94.428 9.608-.792-7.44-1.927-13.525-5.102-19.205-9.247-2.334-1.702-2.419-3.11-1.405-5.38 4.102-9.174 10.554-15.649 20.522-18.177 1.57-.399 3.142-.788 5.77-1.448-8.11-.917-14.508.334-19.992 5.047-.253.216-.508.434-.742.668-.908.911-1.983 1.476-3.037.445-1.215-1.189-.698-2.462.366-3.488 4.508-4.338 9.981-6.647 16.153-6.975 11.877-.632 21.296 4.203 28.584 13.447.393.498.77 1.008 1.473 1.935 1.135-1.954 2.044-3.633 3.066-5.243.893-1.406 1.895-2.774 3.522-3.424.842-.338 1.672-.069 2.265.59.61.68.792 1.583.077 2.232-3.983 3.613-5.199 8.844-7.843 13.234-4.917 8.167-11.342 14.719-19.956 19.05-7.729 3.887-15.363 7.96-23.046 11.938-5.057 2.618-9.729 5.792-13.899 9.671-7.549 7.02-12.958 19.41-5.54 32.23 1.223 2.118 2.335 4.3 4.286 6.293-.162-2.366-.317-4.733-.488-7.1-.896-12.418 3.48-22.1 14.527-28.471 8.648-4.99 17.678-9.279 26.197-14.514 12.136-7.456 22.23-16.947 29.74-29.077 7.462-12.05 15.644-23.59 24.204-34.877 10.096-13.314 18.516-27.655 25.898-42.63 5.454-11.061 11.23-21.938 18.828-31.737 7.716-9.953 16.904-17.883 29.192-21.662.761-.233 1.566-.465 2.226-1.712-6.778-.806-13.24-.194-19.654 1.216-5.034 1.108-10.037 2.358-15.067 3.489-11.499 2.581-22.82 1.296-34.1-1.5-6.146-1.526-12.358-2.687-18.759-2.41-4.389.19-8.56 1.147-12.544 2.979-2.314 1.064-4.245 2.553-5.758 4.643-13.984 19.328-30.003 37.004-45.07 55.451-1.144 1.398-2.234 2.84-3.53 4.496 1.535.888 2.7.26 3.866-.04 7.533-1.927 15.121-2.407 22.734-.584 6.954 1.665 12.468 5.358 15.963 11.778 3.2 5.876 5.854 11.947 7.092 18.576.31 1.659.486 3.309.307 4.966-.59 5.493-4.398 8.688-9.914 8.275-3.947-.294-7.318-1.985-10.41-4.411-3.988-3.128-6.828-7.268-10.093-11.042-4.864-5.623-10.896-8.063-18.302-6.169-7.078 1.813-12.26 8.309-12.133 15.565.307 17.483-4.81 33.112-15.496 46.958a844.343 844.343 0 0 0-14.102 18.783c-6.728 9.236-12.246 19.061-13.829 30.626-.315 2.305-.55 4.646-.534 6.966.267 36.118-9.66 69.649-25.564 101.71-5.409 10.905-11.736 21.282-17.79 31.817-5.369 9.344-7.96 19.33-7.506 30.106.198 4.678.898 9.287 2.15 13.788 2.352 8.469 7.653 14.576 15.188 18.986 6.372 3.73 13.33 6.001 20.148 8.638 3.565 1.379 7.172 2.651 10.736 4.034 16.74 6.495 27.574 18.66 33.876 35.22 4.253 11.176 6.02 22.833 6.647 34.674.468 8.816.74 17.656.693 26.483-.104 19.344 3.574 38.06 8.791 56.556 1.084 3.841 2.15 7.69 3.272 11.521.425 1.455.35 2.812-1.196 3.33-1.705.572-2.31-.775-2.717-2.134-2.854-9.567-5.443-19.203-7.707-28.928-3.415-14.672-4.806-29.554-4.855-44.591-.018-5.33-.159-10.658-.244-15.986-.706-1.207-.27-2.534-.394-3.8.095-1.258-.242-2.552.301-3.773-.604 1.207-.224 2.502-.333 3.755-.136 1.27.345 2.606-.43 3.802-3.713 28.452-8.439 56.803-7.94 85.66.115 6.778.365 13.623-1.099 20.342l-3.832-.24c.94-9.23.917-18.48.973-27.76-.655.043-1.074-.06-1.248.1-13.079 12.126-29.025 18.985-45.53 24.814-2.806.99-5.597 2.019-8.394 3.03-4.22-.33-8.535.903-12.676-.762 18.132-5.082 36.062-10.667 52.088-20.976 5.064-3.259 9.75-6.956 13.847-11.405 1.564-1.7 2.385-3.488 2.398-5.798.114-19.06 3.721-37.75 5.98-56.587 1.526-12.736 2.538-25.515 1.431-38.383-1.725-20.053-11.85-34.28-29.839-42.827-6.284-2.985-13.037-4.98-19.577-7.423-5.146-1.923-10.206-4.011-15.009-6.722C8.826 509.999 3 500.716.985 488.61c-2.66-15.974.015-30.77 8.638-44.53 8.581-13.695 16.523-27.721 22.898-42.632 11.324-26.488 17.977-53.983 18.292-82.837.166-15.234 4.766-28.762 13.834-40.89 5.585-7.47 11.226-14.901 16.665-22.478 5.673-7.905 10.195-16.411 12.125-26.069 1.014-5.072 1.343-10.222 1.407-15.399.08-6.322-.239-12.663 1.03-18.934 1-4.936 2.546-9.63 5.28-13.902 7.122-11.135 16.094-20.805 24.46-30.956 3.706-4.499 7.494-8.93 11.375-13.547-8.5-8.377-13.499-18.64-15.395-30.139-5.037-30.561 1.455-57.748 25.435-78.894 13.053-11.51 28.42-17.04 46.104-14.617 5.441.746 10.896 1.394 16.337 2.133 11.226 1.525 22.266.496 33.15-2.443 11.397-3.078 22.75-6.322 34.157-9.361 18.21-4.854 36.303-3.392 54.3 1.284 3.862 1.003 7.722 2.024 11.527 3.217 2.346.735 4.38.535 6.726-.338 28.824-10.727 56.983-9.927 84.346 4.989 15.027 8.19 28.453 18.551 41.048 30.005 25.301 23.006 52.965 42.44 84.11 56.782 12.39 5.703 24.8 11.39 36.617 18.241 13.22 7.663 25.38 16.623 34.42 29.195 6.628 9.214 11.11 19.394 12.081 30.78 1.35 15.805-4.224 29.393-14.19 41.393-.957 1.15-2.022 2.215-3.077 3.28-.87.877-.842 1.653-.025 2.568a192.021 192.021 0 0 1 4.551 5.316c10.675 12.863 14.143 27.511 11.328 43.934-3.602 21.02-10.436 41.002-19.984 59.933-13.268 26.303-25.368 53.19-39.473 79.069a2017.968 2017.968 0 0 1-21.92 39.226c-12.403 21.6-29.636 38.34-51.347 50.556-12.909 7.264-25.705 14.728-38.498 22.195-8.78 5.125-17.213 10.755-25.07 17.259-11.203 9.271-18.57 20.635-21.013 35.192-3.533 21.057-6.203 42.17-6.224 63.562-.002 2.264.66 3.99 1.896 5.911 12.976 20.178 30.032 36.433 48.672 51.21 3.262 2.587 6.37 5.367 9.55 8.058-1.395 1.903-3.497.62-5.195 1.153-5.23-4.392-10.387-8.875-15.704-13.158-13.718-11.047-25.504-23.9-35.98-38.008-.64-.862-.926-2.156-2.656-2.43.736 15.072 3.587 29.372 11.258 42.466.917 1.563 3.993 3.59.85 5.294-2.67 1.45-3.462-1.82-4.449-3.471-5.727-9.586-8.606-20.151-10.229-31.096-3.932-26.51-1.643-52.83 2.545-79.08 1.074-6.732 2.19-13.455 3.994-20.058 2.828-10.351 9.06-18.43 16.678-25.612 9.768-9.208 21.13-16.183 32.596-22.985 6.281-3.725 12.66-7.284 20.157-11.584-1.343-.698-2.322-.892-2.753-1.486-1.826-2.51-3.726-2.38-6.378-1.11-4.188 2.005-8.58 3.614-12.97 5.156a138.494 138.494 0 0 0-19.159 8.428c-4.422 2.353-9.01 4.19-14.006 5.077-5.249.93-10.286.454-15.232-1.344-11.524-4.189-17.244-17.387-12.44-28.699 1.74-4.096 4.601-6.897 9.224-7.425 1.152-.13 2.481-.22 2.782 1.346.262 1.368-.516 2.311-1.802 2.55-6.39 1.188-7.384 5.993-7.53 11.264-.275 9.749 4.847 16.115 14.363 18.12 6.472 1.365 12.736.333 18.468-2.553 10.57-5.327 21.485-9.741 32.551-13.893 8.972-3.367 16.745-8.798 23.846-15.245 4.065-3.69 8.362-7.134 12.638-10.584 12.125-9.776 20.421-22.332 25.91-36.694 4.35-11.385 4.682-23.061.448-34.704-2.95-8.118-9.795-15.046-22.42-12.93-3.466.582-6.846 1.327-10.164 2.427-10.73 3.555-21.439 7.178-32.194 10.656-4.938 1.597-9.623 3.675-14.066 6.34-2.14 1.283-4.305 2.514-6.674 3.364-6.942 2.49-13.375.262-17.197-6.079-3.159-5.24-3.77-11.022-2.914-16.9 1.21-8.3 3.746-16.283 8.058-23.473 9.862-16.437 11.125-34.262 8.935-52.644-.984-8.257-2.654-16.428-3.875-24.66-1.73-11.66-.846-22.91 5.415-33.317 1.798-2.988 3.355-6.144 4.768-9.335 6.29-14.202 5.856-28.096-2.095-41.613-3.826-6.504-8.727-12.17-13.598-17.87-3.463-4.053-6.914-8.117-10.294-12.24-5.096-6.216-9.429-12.918-12.352-20.439-.67-1.725-1.413-2.736-3.476-2.861-6.018-.365-11.22-3.06-15.973-6.5-8.749-6.339-17.57-12.606-25.69-19.754-6.147-5.412-13-9.852-19.524-14.747-2.03-1.524-4.142-1.082-6.196-.675-6.512 1.291-12.146 4.385-17.17 8.7-7.165 6.153-12.677 13.643-17.7 21.543-4.65 7.316-8.77 14.934-12.559 22.722C291.875 181.977 282 197.55 270.48 212.1c-6.21 7.843-12.009 15.988-17.046 24.637-10.524 18.073-25.06 31.788-43.83 41.062-6.265 3.094-12.363 6.507-18.347 10.139-7.546 4.577-10.96 11.282-11.174 19.925-.132 5.356.475 10.677 1.156 15.936 1.335 10.308-.254 20.243-2.735 30.147-.97 3.872-1.888 7.764-3.064 11.576-.613 1.983.144 2.743 1.832 3.248 12.82 3.835 21.75 12.524 28.882 23.361 6.141 9.332 12.288 18.649 20.12 26.697 1.973 2.026 4.056 3.947 6.062 5.944.94.934 1.876 1.883 2.698 2.918.854 1.076.754 2.226-.4 3.02-.915.627-1.84.445-2.676-.39-2.586-2.583-5.288-5.054-7.814-7.695-7.982-8.34-14.596-17.736-20.857-27.393-4.859-7.495-10.653-14.075-18.397-18.73-2.714-1.63-5.563-2.94-8.632-3.834-1.632-.474-2.599-.26-2.967 1.413-1.215 5.524-2.318 11.072-3.612 16.579-.419 1.783.45 2.447 1.792 2.959 6.224 2.37 11.786 6.173 18.105 8.344 1.093.375 2.17.882 3.143 1.5 1.314.838 2.521 1.913 1.378 3.654-1.087 1.656-2.25.523-3.425-.04a1644.44 1644.44 0 0 0-15.777-7.462c-1.804-.84-3.66-1.567-5.384-2.3-1.496.713-1.299 1.994-1.395 3.102-.329 3.819-.535 7.647-.924 11.459-.208 2.027.613 2.986 2.496 3.582 15.204 4.805 29.966 11.07 45.783 13.855.327.058.666.12.963.26 1.342.63 3.708-.21 3.688 2.385-.013 1.778-1.437 2.149-4.847 1.55-11.85-2.08-23.115-6.175-34.47-9.956-4.4-1.465-8.79-2.964-13.552-4.572-.42 3.89-.78 7.469-1.197 11.042-.658 5.647-1.865 11.184-4.193 16.38-1.035 2.308-.905 3.96.945 5.741 1.18 1.137 3.47 2.563 1.387 4.46-2 1.822-3.153-.476-4.424-1.667-.337-.317-.815-.481-1.373-.798-3.04 5.046-6.196 9.93-8.636 15.238-5.148 11.199-4.24 21.966 2.161 32.382 5.457 8.88 13.136 15.441 21.93 20.758 12.026 7.274 25.236 11.864 38.378 16.591 25.728 9.255 52.334 12.683 79.547 11.742 26.056-.9 50.176-7.933 71.522-23.36 5.975-4.319 11.478-9.119 15.743-15.206 1.634-2.33 2.947-4.825 4.03-7.454.565-1.376 1.59-2.34 3.1-1.691 1.692.728 1.086 2.26.596 3.45a42.632 42.632 0 0 1-6.372 10.688c-6.61 8.144-14.948 14.174-23.827 19.552-19.26 11.665-40.374 16.899-62.66 18.024-25.518 1.288-50.519-1.75-75.002-9.058a56.017 56.017 0 0 0-3.362-.915c-.288-.067-.635.113-1.17.226-.59 4.396-.192 8.83.14 13.281.917 12.303 3.366 24.404 4.683 36.654 1.605 14.913 2.444 29.865 3.006 44.85.827 22.019-.39 43.976-1.394 65.944-.808 1.004-1.9 1.178-3.112 1.173-22.192-.067-44.384-.117-66.577-.173-.779-31.478-1.528-62.958-2.35-94.437-.378-14.48-.553-28.983-3.756-43.228-1.134-5.04-2.48-10.014-4.225-14.874-4.764-13.273-12.635-24.105-24.854-31.523-4.126-2.503-8.183-5.122-12.263-7.702-4.513-2.852-8.85-5.936-12.793-9.555-10.707-9.832-13.392-21.79-9.364-35.49 1.756-5.974 4.986-11.238 8.198-16.498 3.577-5.86 6.667-11.928 7.73-18.807.558-3.615 1.275-7.257 1.314-10.894.202-19.135 3.986-37.695 8.64-56.13.772-3.065 1.46-6.154 2.324-9.192 3.105-10.923 3.312-21.995 1.851-33.168a89.544 89.544 0 0 1-.415-3.974c-1.093-12.837 4.021-22.214 15.443-28.301 9.1-4.851 18.272-9.589 26.866-15.341 7.554-5.056 14.37-10.948 19.342-18.577 10.28-15.772 21.245-31.054 32.2-46.353 7.382-10.31 13.266-21.531 18.957-32.845 4.49-8.927 9.18-17.733 15.127-25.825 5.403-7.355 11.846-13.494 19.72-18.127 6.885-4.052 13.771-8.1 20.608-12.228 3.714-2.242 7.12-4.903 10.304-7.874 6.122-5.713 8.27-12.572 6.765-20.816-1.32-7.242-4.026-14.07-5.82-21.162-.694-2.74-1.395-5.479-2.049-8.228-2.19-9.23.186-17.218 6.995-23.703 8.072-7.687 16.967-14.002 28.553-15.149 1.171-.116 2.36-.24 3.042-1.396 3.052-5.163 6.982-9.563 12.6-13.355-5.11-1.576-9.459-1.71-13.69-1.678-19.497.15-35.753 8.136-49.632 21.381-6.364 6.074-7.778 13.67-6.106 22.066 1.207 6.057 3.258 11.864 5.084 17.74 2.13 6.855 3.942 13.763 3.845 21.03-.139 10.3-3.699 16.221-13.457 19.2-15.628 4.77-26.163 15.33-34.836 28.394a154.065 154.065 0 0 0-10.797 19.125c-9.396 19.786-20.734 38.352-34.262 55.59a214.235 214.235 0 0 0-16.048 23.507c-10.383 17.63-25.124 30.418-43.17 39.68-5.622 2.886-11.224 5.805-16.686 9.009-8.796 5.156-12.777 12.692-12.315 22.825.228 4.995.545 9.968 1.095 14.94 1.31 11.827-1.473 23.173-4.293 34.498-2.894 11.622-5.982 23.189-7.98 35.025-1.616 9.568-1.79 19.234-2.316 28.863-.659 12.075-3.756 23.23-10.112 33.55-3.489 5.663-6.695 11.512-8.665 17.941-3.765 12.29-1.246 23.005 7.963 32.057 3.58 3.517 7.584 6.5 11.807 9.19 4.632 2.952 9.215 5.991 13.954 8.765 16.591 9.712 26.35 24.455 31.871 42.487 4.125 13.475 6.261 27.28 6.691 41.288.972 31.64 1.593 63.293 2.343 94.942.027 1.159-.084 2.322-.13 3.483" mask="url(#b)"/>
        </g>
        <path fill="#F8BFC0" d="M295.801 212.923c6.81-.175 13.12 1.91 19.301 4.408 4.308 1.742 8.541 3.689 12.737 5.689 9.608 4.577 19.434 8.574 29.575 11.823 20.167 6.46 32.595 20.366 38.54 40.42 1.937 6.54 3.182 13.24 4.652 19.889.324 1.468.26 2.75-1.155 3.425-1.316.63-2.119-.536-2.95-1.313-5.835-5.454-11.53-11.008-16.539-17.289-5.169-6.483-10.307-13.067-17.73-17.341-4.799-2.762-9.917-4.688-15.133-6.332-9.53-3.006-18.687-6.866-27.697-11.158-7.052-3.359-14.295-6.17-22.115-7.434-5.35-.865-10.19.325-15.078 2.141-5.053 1.878-6.268.994-5.902-4.437.246-3.64.555-7.284 1.272-10.893 1.255-6.318 4.931-9.9 11.281-10.974a44.547 44.547 0 0 1 6.941-.624M490.854 416.075c-2.038 1.626-3.756 2.923-5.393 4.316-4.027 3.432-4.272 4.482-1.892 9.37 1.164 2.39 2.696 4.6 3.867 6.988 3.175 6.472 1.738 15.28-3.24 20.464-.459.478-.923.974-1.466 1.344-.568.388-1.26.457-1.88.07-.775-.484-1.115-1.238-.955-2.122.221-1.215 1.27-1.923 1.906-2.884 3.83-5.777 4.585-11.685.708-17.772-1.482-2.326-2.953-4.658-4.055-7.604-2.83 2.836-4.543 5.886-6.478 8.755-3.35 4.971-6.382 10.16-10.156 14.84-.73.905-1.425 1.861-2.277 2.64-.822.751-1.82.763-2.659-.095-.627-.644-.872-1.412-.404-2.258.24-.436.511-.864.831-1.243 4.752-5.622 8.416-11.99 12.415-18.127 10.147-15.57 24.117-25.963 41.98-31.122 7.081-2.045 11.857-.444 16.106 5.484 2.478 3.456 3.97 7.3 4.291 11.556 1.012 13.365-2.049 25.773-8.847 37.288-2.757 4.672-6.467 8.52-10.887 11.566-12.48 8.601-25.36 16.574-38.812 23.576-6.237 3.247-13.076 4.86-19.826 6.651-.938.25-1.975.202-2.96.16-.737-.03-1.158-.672-1.392-1.285-.35-.927.18-1.738.911-2.083 1.187-.562 2.484-.942 3.771-1.24 11.641-2.706 22.29-7.693 32.376-13.99 6.355-3.967 12.65-8.036 19.08-11.879 14.085-8.419 19.957-21.75 22.498-37.128.741-4.48.747-8.972-.236-13.41a20.116 20.116 0 0 0-3.81-8.063c-2.636-3.389-6.03-4.66-10.156-3.608-5.998 1.533-11.586 4.082-17.008 7.058-2.125 1.166-1.897 2.51-.706 3.982 1.146 1.416 2.49 2.678 3.802 3.951.835.81 1.816 1.47 2.645 2.285.877.861 1.544 1.881.407 3.008-1.01 1.002-2.153.788-3.137-.03-2.432-2.02-4.973-3.935-6.879-6.513-.584-.79-1.149-1.596-2.083-2.896"/>
        <path fill="#F8BFC0" d="M326.913 265.005c-3.844-1.049-7.646-2.298-11.704-2.263-.653.006-1.327-.139-1.957-.327-1.105-.329-1.611-1.133-1.435-2.272.149-.963.896-1.454 1.753-1.45 2.99.015 5.986.055 8.9.906 12.886 3.761 24.96 9.13 35.299 17.901 3.68 3.122 7.293 6.323 10.932 9.495 1.032.9 2.176 1.94 1.094 3.343-1.007 1.307-2.374.856-3.541-.017-1.063-.794-2.088-1.634-3.13-2.456-1.441-.563-1.651.1-1.307 1.313 1.45 5.464 2.967 10.9 6.276 15.621.374.533.696 1.151.854 1.776.216.854-.041 1.681-.827 2.16-.783.478-1.624.375-2.28-.265-1.324-1.294-2.19-2.909-3.028-4.539-2.292-4.458-3.477-9.329-5.254-13.979-2.61-6.826-5.93-10.989-11.501-14.213-2.48 10.188-6.972 19.043-16.826 24.784 7.284 3.036 14.09 5.845 21.612 6.38 1.479.105 2.966.346 4.408.695 1.34.323 2.688 1.012 2.303 2.678-.377 1.631-1.708 1.508-3.184 1.401-10.787-.783-20.643-4.663-30.396-8.915-8.236-3.59-15.148-8.905-20.732-15.95-2.907-3.668-3.172-4.452.014-7.54 5.863-5.686 12.195-10.8 20.566-12.428 2.83-.632 2.83-.632 3.09-1.839M195.504 311.025c8.12 1.264 15.793 4.054 22.66 8.46 5.662 3.634 4.838 10.472-1.158 13.659-4.006 2.129-8.16 2.004-11.907-.238-4.691-2.805-9.22-5.938-13.542-9.285-3.575-2.768-4.338-6.24-2.698-9.178 1.447-2.593 3.636-3.78 6.644-3.418M301.767 619.041c-.004.68-.717 1.425-1.307 2.212-13.66 18.236-24.78 38.212-38.63 56.323-3.945 5.157-7.236 10.752-9.284 16.987-.206.63-.442 1.263-.769 1.834-.435.76-1.138 1.3-2.036 1.086-1.054-.25-1.797-.993-1.647-2.14.127-.972.504-1.914.813-2.857 2.038-6.23 5.272-11.883 9.17-17.056 11.313-15.019 21.321-30.918 31.86-46.46 2.516-3.714 5.254-7.276 7.871-10.922.628-.874 1.394-1.51 2.49-1.224.835.218 1.391.865 1.47 2.217M473.431 479.268c-3.046.077-5.966-.524-8.732-1.74-5.313-2.334-10.516-2.676-15.79.216-2.212 1.212-4.747 1.464-7.279 1.247-2.845-.244-5.214-1.467-6.368-4.112-1.133-2.597.066-4.867 1.865-6.792 1.704-1.822 3.468-3.62 6.016-4.224 1.022-.242 2.033-.008 2.542 1.037.531 1.09.048 1.929-.94 2.472-1.91 1.048-3.684 2.243-4.97 4.054-1.067 1.502-.452 2.466.997 3.114 1.431.643 2.96.539 4.402.139 1.593-.44 3.154-1.042 4.672-1.704 4.5-1.965 8.97-1.978 13.541-.186 3.558 1.393 7.174 2.519 11.12 2.313 7.802-.407 12.644-4.716 13.68-12.407.043-.33.027-.666.071-.994.182-1.35.357-2.825 2.182-2.732 2.168.112 1.993 1.837 1.98 3.327-.078 8.188-6.179 15.17-14.522 16.577-1.47.248-2.978.269-4.467.395"/>
        <path fill="#F8BFC0" d="M232.521 349.198c-5.454.12-9.333-1.158-12.73-3.803-.87-.676-2.11-1.403-1.219-2.824.895-1.43 2.201-1.405 3.431-.502 2.773 2.036 5.81 3.02 9.275 3.097 7.945.176 11.61-3.856 11.284-12.294-.248-6.41-3.24-11.762-7.595-16.39-3.706-3.937-8.197-6.737-13.006-9.086-.892-.436-1.834-.773-2.72-1.22-.999-.505-1.54-1.367-1.137-2.452.488-1.308 1.442-1.45 2.813-1.113 12.125 2.993 24.41 16.72 25.72 29.13.541 5.116-.446 9.973-4.23 13.836-3.029 3.09-6.919 3.736-9.886 3.621M268.35 425.546c-.05 6.246-1.396 12.218-3.882 17.934-.522 1.202-1.063 2.791-2.789 2.101-1.739-.694-1.692-2.145-.984-3.764 3.873-8.86 4.3-18.024 2.387-27.416-.394-1.94-.385-3.977-.43-5.973-.03-1.193.213-2.392 1.813-2.457 1.501-.063 2.178.956 2.197 2.185.095 5.848 1.788 11.533 1.687 17.39M317.602 316.136c-.245 2.019-1.937 2.829-3.126 1.997-1.078-.754-2.042-1.715-2.92-2.704-4.202-4.731-8.354-9.507-12.53-14.261a14.568 14.568 0 0 1-2.6-4.234c-.439-1.092-.155-1.998.774-2.597.967-.624 1.976-.433 2.614.535 4.786 7.265 11.064 13.265 16.708 19.803.537.623 1.09 1.245 1.08 1.46M190.029 349.567a30.224 30.224 0 0 1-7.195 13.83c-.976 1.068-2.724.198-2.94-1.275-.13-.88.157-1.63.678-2.316 2.647-3.486 4.486-7.35 5.576-11.596.309-1.203 1.097-2.146 2.542-1.673 1.06.345 1.517 1.223 1.339 3.03"/>
        <path fill="#F27876" d="M326.913 265.005c.664-.022 1.377-.008 1.557.774.112.487-.271.97-.776 1.001-1.287.08-2.581.05-3.872.064.706-1.157 2.615-.293 3.09-1.839"/>
        <path fill="#FACEC9" d="M361.817 289.178c-1.186-.89-.987-2.24-1.692-3.654 1.68.534 2.506 1.247 2.999 2.342l-1.307 1.312z"/>
        <path fill="#F7AFAA" d="M91.021 350.005l1.374-2.865c.964 1.746.566 2.858-.317 3.906l-1.057-1.04"/>
        <path fill="#FACCCB" d="M88.861 597.027c.186 1.323.409 2.647.031 3.977a61.094 61.094 0 0 0-.856-.015c-.375-1.327-.112-2.644.072-3.96.25-.52.501-.496.753-.002"/>
        <path fill="#FEFEFE" d="M351.181 101.35c-1.154-8.115-6.364-13.913-11.063-20.087-6.109-8.023-10.664-16.88-12.614-26.897-1.094-5.62-1.16-11.298-.157-16.902 1.817-10.154 7.726-17.504 16.407-22.766 7.067-4.284 14.846-6.665 22.872-8.284 16.622-3.351 33.027-3.018 49.247 2.546 14.058 4.823 26.366 12.618 38.117 21.452 8.796 6.613 16.98 13.96 25.25 21.209 25.467 22.326 53.574 40.54 84.531 54.366 15.051 6.72 29.874 13.905 43.217 23.77 12.301 9.098 22.217 20.09 27.66 34.637 7.734 20.675.621 45.059-16.738 57.753-8.787 6.426-19.935 6.525-28.052-4.472 9.701-7.29 15.51-17.506 20.65-28.168 1.957-4.058 3.327-8.356 3.395-12.944.014-.99-.054-2.001-.248-2.97-.222-1.098-1.026-1.677-2.15-1.707-1.328-.037-1.647.869-1.715 1.95-.102 1.66.065 3.379-.315 4.97-3.099 12.985-9.71 24.004-19.342 33.139-3.782 3.587-4.195 2.573-7.019.042-3.707-3.321-7.765-6.235-12.286-9.075 12.56-11.99 16.764-27.411 19.67-43.41.54-2.97.542-5.967.556-8.965.007-1.414-.214-2.798-2.072-2.74-1.823.06-1.984 1.47-1.992 2.859-.066 10.135-2.605 19.757-6.094 29.17-1.622 4.378-3.526 8.63-6.209 12.489-1.434 2.06-3.148 3.86-4.897 5.655-1.905 1.955-3.607 2.267-6.096.787-4.426-2.631-9.093-4.853-13.782-7.31.092-.364.061-.952.34-1.228 11.106-10.97 16.278-24.908 19.84-39.64 1.138-4.702 1.813-9.484 1.752-14.342-.013-.998.004-2.011-.157-2.991-.204-1.237-.853-2.208-2.277-2.2-1.646.01-1.815 1.299-1.778 2.46.098 3.009-.112 5.986-.465 8.97-1.547 13.11-5.989 25.197-12.807 36.445-2.004 3.305-4.606 6.107-7.5 8.656-1.203 1.059-2.332 1.646-4.029.94-6.283-2.612-12.616-5.104-19.225-7.76 1.554-3.12 3.771-5.363 5.851-7.65 10.83-11.91 16.451-26.028 18.05-41.902.44-4.374-.157-8.63-1.276-12.841-.37-1.391-1.02-2.691-2.697-2.22-1.632.46-1.539 1.896-1.266 3.309 3.351 17.4-2.256 32.489-12.213 46.353-2.909 4.05-6.386 7.688-9.448 11.633-1.156 1.489-2.174 1.562-3.822.939-6.063-2.293-12.185-4.426-18.254-6.61-.329-.81.225-1.24.658-1.666 13.481-13.241 19.347-29.57 19.516-48.193.031-3.33-.068-6.663-.175-9.994-.04-1.26-.649-2.472-1.973-2.504-1.645-.04-2.277 1.293-2.176 2.76.404 5.837.236 11.658-.298 17.474-1.38 15.057-7.608 27.763-18.502 38.235-1.719 1.654-3.262 2.163-5.75 1.42-6.322-1.885-12.784-3.303-19.247-4.922.296-1.977 1.745-2.691 2.684-3.752 13.956-15.751 20.89-34.152 20.838-55.18-.005-1.641.008-3.357-.87-4.866-.45-.77-1.152-1.27-2.049-1.08-.878.188-1.448.86-1.486 1.774-.034.824.167 1.656.166 2.485-.023 21.69-6.423 40.87-21.99 56.552-2.19 2.207-4.173 2.568-7.025 1.64-6.016-1.957-12.067-3.76-17.78-7.406 5.672-7.573 9.796-16.033 14.54-24.131 8.141-13.895 11.074-29.114 11.401-44.991.011-.5.018-1 .005-1.5-.037-1.475-.489-2.772-2.225-2.63-1.377.116-1.784 1.277-1.794 2.565-.029 4.168-.395 8.307-.816 12.457-1.126 11.085-4.215 21.517-9.722 31.224-3.287 5.793-6.529 11.612-9.777 17.426a29.506 29.506 0 0 1-4.085 5.656c-1.097 1.187-2.365 1.773-4.02 1.239-5.805-1.872-11.785-1.905-17.798-1.74-2.129.057-4.31.16-6.475-.644-.632-1.972.976-3.045 1.826-4.318 9.55-14.323 17.87-29.246 23.126-45.75 4.658-14.624 6.922-29.463 4.665-44.79-.169-1.147-.345-2.301-.645-3.417-.248-.92-1.03-1.251-1.938-1.17-.97.086-1.48.757-1.58 1.636a9.71 9.71 0 0 0 .057 2.479c3.488 23.984-3.314 45.81-14.038 66.798-4.325 8.462-9.386 16.487-14.63 24.409-1.448 2.185-2.673 2.463-4.75 1.122-5.032-3.247-9.723-6.918-14.339-10.677 14.65-16.478 21.372-35.724 23.144-57.084 1.098-13.228-.54-26.277-1.665-39.376-.399-4.645-.888-9.282-1.326-13.924-.13-1.377-.296-2.86-2.095-2.791-2.147.08-2.1 1.787-1.963 3.317.751 8.46 1.446 16.927 2.334 25.373 1.88 17.897 1.52 35.573-4.506 52.799-3.448 9.853-8.328 18.872-15.207 26.75-2.282 2.613-2.409 2.607-5.17.409-3.127-2.49-6.08-5.2-9.25-7.631-1.824-1.398-1.92-2.655-.895-4.626 4.796-9.211 8.264-18.934 9.986-29.172 2.611-15.533 3.536-31.102-.426-46.597-1.543-6.033-3.915-11.672-8.02-16.456-.65-.757-1.34-1.495-2.097-2.14-.989-.844-2.059-1.06-3.083.005-.869.902-.615 1.803.02 2.69.193.27.402.535.64.766 6.863 6.673 9.362 15.362 10.211 24.374 1.932 20.502.015 40.587-8.447 59.678-1 2.257-1.824 4.622-3.582 6.527-3.954-2.704-7.862-5.236-11.612-7.984-3.023-2.215-3.097-2.716-1.753-6.255 4.282-11.271 7.22-22.84 7.84-34.926.388-7.56-.294-14.961-3.127-22.083-2.393-6.016-6.025-11.091-11.045-15.167-1.024-.832-2.145-1.902-3.419-.414-1.128 1.317-.528 2.47.607 3.437 13.152 11.198 14.1 26 12.24 41.599-.91 7.633-2.984 15-5.402 22.276-.263.79-.438 1.622-1.81 2.178M316.914 6.857c-17.473 2.508-32.024 10.725-44.396 23.008-6.927 6.879-7.994 15.39-6.095 24.566 1.488 7.19 4.022 14.07 6.076 21.094 1.962 6.706 3.922 13.446 2.68 20.6-.258 1.497-.628 2.93-1.28 4.286-1.778 3.698-2.553 4.107-6.597 3.099-3.28-.815-6.606-.81-9.928-.791-1.976.01-2.712-.772-2.473-2.7.555-4.46 1.116-8.921 1.572-13.392.987-9.675 1.13-19.286-2.445-28.58-4.96-12.887-14.777-21.025-26.56-27.265-1.187-.63-2.247-.75-3.02.486-1.015 1.627.197 2.39 1.36 3.146 3.486 2.27 7.078 4.397 10.42 6.86 7.933 5.84 13.209 13.588 15.523 23.175 1.617 6.7 1.528 13.563.938 20.384-.445 5.139-1.253 10.246-1.821 15.376-.18 1.623-.536 2.87-2.42 3.23-4.553.877-9.087 1.85-13.506 2.76-1.211-1.303-.202-2.387-.08-3.458.787-6.873.374-13.625-1.733-20.251-4.557-14.33-11.135-27.596-22.353-37.842-12.675-11.58-27.88-14.874-44.601-11.67-.642.123-1.327.262-1.87.593-.545.332-1.052.87-.967 1.628.1.897.58 1.627 1.49 1.719.978.099 1.998.044 2.97-.12 20.217-3.404 36.34 3.226 48.325 19.808 7.32 10.13 12.208 21.375 14.464 33.678.906 4.94.926 9.95-.635 14.838-.464 1.454-.988 2.635-2.84 3.019-5.115 1.062-10.257.999-15.425.875-2.032-.05-1.798-1.462-1.922-2.761-.732-7.676-2.46-15.095-5.768-22.102-4.128-8.74-9.57-16.37-17.991-21.526-14.355-8.791-32.708-6.168-43.11 6.14-2.63 3.115-4.313 6.7-5.54 10.536-.352 1.105-.727 2.238-.221 3.407.59 1.362 2.382 1.63 3.206.428.36-.527.544-1.207.692-1.844 4.21-18.08 28.872-26.566 45.454-13.467 9.467 7.477 14.573 17.549 17.476 28.942.738 2.896 1.214 5.858 1.289 8.88.042 1.695-.367 2.612-2.206 2.23a1553.333 1553.333 0 0 1-14.64-3.096c-1.836-.4-1.341-2.041-1.586-3.26-1.533-7.621-5.561-13.454-12.401-17.247-4.055-2.248-8.404-3.074-13.013-2.486-5.32.678-9.37 3.302-11.96 8.008-3.345 6.086-4.191 12.94-5.818 19.548-.262 1.062.1 2.035 1.212 2.41 1.424.482 2.283-.39 2.628-1.593.592-2.075 1.046-4.194 1.46-6.313.61-3.107 1.299-6.191 2.489-9.135 3.229-7.985 10.72-11.157 18.787-7.98 6.83 2.69 11.288 8.704 12.405 16.785-1.89.869-3.904.349-5.85.4-4.904.136-9.58 1.206-14.002 3.258-3.355 1.556-6.155 3.749-8.365 6.878-3.746 5.302-7.797 10.39-11.804 15.503-2.647 3.378-3.678 3.42-6.393-.051-4.142-5.297-7.344-11.241-9.003-17.706-6.91-26.94-3.187-52.011 14.883-73.816 10.102-12.191 23.096-19.973 39.257-21.513 7.374-.702 14.682.35 21.852 1.7 15.108 2.846 29.773 1.194 44.422-2.827 12.823-3.517 25.51-7.595 38.657-9.86 10.284-1.772 20.535-1.86 30.76.406.319.253.408.48.27.682-.13.188-.255.283-.38.283"/>
        <path fill="#FEFDFD" d="M427.45 154.434c5.155-.326 9.328 2.155 13.498 6.345 53.11 53.369 106.426 106.537 159.683 159.76 3.652 3.652 7.257 7.35 10.895 11.013 3.973 4 3.98 3.994 1.246 8.155-61.804-61.79-123.715-123.682-185.321-185.273M424.995 159.741c.757.64 1.564 1.227 2.262 1.924 59.82 59.837 119.635 119.68 179.443 179.531 3.815 3.818 3.784 3.848.854 8.571-1.546-.002-2.206-1.318-3.098-2.209-49.94-49.932-99.86-99.884-149.791-149.826-6.832-6.834-13.502-13.813-19.574-21.343-3.868-4.794-7.66-9.643-10.18-15.335-.395-.464-.367-.902.084-1.313"/>
        <path fill="#FEFCFC" d="M463.015 211.942c32.406 32.4 64.822 64.792 97.217 97.205 13.9 13.908 27.77 27.848 41.625 41.8 3.815 3.843 3.768 3.89.81 8.607-1.092-.123-1.639-1.022-2.313-1.696-43.955-43.95-87.845-87.967-131.943-131.771-3.864-3.838-5-8.38-6.5-13.054-.32-1.061.137-1.333 1.104-1.091"/>
        <path fill="#FEFDFC" d="M487.108 172.842c5.445.758 9.64 3.367 13.585 7.343 36.389 36.673 72.962 73.164 109.501 109.688 5.066 5.065 9.659 10.614 15.174 15.214 3.359 2.802.31 4.951-.118 7.332-1.562.282-2.006-.815-2.642-1.45a375762.007 375762.007 0 0 1-135.396-135.407c-.469-.468-.877-.997-1.314-1.497-.196-1.001.108-1.506 1.21-1.223M465.444 229.571c1.609.197 2.269 1.48 3.159 2.37 42.729 42.734 85.436 85.49 128.145 128.244.235.236.461.48.694.719 3.656 3.728 3.656 3.728.281 8.502-1.562-.663-2.494-2.077-3.633-3.214-41.81-41.769-83.558-83.6-125.482-125.255-3.52-3.497-4.489-6.866-3.164-11.366"/>
        <path fill="#FEFCFC" d="M593.261 379.217c-1.96-.901-2.933-2.301-4.09-3.459a221766.189 221766.189 0 0 1-110.582-110.61c-4.473-4.478-8.798-9.103-13.285-13.565-3.805-3.783-3.864-3.722-1.703-9.227 1.832.283 2.67 1.882 3.798 3.009 40.89 40.85 81.755 81.725 122.621 122.598.942.942 1.864 1.904 2.785 2.867 3.381 3.533 3.38 3.534.456 8.387"/>
        <path fill="#FEFDFC" d="M449.989 162.801c5.632.933 9.857 3.971 13.878 8.008 49.007 49.206 98.147 98.278 147.25 147.388 1.884 1.884 3.733 3.803 5.609 5.695 2.682 2.706 2.687 2.702.627 6.622-1.186.102-1.747-.841-2.427-1.521-54.996-54.99-109.983-109.989-164.971-164.988-.288-.275-.38-.546-.274-.81.105-.263.207-.394.308-.394M449.955 283.708c1.819 1.7 3.025 2.761 4.159 3.895 35.32 35.32 70.64 70.641 105.947 105.974 4.824 4.827 9.55 9.753 14.397 14.558 2.974 2.947 3.043 2.886.859 6.546-.242.405-.584.751-.882 1.127-1.811-.458-2.737-1.944-3.887-3.093-38.873-38.83-77.687-77.723-116.655-116.458-3.515-3.493-3.797-7.318-3.938-12.549M621.262 321.758L468.075 168.234c4.093.423 7.86 1.777 11.308 5.242 45.35 45.565 90.858 90.975 136.321 136.428a354.77 354.77 0 0 1 4.891 5c2.673 2.782 2.666 2.789.667 6.854M455.362 261.238c1.767.699 2.795 2.274 4.056 3.536 41.789 41.858 83.556 83.736 125.327 125.61 2.379 2.385 2.375 2.388-.365 6.536-1.286-.173-1.938-1.227-2.743-2.031A339229.416 339229.416 0 0 1 455.829 269.05c-3.355-3.358-3.297-3.415-.467-7.812"/>
        <path fill="#FEFEFE" d="M451.45 271.18c1.27.215 1.893 1.3 2.69 2.098 41.605 41.594 83.198 83.2 124.78 124.817 3.669 3.672 3.633 3.708.426 8.46-1.625-.636-2.565-2.082-3.724-3.241a214943.666 214943.666 0 0 1-107.828-107.83c-5.066-5.07-10.025-10.242-15.092-15.308-3.425-3.423-3.54-3.865-1.252-8.995"/>
        <path fill="#FEFDFD" d="M99.88 197.697c.056-4.438 1.586-8.283 3.29-12.063.87-1.93 2.584-3.006 4.48-3.753 8.98-3.539 18.157-5.22 27.775-2.985 5.986 1.392 10.625 4.538 13.594 10 3.03 5.577 5.47 11.38 6.555 17.667 1.097 6.351-2.288 9.286-8.4 7.282-3.41-1.118-6.061-3.445-8.454-6.002-2.04-2.18-3.873-4.558-5.776-6.866-8.462-10.254-20.107-11.785-30.877-4.056-.518.371-.92.993-2.186.776"/>
        <path fill="#FEFEFE" d="M509.052 179.924c5.518 1.188 9.92 3.996 13.954 8.059 34.761 34.996 69.68 69.836 104.551 104.723 3.926 3.929 3.921 3.935.963 9.207-1.596-.678-2.567-2.091-3.729-3.253a200280.109 200280.109 0 0 1-110.985-111.014c-2.468-2.472-4.784-5.094-7.172-7.647.787-.618 1.594-.64 2.418-.075"/>
        <path fill="#FEFDFD" d="M453.958 302.003c38.25 38.26 76.5 76.518 114.752 114.777.352.354.66.776 1.067 1.047 2.586 1.724 2.357 3.673.534 5.794-.322.373-.582.8-.86 1.188-1.722.321-2.33-1.14-3.197-2.007-36.631-36.583-73.21-73.218-109.895-109.747-2.65-2.638-3.073-5.722-3.54-8.996-.297-1.06-.754-2.209 1.139-2.056"/>
        <path fill="#FEFDFC" d="M589.065 387.863c-1.377-.346-1.94-1.216-2.628-1.904a518632.834 518632.834 0 0 1-117.186-117.358c-3.058-3.063-6.043-6.2-9.11-9.252-2.74-2.726-2.77-2.697-.27-6.54 1.725.724 2.78 2.282 4.031 3.535 40.827 40.887 81.632 81.796 122.441 122.7.705.708 1.427 1.398 2.144 2.094 2.846 2.766 2.847 2.764.578 6.726"/>
        <path fill="#FEFCFC" d="M532.17 188.821c6.037 1.68 11.038 4.767 15.54 9.317 27.4 27.704 54.973 55.237 82.637 82.675 3.16 3.137 4.32 5.894 1.805 9.769-1.583-.077-2.227-1.404-3.113-2.287a163548.327 163548.327 0 0 1-96.786-96.785c-.467-.465-.857-1.008-1.283-1.516-.194-.998.07-1.529 1.2-1.173M525.123 388.23c-2.141 0-4.23-.068-6.312.02-1.73.076-2.73-.988-3.797-2.055-19.103-19.08-38.152-38.213-57.378-57.166-3.19-3.145-1.902-6.787-2.744-10.414 3.246 1.689 66.365 64.363 70.23 69.615"/>
        <path fill="#FEFDFD" d="M556.935 199.991c7.762 3.548 14.915 7.918 21 14.063 18.293 18.472 36.668 36.865 55.177 55.12 3.101 3.06 3.836 5.898 1.917 9.573-1.367.272-1.859-.773-2.51-1.423A104816.377 104816.377 0 0 1 557.246 202c-.573-.574-.997-1.296-1.49-1.949.367-.538.76-.558 1.18-.059M455.643 333.557l55.215 55.169c-4.693 2.818-4.905 2.817-8.488-.752-14.513-14.455-28.915-29.026-43.603-43.301-3.395-3.3-4.65-6.534-3.124-11.116"/>
        <path fill="#FEFCFC" d="M120.103 249.606c7.844-4.338 11.982-11.586 15.181-19.557 1.424-3.55 1.59-3.635 4.856-1.934 1.771.923 3.477 2.008 4.78 3.533 4.176 4.888 3.763 6.86.686 10.849-6.82 8.84-13.216 11.185-23.889 8.332-.674-.18-1.196-.513-1.614-1.223"/>
        <path fill="#FEFBFA" d="M454.313 346.96l45.386 45.26c-3.695 2.275-3.712 2.293-6.902-.885-12.149-12.106-24.232-24.282-36.473-36.296-2.522-2.475-4.044-4.78-2.01-8.079"/>
        <path fill="#FEFAF9" d="M490.99 395.413c-3.645 2.307-6.03 2.021-8.791-.854-9.663-10.064-19.665-19.8-29.501-29.699-3.224-3.243-3.596-2.448-.62-8.199 13.157 12.768 25.787 25.75 38.913 38.752M604.196 230.795c3.436-.8 5.768.623 8.15 3.141 6.732 7.106 13.78 13.914 20.705 20.837 4.574 4.572 4.576 4.57 3.87 11.326-.48.256-.921.195-1.3-.185-11.237-11.286-22.471-22.574-33.706-33.862-.09-1.963 1.124-1.559 2.28-1.257"/>
        <path fill="#FEF8F7" d="M480.483 398.86c-5.479 2.386-5.48 2.388-9.213-1.343-7.643-7.64-15.322-15.244-22.911-22.937-3.878-3.932-4.328-2.64-.94-8.083 3.152 1.638 26.075 24.047 33.064 32.363"/>
        <path fill="#FEFBFA" d="M132.198 226.267c-1.523 5.472-3.681 10.068-7.045 14.029a22.13 22.13 0 0 1-4.004 3.688c-4.067 2.89-6.418 1.796-6.865-3.213-.315-3.535.902-6.855 1.888-10.183.43-1.458 1.79-1.918 2.98-2.411 4.01-1.664 8.134-2.731 13.046-1.91"/>
        <path fill="#FEFCFC" d="M442.6 375.899l26.77 26.774c-4.197 2.229-4.204 2.236-7.745-1.304-6-5.997-11.998-11.997-17.983-18.008-3.226-3.24-3.214-3.252-1.043-7.462"/>
        <path fill="#FEF9F7" d="M544.792 407.24c6.94 6.933 13.866 13.88 20.836 20.781 1.003.993 1.148 1.88.357 3.017-.756 1.085-1.451 2.212-2.46 3.762-5.653-5.667-11.118-11.173-16.624-16.639-.916-.909-1.05-2.024-1.27-3.165-.466-2.439-.963-4.87-1.447-7.307l.608-.449"/>
        <path fill="#FEF8F6" d="M439.234 385.952l21.001 20.953c-.299.198-1.044.586-1.658 1.123-2.066 1.805-3.634 1.335-5.451-.599-3.989-4.247-8.207-8.276-12.324-12.403-3.74-3.75-3.762-3.944-1.568-9.074"/>
        <path fill="#FEF6F4" d="M633.956 250.001l-20.133-19.894c.362-.66.436-1.028.649-1.148 5.942-3.334 5.94-3.326 10.166 1.938 4.395 5.475 8.26 11.256 10.47 18.001.252 1.033-.185 1.345-1.152 1.103"/>
        <path fill="#FEFBFB" d="M558.495 444.522c-4.096-4.211-7.89-8.146-11.727-12.034-1.01-1.024-1.514-2.037-1.166-3.547.333-1.44.336-2.957.484-4.431 1.564-.537 2.078.805 2.817 1.522 3.223 3.125 6.374 6.324 9.545 9.504 3.518 3.529 3.514 3.532.047 8.986"/>
        <path fill="#FEF7F5" d="M437.231 397.463c5.19 4.798 9.604 9.101 13.826 13.875-7.826 2.06-13.38-3.297-13.826-13.875"/>
        <path fill="#FDF2F0" d="M536.837 454.497c2.832 2.907 5.293 5.543 7.878 8.052 2.178 2.115-.13 3.131-.983 4.462-1.063 1.66-2.12.923-3.151-.147-1.257-1.303-2.59-2.532-3.835-3.845-3.305-3.485-4.413-2.58.09-8.522"/>
        <path fill="#FEF6F4" d="M554.264 453.138c-3.98-4.086-7.015-7.33-10.195-10.42-2.175-2.113-.365-3.92.3-6.748 4.07 3.888 7.754 7.487 11.242 11.259 1.795 1.94-.74 3.086-1.347 5.909"/>
        <path fill="#FDF5F2" d="M548.384 460.173c-3.18-2.385-5.826-5.361-8.549-8.221-2.126-2.232.422-3.782 1.155-6.467 3.445 3.421 6.511 6.327 9.398 9.399 1.432 1.523 1.283 1.663-2.004 5.289"/>
        <path fill="#FDF2EF" d="M533.014 479.309c-.948.755-1.84 1.494-2.767 2.19-.519.39-1.094.708-1.786 1.15l-7.056-7.39c.722-1.728 2.285-2.885 3.694-4.12l7.915 8.17"/>
        <path fill="#FDF2F0" d="M513.623 481.57c.69-.632 1.342-1.144 1.895-1.746 1.512-1.65 2.779-1.805 4.477-.002 1.686 1.79 3.812 3.164 5.465 5.002-.75 1.599-1.762 1.965-2.445 2.64-1.631 1.606-3.046 1.594-4.505-.29-1.493-1.927-3.79-3.184-4.887-5.603"/>
        <path fill="#FDF2EF" d="M517.38 490.754c-.853.993-1.028 1.294-1.285 1.482-4.037 2.961-4.056 2.974-7.516-.575-1.014-1.04-2.276-1.893-2.8-3.32.267-1.08 1.195-1.56 1.872-2.259 1.387-1.434 2.596-1.547 4.132-.015 1.735 1.73 3.756 3.168 5.596 4.687"/>
        <path fill="#FEF9F8" d="M539.246 471.995c-.506 1.43-1.476 2.375-2.59 3.015-1.071.613-1.781-.44-2.462-1.1-1.54-1.49-3.072-2.989-4.548-4.54-1.733-1.823-1.467-3.659.6-5.182.639-.468 1.252-.52 1.758-.029a343.659 343.659 0 0 1 6.644 6.638c.312.32.423.835.598 1.198"/>
        <path fill="#FDEFEB" d="M507.97 496.828c-.396.596-.51.93-.744 1.092-4.179 2.921-6.109 2.453-8.765-1.943-.94-1.558.328-2.088 1.137-2.722 1.033-.81 1.925-2.695 3.633-1.164 1.684 1.51 3.211 3.196 4.74 4.737"/>
        <path fill="#FDF5F3" d="M498.91 502.393c-1.491 1.77-3.566 2.409-5.335 3.452-1.168-.342-1.327-1.457-1.821-2.243-.703-1.121-3.346-1.824-.898-3.796 2.748-2.213 3.296-2.275 5.679.056.816.799 1.566 1.665 2.375 2.53"/>
        <path fill="#FDEBE7" d="M110.208 238.12c-.357 2.59.54 5.117.89 7.69-1.8.052-2.527-.97-3.493-1.555-1.805-1.093-1.946-2.432-.817-4.119.99-1.48 1.465-3.335 3.19-4.262.58.697.506 1.462.23 2.246"/>
        <path fill="#F7ADA6" d="M463.015 211.942l-1.104 1.09c-1.022-.706-1.202-1.85-1.692-3.446 1.562.405 2.334 1.159 2.796 2.356"/>
        <path fill="#F59A93" d="M453.958 302.003c-1.058.31-.811 1.342-1.14 2.056-.278-.533-.644-1.039-.814-1.605-.175-.579-.23-1.466.332-1.664.855-.302 1.356.425 1.622 1.213"/>
        <path fill="#F9C1BE" d="M604.196 230.795c-.815.32-1.848.243-2.281 1.257-.74-.3-1.617-.764-1.38-1.58.266-.914 1.294-.502 1.977-.385.585.101 1.124.462 1.684.708"/>
        <path fill="#F8B9B4" d="M487.108 172.842c-.403.407-.807.814-1.21 1.223-.691-.464-2.091-.797-1.246-1.846.61-.76 1.747-.111 2.456.623"/>
        <path fill="#F69F96" d="M88.861 597.027l-.376-.014-.377.015c-.25-1.121-.143-2.202.289-3.393.773 1.17.632 2.28.464 3.392"/>
        <path fill="#FACAC5" d="M532.17 188.821c-.4.393-.8.782-1.2 1.173-.963-.373-1.667-.994-1.946-2.024.33-.386.705-.418 1.12-.147.8.077 1.564.232 2.026.998"/>
        <path fill="#F5948D" d="M633.956 250.001c.632-.109.9-.598 1.152-1.103.75.692 1.425 1.653.455 2.361-.604.44-1.35-.442-1.607-1.258"/>
        <path fill="#F7ABA8" d="M316.914 6.857c.064-.318.1-.64.11-.965.836-.147 1.609-.068 2.23.615-.732.598-1.523.565-2.34.35"/>
        <path fill="#F7AAA5" d="M449.989 162.801l-.034 1.204c-.697-.415-1.89-.636-1.29-1.763.245-.461 1.07-.13 1.324.559"/>
        <path fill="#FACCC6" d="M509.052 179.924c-.806.024-1.61.05-2.417.075-.852-.634-.45-1.001.311-1.059.833-.064 1.551.338 2.106.984"/>
        <path fill="#F38883" d="M555 199.951c-.733-.27-1.67-.713-1.294-1.512.33-.707 1.018-.252 1.277.448.347.231.465.465.355.704-.111.24-.224.36-.338.36"/>
        <path fill="#F6A19C" d="M110.208 238.12c-.076-.748-.152-1.497-.23-2.246.295-.622.708-.647.877-.003.218.82-.05 1.608-.647 2.25"/>
        <path fill="#F8BAB4" d="M424.995 159.741l-.084 1.313c-.653-.334-1.12-.915-.801-1.572.32-.66.706-.264.885.26"/>
        <path fill="#F6A09D" d="M530.143 187.823l-1.119.146c-.417-.03-.762-.445-.542-.618.661-.522 1.215-.086 1.661.472"/>
        <path fill="#FCE1E0" d="M555 199.951l-.017-1.064c.814.08 1.505.376 1.953 1.104-.393.02-.786.038-1.18.06l-.394.075-.362-.175z"/>
        <path fill="#FEFEFE" d="M280.616 235.334c.1-3.643.367-7.41 1.355-11.116.899-3.366 3.013-5.379 6.403-6.266 5.985-1.564 11.85-1.099 17.723.584 5.94 1.702 11.524 4.281 17.095 6.877 11.304 5.266 22.755 10.145 34.634 13.998 14.46 4.691 24.468 14.398 30.847 27.99 3.19 6.8 4.878 14.073 6.446 22.037-2.675-1.066-4.026-2.92-5.447-4.53-4.074-4.618-8.02-9.349-11.986-14.059-6.926-8.225-15.37-14.195-25.748-17.227-12.968-3.789-25.176-9.445-37.418-15.034-3.477-1.588-7.092-2.793-10.775-3.86-7.103-2.06-14.084-2.204-21.018.576-.604.242-1.178.594-2.111.03"/>
        <path fill="#FEFCFC" d="M319.909 288.904c.332-6.01 1.87-11.195 4.739-16.03 1.27-2.142 2.919-3.06 5.335-2.733 1.153.157 2.324.213 3.459.448 9.969 2.053 9.616 1.586 6.204 11.623-1.452 4.274-4.162 7.947-7.471 11.096-1.214 1.158-2.527 2.137-4.11 2.772-3.895 1.555-6.46.394-7.618-3.648-.362-1.264-.406-2.619-.538-3.529"/>
        <path fill="#FEF7F6" d="M319.197 274.12c-2.647 5.824-3.82 11.93-3.107 19.187-3.914-2.73-6.628-5.523-9.213-8.492-1.444-1.658-1.13-2.988.488-4.196 3.724-2.777 7.218-5.905 11.608-7.674.273.22.396.466.37.741-.024.29-.073.434-.146.434"/>
        <path fill="#F6A39E" d="M319.197 274.12c-.074-.392-.148-.783-.224-1.175.212-.415.556-.756.848-.19.297.574-.018 1.09-.624 1.365"/>
    </g>
</svg>
