<svg xmlns="http://www.w3.org/2000/svg" width="20" height="12" viewBox="0 0 20 12">
    <path fill="#FFF" fill-rule="nonzero" d="M18.061 1.698h-5.01v-1.2h5.01v1.2zM9.714 6.62c.323.483.485 1.07.485 1.758 0 .712-.182 1.35-.553 1.915a3.365 3.365 0 0 1-.88.942 3.464 3.464 0 0 1-1.405.603A8.994 8.994 0 0 1 5.604 12H0V0h6.01c1.515.024 2.589.447 3.223 1.278.38.51.569 1.122.569 1.833 0 .733-.19 1.32-.575 1.766-.214.25-.53.478-.948.683.634.224 1.114.576 1.435 1.06zM2.87 4.731h2.633c.541 0 .979-.1 1.316-.297.336-.198.504-.55.504-1.056 0-.558-.222-.928-.668-1.107-.383-.123-.874-.187-1.469-.187H2.87V4.73zm4.707 3.476c0-.624-.264-1.055-.792-1.286-.294-.131-.71-.198-1.244-.203H2.87v3.198H5.5c.54 0 .958-.069 1.26-.21.544-.262.817-.76.817-1.5zm12.344-1.953c.06.393.088.963.077 1.707h-6.49c.035.864.344 1.468.931 1.814.354.217.783.322 1.285.322.53 0 .96-.129 1.293-.394.181-.14.34-.34.479-.59h2.379c-.063.51-.349 1.028-.864 1.554-.797.836-1.916 1.255-3.352 1.255-1.187 0-2.233-.354-3.14-1.058-.905-.707-1.36-1.853-1.36-3.443 0-1.492.409-2.633 1.227-3.427.822-.796 1.882-1.192 3.19-1.192.774 0 1.472.133 2.095.402a3.578 3.578 0 0 1 1.539 1.272c.366.512.601 1.104.71 1.778zm-2.342.224c-.043-.597-.25-1.05-.623-1.358-.369-.31-.83-.465-1.38-.465-.6 0-1.063.166-1.391.493-.331.326-.537.769-.622 1.33h4.016z"/>
</svg>
