<svg xmlns="http://www.w3.org/2000/svg" width="20" height="13" viewBox="0 0 20 13">
    <path fill="#7F7F7F" fill-rule="nonzero" d="M18.061 1.763h-5.01V.517h5.01v1.246zM9.714 6.874c.323.502.485 1.11.485 1.825 0 .74-.182 1.403-.553 1.989a3.446 3.446 0 0 1-.88.978 3.4 3.4 0 0 1-1.405.626 8.672 8.672 0 0 1-1.757.168H0V0h6.01c1.515.025 2.589.464 3.223 1.327.38.53.569 1.165.569 1.903 0 .762-.19 1.371-.575 1.834-.214.26-.53.496-.948.71.634.231 1.114.597 1.435 1.1zM2.87 4.912h2.633c.541 0 .979-.103 1.316-.308.336-.206.504-.571.504-1.096 0-.58-.222-.964-.668-1.15-.383-.128-.874-.194-1.469-.194H2.87v2.748zm4.707 3.61c0-.648-.264-1.095-.792-1.335-.294-.137-.71-.207-1.244-.212H2.87v3.321H5.5c.54 0 .958-.07 1.26-.219.544-.271.817-.788.817-1.556zm12.344-2.028c.06.408.088 1 .077 1.773h-6.49c.035.897.344 1.524.931 1.883.354.225.783.335 1.285.335.53 0 .96-.134 1.293-.41.181-.146.34-.352.479-.612h2.379c-.063.53-.349 1.067-.864 1.613-.797.868-1.916 1.303-3.352 1.303-1.187 0-2.233-.367-3.14-1.098-.905-.734-1.36-1.925-1.36-3.576 0-1.548.409-2.733 1.227-3.558.822-.827 1.882-1.238 3.19-1.238.774 0 1.472.139 2.095.417a3.611 3.611 0 0 1 1.539 1.322c.366.532.601 1.146.71 1.846zm-2.342.233c-.043-.62-.25-1.09-.623-1.41-.369-.322-.83-.484-1.38-.484-.6 0-1.063.173-1.391.512-.331.339-.537.799-.622 1.382h4.016z"/>
</svg>
