<svg xmlns="http://www.w3.org/2000/svg" xmlns:xlink="http://www.w3.org/1999/xlink" width="238" height="215" viewBox="0 0 238 215">
    <defs>
        <path id="a" d="M.614 0h3.558v3.525H.614z"/>
        <path id="c" d="M0 .122h3.416v3.671H0z"/>
        <path id="e" d="M.664.49h50.563v157.4H.664z"/>
        <path id="g" d="M.623.2h29.006v30.393H.623z"/>
        <path id="i" d="M0 .53h4.257v4.411H0z"/>
    </defs>
    <g fill="none" fill-rule="evenodd">
        <path fill="#3850A2" d="M96.528 215a.726.726 0 0 1-.693-.516c-.123-.403-12.377-40.714-13.815-73.36-1.455-33.04-2.861-54.29-12.976-73.97a.734.734 0 0 1 .31-.986.722.722 0 0 1 .977.313c10.255 19.952 11.674 41.337 13.139 74.579 1.43 32.46 13.628 72.59 13.751 72.992a.733.733 0 0 1-.693.948"/>
        <path fill="#3850A2" d="M88.569 182.398a.676.676 0 0 1-.132-.013c-.263-.047-26.265-5.073-26.636-25.93-.355-19.982-14.598-35.23-14.741-35.382a.734.734 0 0 1 .025-1.036.728.728 0 0 1 1.03.026c.148.156 14.778 15.819 15.144 36.366.35 19.655 25.19 24.47 25.44 24.517a.731.731 0 0 1-.13 1.452M82.954 133.934a.734.734 0 0 1-.363-1.366c9.888-5.682 26.923-36.711 27.093-37.024a.726.726 0 0 1 1.29.022c10.29 20.469 21.915 15.949 22.404 15.747a.732.732 0 0 1 .563 1.35c-.129.055-12.833 5.116-23.64-15.222-3.298 5.9-17.76 31.096-26.986 36.397a.731.731 0 0 1-.361.096"/>
        <path fill="#3850A2" d="M111.996 97.807a10.09 10.09 0 0 1-1.761-.15.733.733 0 0 1-.576-.527.748.748 0 0 1 .219-.755c.138-.124 13.992-12.693 23.088-34.246a.72.72 0 0 1 .955-.388c.369.162.54.596.381.97-7.655 18.142-18.654 30.022-22.265 33.62 9.731-.028 21.815-14.922 21.943-15.08a.72.72 0 0 1 1.023-.106.746.746 0 0 1 .104 1.04c-.54.671-12.68 15.622-23.11 15.622"/>
        <path fill="#3850A2" d="M110.67 96.926l-.042-.001c-6.724-.39-13.025-12.388-13.29-12.898a.747.747 0 0 1 .306-1.001.726.726 0 0 1 .986.31c.056.11 5.293 10.082 10.75 11.85-2.377-5.118-10.09-23.245-3.826-30.605a.723.723 0 0 1 1.03-.077.748.748 0 0 1 .075 1.045c-6.54 7.685 4.548 30.075 4.662 30.3a.75.75 0 0 1-.04.742.727.727 0 0 1-.612.335"/>
        <path fill="#3850A2" d="M110.338 96.045a.687.687 0 0 1-.354-.1.743.743 0 0 1-.257-.997c5.035-8.938 8.19-34.14 8.22-34.393.05-.4.405-.678.791-.632a.725.725 0 0 1 .613.816c-.129 1.047-3.222 25.75-8.4 34.943a.704.704 0 0 1-.613.363M71.21 67.848c-.273 0-.547-.01-.82-.027-.763-.051-1.47-.096-2.129-.138-9.1-.571-9.27-.663-18.21-9.843-2.35-2.413-5.274-5.416-9.16-9.248a.747.747 0 0 1-.01-1.052.736.736 0 0 1 1.047-.01c3.897 3.843 6.827 6.851 9.181 9.27 8.626 8.857 8.626 8.857 17.244 9.398.66.042 1.37.086 2.136.138 13.14.897 24.356-23.362 24.467-23.607a.74.74 0 1 1 1.346.62c-.029.063-2.931 6.385-7.497 12.505-5.943 7.964-11.858 11.994-17.594 11.994"/>
        <path fill="#3850A2" d="M69.996 67.848a.733.733 0 0 1-.658-.406c-2.217-4.452-13.354-17.647-13.466-17.78a.726.726 0 0 1 .09-1.028.737.737 0 0 1 1.034.09c.463.547 11.363 13.463 13.658 18.071a.728.728 0 0 1-.658 1.053"/>
        <path fill="#3850A2" d="M70.453 66.967a.742.742 0 0 1-.729-.614c-.06-.36-5.985-36.031-15.603-46.628a.727.727 0 0 1 .056-1.033.744.744 0 0 1 1.042.054c9.076 10 14.716 40.192 15.785 46.327 8.08-5.495 14.998-32.836 15.069-33.12a.74.74 0 0 1 .894-.535.731.731 0 0 1 .54.886c-.31 1.235-7.665 30.286-16.735 34.59a.73.73 0 0 1-.32.073M47.463 120.717h-.02c-9.942-.265-18.926-6.862-24.71-12.349-6.227-5.905-10.195-11.836-10.234-11.895a.725.725 0 0 1 .212-1.01.744.744 0 0 1 1.023.209c.153.23 15.436 22.908 33.518 23.579 1.62-1.086 13.598-9.704 12.154-25.937a.733.733 0 0 1 .672-.79.736.736 0 0 1 .8.662c1.62 18.234-12.88 27.332-13.026 27.422a.748.748 0 0 1-.39.11"/>
        <path fill="#3850A2" d="M46.735 119.836a.731.731 0 0 1-.404-.118c-.871-.578-8.41-12.676-10.059-17.86C34.637 96.71 24.996 83.69 24.9 83.56a.727.727 0 0 1 1.164-.866c.402.542 9.883 13.346 11.592 18.724 1.365 4.294 6.441 12.585 8.607 15.829.245-5.78-.68-25.068-8.457-34.1a.725.725 0 1 1 1.098-.948c9.39 10.906 9.419 36.235 8.404 37.387a.767.767 0 0 1-.572.25"/>
        <path fill="#3850A2" d="M30.642 126.885c-3.37 0-5.873-.341-6.135-.378a.729.729 0 0 1-.628-.822.737.737 0 0 1 .842-.614c.161.022 16.167 2.199 22.227-4.71 6.135-6.998 4.37-39.958 4.352-40.29a.731.731 0 0 1 .7-.764c.409-.043.76.284.782.685.077 1.38 1.812 33.878-4.708 41.312-4.09 4.665-11.918 5.581-17.432 5.581M128.167 102.213c-5.72 0-11.806-1.951-18.184-5.842a.734.734 0 0 1-.243-1.01.741.741 0 0 1 1.015-.242c8.996 5.487 17.336 6.967 24.787 4.396 12.14-4.189 18.31-17.977 19.357-20.52-3.414-4.026-3.57-10.978-3.575-11.28a.737.737 0 0 1 .726-.748c.394.002.743.317.75.722.001.071.163 7.113 3.49 10.655.192.203.25.496.154.756-.255.69-6.423 16.97-20.412 21.8a23.94 23.94 0 0 1-7.865 1.313"/>
        <path fill="#3850A2" d="M157.95 80.184c-.851 0-1.75-.12-2.692-.395a.76.76 0 0 1-.507-.938.741.741 0 0 1 .92-.517c5.872 1.728 10.046-3.952 10.088-4.01a.734.734 0 0 1 1.038-.161c.33.247.401.721.158 1.057-.168.233-3.65 4.964-9.005 4.964M141.534 102.314c-3.491 1.734-7.838 5.811-7.055 10.162.765 4.245 4.508 8.05 8.78 8.24 1.139.05 1.137-1.745 0-1.795-3.429-.153-7.207-3.992-7.135-7.66.058-3.025 3.93-6.218 6.304-7.397 1.023-.509.126-2.057-.894-1.55"/>
        <path fill="#3850A2" d="M134.911 111.803a25.288 25.288 0 0 1 10.075-2.491c1.19-.046 1.195-1.858 0-1.811a27.639 27.639 0 0 0-11.01 2.739c-1.071.515-.133 2.077.935 1.563"/>
        <path fill="#3850A2" d="M134.689 112.592c1.113.962 2.218 1.851 3.612 2.27 1.587.477 3.327.513 4.963.568 1.132.038 1.13-1.86 0-1.899-2.795-.093-5.093-.348-7.331-2.282-.875-.756-2.128.579-1.244 1.343M134.813 71.16c-.74 3.331-3.14 8.704 1.317 10.366 4.074 1.517 7.673-1.354 10.363-4.065.842-.848-.465-2.164-1.307-1.316-1.823 1.837-3.997 4.031-6.799 3.88-1.213-.066-2.02-.262-2.63-1.32-.604-1.046-.355-1.616-.123-2.718.304-1.447.64-2.889.961-4.333.26-1.167-1.522-1.665-1.782-.495"/>
        <path fill="#3850A2" d="M136.617 80.882a37.123 37.123 0 0 0 7.312-7.288c.728-.961-.903-1.893-1.623-.943a33.926 33.926 0 0 1-6.638 6.618c-.951.718-.016 2.34.949 1.613M129.142 46.687c-.266 5.239.14 12.614 5.84 15.303 4.15 1.959 10.306-1.408 10.89-5.7.155-1.146-1.722-1.135-1.876 0-.324 2.384-3.478 4.07-5.726 4.353-2.543.32-4.557-1.534-5.75-3.533-1.76-2.947-1.67-7.124-1.503-10.423.059-1.157-1.817-1.155-1.875 0M88.644 79.548c2.348 2.83 5.815 6.272 9.846 4.605 3.858-1.596 3.269-6.738 2.948-10.117-.112-1.195-1.99-1.207-1.876 0 .238 2.523 1.057 7.588-2.167 8.517-3.126.9-5.68-2.235-7.423-4.336-.774-.933-2.096.405-1.328 1.331"/>
        <path fill="#3850A2" d="M98.09 82.868c.144-2.764.084-5.575-1.97-7.7-.792-.821-2.06.415-1.269 1.234 1.694 1.755 1.561 4.224 1.444 6.466-.059 1.122 1.736 1.12 1.795 0M105.028 55.938c-1.737 2.804-2.795 7.826.913 9.6 3.783 1.81 7.174-1.235 9.62-3.738.813-.832-.473-2.102-1.288-1.268-1.708 1.748-3.799 4.1-6.535 3.675-3.696-.573-2.49-5.178-1.137-7.364.612-.988-.963-1.89-1.573-.905"/>
        <path fill="#3850A2" d="M106.94 64.316c.183-2.282 1.854-3.975 3.312-5.469.805-.825-.417-2.135-1.22-1.31-1.845 1.89-3.59 3.933-3.817 6.78-.095 1.187 1.631 1.18 1.726 0M111.496 53.402c.963 2.079 2.78 3.281 4.514 4.665 1.277 1.018 2.525 2.18 4.14 2.568 3.739.898 6.64-2.06 8.724-4.794.71-.933-.569-2.255-1.287-1.312-2.097 2.751-4.616 5.572-8.424 3.652-1.973-.995-5.139-3.651-6.095-5.716-.5-1.079-2.07-.138-1.572.937"/>
        <path fill="#3850A2" d="M115.93 47.824c-.473 4.172.594 8.225 3.053 11.64.414.575 1.234.634 1.636 0 2.349-3.7 4.52-7.424 4.922-11.862.109-1.205-1.786-1.198-1.895 0-.369 4.07-2.518 7.533-4.663 10.915h1.636c-2.296-3.19-3.236-6.796-2.794-10.693.136-1.2-1.76-1.19-1.895 0M135.457 60.503c-.592-4.091.535-8.115 3.123-11.28.752-.92-.537-2.254-1.295-1.327-3.052 3.734-4.29 8.29-3.594 13.105.172 1.19 1.936.684 1.766-.498"/>
        <path fill="#3850A2" d="M135.784 61.583c2.802-1.337 5.06-3.59 6.453-6.412.53-1.074-1.05-2.025-1.582-.946-1.267 2.568-3.248 4.524-5.796 5.74-1.067.509-.138 2.126.925 1.618M156.806 78.42c-.355-3.831.361-7.492 2.222-10.937.571-1.057-1.15-1.991-1.723-.929-2.012 3.725-2.878 7.715-2.495 11.866.109 1.172 2.105 1.183 1.996 0"/>
        <path fill="#3850A2" d="M156.945 79.124a32.045 32.045 0 0 0 6.433-6.4c.73-.964-.885-1.907-1.605-.955a28.96 28.96 0 0 1-5.766 5.722c-.955.712-.028 2.354.938 1.633M90.254 33.455c-.463 3.558 1.256 8.307 5.222 9.454 4.15 1.2 9.25-1.88 12.1-4.48.875-.796-.451-2.063-1.325-1.266-2.184 1.992-5.128 3.83-8.236 4.043-4.496.309-6.363-4.093-5.887-7.751.149-1.142-1.727-1.132-1.874 0"/>
        <path fill="#3850A2" d="M95.606 41.993a19.11 19.11 0 0 1 1.55-10.603c.492-1.083-1.001-2.04-1.496-.95-1.738 3.817-2.301 7.842-1.725 12.053.164 1.197 1.833.688 1.67-.5"/>
        <path fill="#3850A2" d="M95.934 43.004c2.634-1.911 4.546-4.44 5.678-7.512.415-1.126-1.366-1.611-1.777-.495a13.736 13.736 0 0 1-4.831 6.399c-.954.692-.036 2.308.93 1.608M14.723 119.877c3.255.255 9.674 4.124 7.606 7.867-1.645 2.976-5.843 4.366-9.07 4.39-1.174.01-1.177 1.81 0 1.8 4.196-.031 11.09-2.508 11.482-7.44.359-4.501-6.159-8.114-10.018-8.417-1.172-.091-1.165 1.708 0 1.8"/>
        <path fill="#3850A2" d="M13.941 128.058c3.806.63 7.606 1.1 11.215-.474 1.093-.476.14-1.962-.95-1.488-3.098 1.351-6.516.839-9.764.3-1.184-.196-1.692 1.464-.5 1.662M3.55 98.374c3.71.157 9.045 1.403 11.182-2.469 1.969-3.566 2.68-8.57 1.478-12.442-.346-1.115-2.143-.64-1.795.483 1.014 3.268.351 6.706-.81 9.866-1.489 4.057-6.5 2.897-10.055 2.747-1.198-.05-1.195 1.765 0 1.815"/>
        <path fill="#3850A2" d="M1.998 89.463c1.53 1.759 3.312 3.283 5.355 4.474 1.351.787 3.943 2.383 5.606 2.067 1.707-.324 1.175-2.067.82-3.233-.87-2.85-2.049-5.647-3.069-8.451-.39-1.076-2.182-.613-1.786.474l1.97 5.417c.324.891.665 1.779.971 2.678.131.353.247.713.345 1.077.433.356.296.368-.41.036-3.253-.608-6.46-3.465-8.491-5.8-.767-.881-2.071.386-1.31 1.26M15.257 79.335c1.465 1.77 3.226 3.176 5.307 4.108 1.277.572 3.404 1.49 4.83 1.015 1.449-.483 2.032-2.69 2.37-4.042.59-2.363.55-4.85.504-7.27-.023-1.187-1.823-1.191-1.8 0 .044 2.243.62 9.086-2.458 9.458-1.115.134-2.934-.892-3.83-1.407-1.422-.816-2.601-1.901-3.65-3.17-.75-.906-2.02.406-1.273 1.308"/>
        <path fill="#3850A2" d="M21.684 73.656c1.676 2.808 2.703 5.861 3.013 9.156l1.555-.67a53.964 53.964 0 0 1-7.946-8.192c-.74-.944-2.023.402-1.288 1.34a53.924 53.924 0 0 0 7.946 8.191c.54.45 1.64.238 1.555-.67-.34-3.627-1.41-7.01-3.262-10.111-.617-1.033-2.194-.084-1.573.956M30.185 77.117c1.076 1.894 3.293 3.353 4.945 4.753 1.232 1.041 2.81 3.12 4.625 2.653.31-.08.581-.333.659-.638.908-3.567-.766-8.066-2.474-11.175-.57-1.039-2.198-.117-1.628.92 1.452 2.644 3.063 6.708 2.283 9.77l.659-.638c-.656.17-3.558-2.836-3.995-3.217-1.126-.979-2.706-2.047-3.446-3.349-.584-1.03-2.214-.11-1.628.921M42.497 68.046c1.06 2.844 2.715 5.318 4.587 7.728.907 1.168 1.874 2.876 3.029 3.82.414.34.542.586 1.155.59a.931.931 0 0 0 .797-.44c1.723-2.918 1.838-7.661 1.867-10.928.008-1.144-1.836-1.145-1.845 0-.018 2.119-.186 4.205-.608 6.29-.111.543-.289 2.671-.75 2.975l.47-.023c-.34-.426-.677-.852-1.016-1.278-2.291-2.884-4.617-5.75-5.907-9.206-.4-1.069-2.182-.608-1.78.472"/>
        <path fill="#3850A2" d="M51.28 77.57a22.554 22.554 0 0 0-1.991-9.267c-.46-1.027-1.915-.133-1.459.891 1.184 2.653 1.758 5.452 1.76 8.376.001 1.135 1.69 1.137 1.69 0M54.166 83.485c-.706 3.612-.018 10.813 4.873 11.628 2.293.382 4.385-1.466 6.057-2.718 2.468-1.85 3.61-3.99 5.448-6.312.736-.932-.9-1.84-1.628-.92-.984 1.243-1.646 2.665-2.726 3.846-1.134 1.238-2.571 2.229-3.97 3.161-1.169.779-1.014.74-2.747.46-1.972-.318-2.47-1.077-3.117-2.828-.699-1.894-.755-3.87-.372-5.832.224-1.146-1.594-1.637-1.818-.485"/>
        <path fill="#3850A2" d="M60.552 93.395c-.527-3.84-.11-7.549 1.274-11.195.43-1.133-1.476-1.622-1.903-.497-1.441 3.793-1.894 7.692-1.345 11.692.162 1.176 2.138 1.191 1.974 0M80.458 19.376c.32 4.23 1.485 11.152 6.142 12.91 4.973 1.878 8.262-5.099 10.485-8.185.687-.954-.906-1.862-1.587-.916-1.863 2.586-5.843 10.343-9.756 6.2-2.42-2.563-3.19-6.613-3.446-10.009-.087-1.158-1.926-1.167-1.838 0"/>
        <path fill="#3850A2" d="M86.644 20.66l.147 9.21c.005.298.163.643.445.778 1.754.84 2.448-1.27 3.09-2.538l4.17-8.24c.521-1.032-1.027-1.946-1.55-.91l-2.538 5.016-1.088 2.15c-.396.78-.999 2.68-1.785 3.108h.905l-.298-.143.444.779-.147-9.21c-.019-1.16-1.813-1.163-1.795 0M43.646 13.175c3.175 2.437 7.632 7.376 12.24 5.96 4.436-1.364 6.55-7.114 7.728-10.967.343-1.121-1.466-1.601-1.808-.482-.898 2.932-2.335 7.241-5.207 8.987-4.166 2.535-8.623-2.476-11.627-4.782-.936-.718-2.272.558-1.326 1.284"/>
        <path fill="#3850A2" d="M46.953 8.108c1.094 2.273 2.664 4.263 4.734 5.832 1.552 1.178 4.166 2.949 6.27 2.792.427-.032.788-.256.913-.655.531-1.692.271-3.848.314-5.605.058-2.322.064-4.644.037-6.967-.014-1.147-1.908-1.15-1.894 0 .023 2.013.023 4.026-.016 6.039-.036 1.818.28 4.314-.267 6.058l.913-.654c-1.91.142-4.584-1.905-5.873-3.04-1.522-1.339-2.64-2.923-3.496-4.7-.502-1.046-2.135-.14-1.635.9"/>
        <path fill="#3850A2" d="M51.408 4.008A72.064 72.064 0 0 1 56.59 15.24c.394 1.095 2.101.621 1.702-.487a74.885 74.885 0 0 0-5.36-11.67c-.577-1.013-2.103-.094-1.524.925M27.572 42.908c2.3 3.373 7.442 8.678 12.04 6.996 2.19-.803 2.802-2.685 3.345-4.785.905-3.5 1.094-7.136 1.248-10.734.051-1.203-1.805-1.2-1.857 0-.157 3.656.257 9.788-2.254 12.69-3.195 3.696-8.97-2.254-10.919-5.11-.673-.986-2.283-.052-1.603.943"/>
        <path fill="#3850A2" d="M31.017 39.768c1.691 3.986 5.313 5.948 9.153 7.717.59.272 1.417-.042 1.383-.772-.211-4.49-1.357-8.755-3.421-12.776-.529-1.03-2.115-.124-1.587.903a28.608 28.608 0 0 1 3.17 11.873l1.383-.772c-3.29-1.516-6.836-3.176-8.308-6.648-.445-1.049-2.224-.589-1.773.475M44.48 40.696c2.581 2.548 5.06 5.312 7.822 7.668.952.81 2.817 2.528 4.144 1.587 1.366-.97.93-4.656.987-6.017.144-3.373-.135-6.635-1.298-9.825-.402-1.102-2.205-.627-1.8.487.801 2.195 1.204 4.42 1.268 6.753a39.466 39.466 0 0 1-.058 3.103c-.024.468.05 2.73-.24 3.102-.822 1.059-3.875-2.598-4.619-3.332l-4.887-4.82c-.848-.837-2.168.457-1.32 1.294"/>
        <path fill="#3850A2" d="M49.544 36.363a39.948 39.948 0 0 0 5.238 11.676c.646.982 2.303.081 1.654-.907a38.318 38.318 0 0 1-5.046-11.246c-.298-1.121-2.146-.646-1.846.477M144.112 122.48c2.356 0 2.36-3.525 0-3.525-2.355 0-2.36 3.525 0 3.525M144.996 116.311c2.356 0 2.36-3.524 0-3.524-2.355 0-2.36 3.524 0 3.524M146.765 110.143c2.355 0 2.36-3.524 0-3.524-2.356 0-2.36 3.524 0 3.524M142.344 104.857c2.355 0 2.36-3.525 0-3.525-2.355 0-2.36 3.525 0 3.525M152.07 68.73c2.355 0 2.36-3.525 0-3.525-2.356 0-2.36 3.525 0 3.525M158.258 67.848c2.356 0 2.36-3.524 0-3.524-2.355 0-2.36 3.524 0 3.524M163.563 72.254c2.355 0 2.36-3.524 0-3.524-2.356 0-2.36 3.524 0 3.524"/>
        <g transform="translate(165.331 72.254)">
            <mask id="b" fill="#fff">
                <use xlink:href="#a"/>
            </mask>
            <path fill="#3850A2" d="M2.393 3.525c2.37 0 2.375-3.525 0-3.525-2.37 0-2.374 3.525 0 3.525" mask="url(#b)"/>
        </g>
        <path fill="#3850A2" d="M136.155 71.373c2.356 0 2.36-3.525 0-3.525-2.355 0-2.36 3.525 0 3.525M144.112 74.016c2.356 0 2.36-3.524 0-3.524-2.355 0-2.36 3.524 0 3.524M147.649 78.422c2.355 0 2.36-3.524 0-3.524-2.356 0-2.36 3.524 0 3.524M88.412 78.422c2.356 0 2.36-3.524 0-3.524-2.355 0-2.36 3.524 0 3.524M94.601 74.898c2.356 0 2.36-3.525 0-3.525-2.355 0-2.36 3.525 0 3.525M99.906 74.898c2.355 0 2.36-3.525 0-3.525-2.355 0-2.36 3.525 0 3.525M105.21 56.393c2.356 0 2.36-3.524 0-3.524-2.355 0-2.36 3.524 0 3.524M111.4 58.156c2.355 0 2.36-3.525 0-3.525-2.356 0-2.36 3.525 0 3.525M115.82 62.561c2.356 0 2.36-3.524 0-3.524-2.355 0-2.36 3.524 0 3.524M112.284 52.869c2.355 0 2.36-3.525 0-3.525-2.356 0-2.36 3.525 0 3.525M116.704 47.582c2.356 0 2.36-3.525 0-3.525-2.355 0-2.36 3.525 0 3.525M124.661 47.582c2.356 0 2.36-3.525 0-3.525-2.355 0-2.36 3.525 0 3.525M128.198 57.275c2.355 0 2.36-3.525 0-3.525-2.355 0-2.36 3.525 0 3.525M129.966 48.463c2.356 0 2.36-3.524 0-3.524-2.355 0-2.36 3.524 0 3.524M138.807 50.225c2.356 0 2.36-3.524 0-3.524-2.355 0-2.36 3.524 0 3.524M141.46 54.631c2.355 0 2.36-3.524 0-3.524-2.356 0-2.36 3.524 0 3.524M144.996 57.275c2.356 0 2.36-3.525 0-3.525-2.355 0-2.36 3.525 0 3.525M107.863 38.77c2.356 0 2.36-3.524 0-3.524-2.355 0-2.36 3.524 0 3.524M100.79 35.246c2.356 0 2.36-3.525 0-3.525-2.355 0-2.36 3.525 0 3.525M97.254 30.84c2.355 0 2.36-3.524 0-3.524-2.356 0-2.36 3.524 0 3.524M91.065 35.246c2.355 0 2.36-3.525 0-3.525-2.356 0-2.36 3.525 0 3.525M97.254 23.791c2.355 0 2.36-3.525 0-3.525-2.356 0-2.36 3.525 0 3.525M94.601 19.385c2.356 0 2.36-3.524 0-3.524-2.355 0-2.36 3.524 0 3.524M87.528 20.266c2.356 0 2.36-3.524 0-3.524-2.355 0-2.36 3.524 0 3.524M81.34 19.385c2.355 0 2.36-3.524 0-3.524-2.356 0-2.36 3.524 0 3.524M62.773 7.93c2.355 0 2.36-3.524 0-3.524-2.356 0-2.36 3.524 0 3.524M57.468 3.525c2.356 0 2.36-3.525 0-3.525-2.355 0-2.36 3.525 0 3.525M51.28 4.406c2.355 0 2.36-3.525 0-3.525-2.356 0-2.36 3.525 0 3.525M47.743 9.693c2.355 0 2.36-3.525 0-3.525-2.356 0-2.36 3.525 0 3.525M43.322 14.098c2.356 0 2.36-3.524 0-3.524-2.355 0-2.36 3.524 0 3.524M43.322 34.365c2.356 0 2.36-3.525 0-3.525-2.355 0-2.36 3.525 0 3.525M37.133 35.246c2.356 0 2.36-3.525 0-3.525-2.355 0-2.36 3.525 0 3.525M31.828 39.652c2.356 0 2.36-3.525 0-3.525-2.355 0-2.36 3.525 0 3.525M28.292 43.176c2.355 0 2.36-3.524 0-3.524-2.355 0-2.36 3.524 0 3.524M45.09 41.414c2.356 0 2.36-3.525 0-3.525-2.355 0-2.36 3.525 0 3.525M50.395 37.89c2.356 0 2.36-3.525 0-3.525-2.355 0-2.36 3.524 0 3.524M54.816 35.246c2.355 0 2.36-3.525 0-3.525-2.356 0-2.36 3.525 0 3.525M61.005 83.709c2.355 0 2.36-3.525 0-3.525-2.356 0-2.36 3.525 0 3.525M70.73 86.352c2.355 0 2.36-3.524 0-3.524-2.356 0-2.36 3.524 0 3.524M55.7 84.59c2.355 0 2.36-3.524 0-3.524-2.356 0-2.36 3.524 0 3.524M53.047 69.61c2.356 0 2.36-3.524 0-3.524-2.355 0-2.36 3.525 0 3.525"/>
        <path fill="#3850A2" d="M48.627 69.61c2.355 0 2.36-3.524 0-3.524-2.356 0-2.36 3.525 0 3.525M43.322 68.73c2.356 0 2.36-3.525 0-3.525-2.355 0-2.36 3.525 0 3.525M36.25 74.016c2.355 0 2.359-3.524 0-3.524-2.356 0-2.36 3.524 0 3.524M30.944 77.541c2.356 0 2.36-3.525 0-3.525-2.355 0-2.36 3.525 0 3.525M27.408 74.016c2.355 0 2.36-3.524 0-3.524-2.356 0-2.36 3.524 0 3.524"/>
        <path fill="#3850A2" d="M22.987 74.016c2.356 0 2.36-3.524 0-3.524-2.355 0-2.36 3.524 0 3.524M17.682 74.898c2.356 0 2.36-3.525 0-3.525-2.355 0-2.36 3.525 0 3.525M15.914 80.184c2.356 0 2.36-3.524 0-3.524-2.355 0-2.36 3.524 0 3.524M15.914 86.352c2.356 0 2.36-3.524 0-3.524-2.355 0-2.36 3.524 0 3.524M9.725 86.352c2.356 0 2.36-3.524 0-3.524-2.355 0-2.36 3.524 0 3.524"/>
        <g transform="translate(0 86.352)">
            <mask id="d" fill="#fff">
                <use xlink:href="#c"/>
            </mask>
            <path fill="#3850A2" d="M1.708 3.793c2.275 0 2.28-3.671 0-3.671-2.275 0-2.28 3.671 0 3.671" mask="url(#d)"/>
        </g>
        <path fill="#3850A2" d="M2.652 99.57c2.356 0 2.36-3.525 0-3.525-2.355 0-2.36 3.525 0 3.525M12.378 134.816c2.355 0 2.36-3.525 0-3.525-2.356 0-2.36 3.525 0 3.525M12.378 128.648c2.355 0 2.36-3.525 0-3.525-2.356 0-2.36 3.525 0 3.525M14.146 119.836c2.355 0 2.36-3.525 0-3.525-2.355 0-2.36 3.525 0 3.525"/>
        <g>
            <g transform="translate(171.881 56.393)">
                <mask id="f" fill="#fff">
                    <use xlink:href="#e"/>
                </mask>
                <path fill="#3850A2" d="M36.435 3.72c.536 1.256 1.778 6.542-4.927 21.934-6.409 14.713 3.24 35.773 5.626 40.569 3.458-4.517 17.43-24.48 10.367-43.704-7.454-20.288-8.566-20.261-9.633-20.257-.15.002-.305.004-.466-.006-.297-.009-.434.077-.521.16-.315.3-.42.943-.446 1.304M1.684 157.89l-1.02-1.439c.103-.073 10.428-7.502 19.892-22.098C29.262 120.925 39 98.507 36.01 67.903c-1.264-2.373-13.465-26.086-6.118-42.954 7.06-16.21 4.917-20.551 4.894-20.594l-.1-.187-.02-.24c-.003-.185-.004-1.824.99-2.78.485-.468 1.13-.7 1.845-.652.119.007.232.004.344.002 2.28-.023 3.426-.048 11.31 21.412 3.46 9.418 2.575 20.436-2.56 31.862-3.635 8.093-8.113 13.632-8.784 14.442 2.893 30.9-6.985 53.563-15.82 67.166-9.648 14.855-19.877 22.206-20.307 22.51" mask="url(#f)"/>
            </g>
            <g transform="translate(208.018 107.552)">
                <mask id="h" fill="#fff">
                    <use xlink:href="#g"/>
                </mask>
                <path fill="#3850A2" d="M2.385 26.428c2.02 1.989 4.12 2.731 6.408 2.267C16.622 27.116 23.884 12.427 26.021 6.9l.506-1.297c.574-1.47 1.122-2.875 1.284-3.583-.69.173-2.04.731-3.454 1.314a178.872 178.872 0 0 1-5.023 2.009C9.437 9.106 3.19 20.795 2.385 22.368v4.06zm5.116 4.165c-2.363 0-4.588-1.068-6.632-3.19l-.246-.257v-5.189l.088-.181C.982 21.214 7.492 7.96 18.709 3.694a182.152 182.152 0 0 0 4.975-1.99C27.097.294 28.374-.233 29.212.59c.842.827.367 2.043-1.043 5.654l-.503 1.294C24.887 14.722 17.44 28.752 9.141 30.425c-.553.112-1.1.168-1.64.168z" mask="url(#h)"/>
            </g>
            <path fill="#3850A2" d="M200.766 177.41c-19.314-6.15-23.52-25.79-24.9-32.242-.923-4.31-.805-6.738.373-7.642.623-.477 1.337-.376 1.735-.215 20.504 5.407 26.387 31.553 26.444 31.815l-1.723.374c-.056-.253-5.733-25.408-25.235-30.5l-.18-.069c.007.015-.789.743.31 5.866 2.305 10.772 7.272 25.697 23.71 30.93l-.534 1.682zM208.83 131.75c-30.657-1.8-32.434-17.156-33.39-25.407a82.28 82.28 0 0 0-.18-1.486c-.325-2.396-.07-3.801.829-4.555 1.17-.981 2.873-.436 4.845.192 1.327.424 2.833.905 4.26.937 1.491.033 4.6 1.302 14.342 11.887 5.263 5.721 9.981 11.504 10.028 11.561l-1.365 1.115c-7.151-8.776-19.73-22.726-23.044-22.8-1.683-.037-3.316-.56-4.757-1.019-1.29-.412-2.747-.876-3.176-.522-.13.11-.53.646-.215 2.967.063.47.122.98.185 1.52.895 7.736 2.562 22.136 31.74 23.85l-.102 1.76z"/>
            <path fill="#3850A2" d="M222.36 181.607c-9.093 0-18.084-4.589-20.474-8.523l1.507-.916c2.455 4.043 13.416 9.02 22.943 7.338 4.184-.735 6.512-1.807 6.92-3.183.416-1.408-1.02-3.623-4.393-6.769-6.116-5.706-23.477-3.29-23.652-3.264l-.25-1.747c.747-.106 18.373-2.558 25.103 3.72 4.02 3.75 5.525 6.39 4.882 8.561-.631 2.13-3.27 3.535-8.304 4.421-1.413.248-2.85.362-4.282.362"/>
            <g transform="translate(171 87.265)">
                <mask id="j" fill="#fff">
                    <use xlink:href="#i"/>
                </mask>
                <path fill="#3850A2" d="M2.129 4.941c2.835 0 2.84-4.41 0-4.41-2.836 0-2.841 4.41 0 4.41" mask="url(#j)"/>
            </g>
            <path fill="#3850A2" d="M210.085 133.09c4.903-.408 8.117-2.757 11.08-6.591 4.54-5.88 9.505-11.123 15.404-15.667 1.109-.853.012-2.77-1.112-1.904-4.069 3.134-7.874 6.547-11.296 10.384-4.187 4.695-7.094 10.992-14.076 11.572-1.403.118-1.415 2.324 0 2.205M207.976 59.291c4.44 10.884 3.562 23.726 1.707 35.108-1.542 9.465-4.94 18.847-1.812 28.361.442 1.343 2.57.768 2.125-.585-3.493-10.627 1.333-21.878 2.558-32.543C213.73 79.4 214.056 68.4 210.1 58.705c-.529-1.296-2.662-.73-2.125.586M176.153 102.19c4.373 6.03 9.65 11.18 15.238 16.074 5.126 4.49 10.792 7.715 16.403 11.562 1.172.805 2.276-1.106 1.112-1.903-5.433-3.727-10.994-6.87-15.957-11.218-5.44-4.764-10.634-9.755-14.893-15.629-.825-1.138-2.737-.039-1.903 1.113M176.51 139.575c7.805 10.79 11.103 28.335 25.346 32.925 1.354.436 1.933-1.692.586-2.126-6.264-2.019-11.856-8.657-14.553-14.502-2.817-6.104-5.507-11.924-9.475-17.41-.824-1.14-2.737-.04-1.903 1.113M203.929 170.576c3.944 2.07 8.325 2.446 12.673 3.1l16.35 2.457c1.386.208 1.985-1.916.585-2.126l-14.628-2.2c-4.625-.695-9.66-.925-13.868-3.135-1.255-.658-2.37 1.244-1.112 1.904"/>
        </g>
    </g>
</svg>
