<svg xmlns="http://www.w3.org/2000/svg" xmlns:xlink="http://www.w3.org/1999/xlink" width="231" height="241" viewBox="0 0 231 241">
    <defs>
        <path id="a" d="M.833 0h4.83v5H.833z"/>
        <path id="c" d="M0 .166h4.83v5H0z"/>
    </defs>
    <g fill="none" fill-rule="evenodd">
        <path fill="#3850A2" d="M132.248 294.167a1 1 0 0 1-.955-.705c-.17-.551-17.061-55.639-19.044-100.251-2.006-45.152-3.944-74.191-17.888-101.084a1 1 0 1 1 1.775-.92c14.137 27.265 16.092 56.489 18.112 101.916 1.97 44.358 18.786 99.2 18.956 99.749a1 1 0 0 1-.956 1.295"/>
        <path fill="#3850A2" d="M120.972 249.62a.932.932 0 0 1-.181-.017c-.361-.065-36.033-6.929-36.542-35.419-.487-27.293-20.027-48.12-20.224-48.328a1 1 0 1 1 1.448-1.379c.203.213 20.274 21.607 20.776 49.672.479 26.847 34.558 33.424 34.903 33.488a.999.999 0 0 1-.18 1.983M112.714 182.669a1.001 1.001 0 0 1-.498-1.868c13.561-7.768 36.921-50.187 37.155-50.614a1 1 0 0 1 1.77.03c14.11 27.982 30.052 21.803 30.723 21.527a1 1 0 0 1 .772 1.845c-.177.076-17.599 6.995-32.419-20.809-4.523 8.065-24.355 42.51-37.007 49.757a1.005 1.005 0 0 1-.496.132"/>
        <path fill="#3850A2" d="M152.5 132.7c-.817 0-1.624-.065-2.422-.204a1.002 1.002 0 0 1-.491-1.735c.19-.168 19.237-17.184 31.743-46.363a1 1 0 1 1 1.837.787c-10.525 24.562-25.646 40.645-30.611 45.516 13.379-.038 29.992-20.2 30.168-20.416a1 1 0 1 1 1.549 1.264c-.742.91-17.433 21.151-31.773 21.151"/>
        <path fill="#3850A2" d="M150.248 131.667l-.057-.002c-9.209-.525-17.84-16.718-18.203-17.407a1 1 0 0 1 1.77-.932c.077.147 7.25 13.606 14.723 15.993-3.255-6.908-13.819-31.372-5.24-41.305a1 1 0 1 1 1.514 1.306c-8.958 10.372 6.23 40.59 6.385 40.894a1 1 0 0 1-.892 1.453"/>
        <path fill="#3850A2" d="M150.248 131.667a1 1 0 0 1-.864-1.503c7.118-12.246 11.578-46.776 11.622-47.123a1 1 0 1 1 1.984.252c-.181 1.435-4.555 35.28-11.877 47.877a1 1 0 0 1-.865.497M96.01 92.265c-.37 0-.74-.013-1.11-.037-1.03-.07-1.987-.13-2.876-.185-12.294-.768-12.524-.892-24.6-13.231-3.176-3.243-7.127-7.28-12.376-12.431a1 1 0 0 1 1.4-1.428c5.265 5.166 9.223 9.21 12.404 12.46C80.506 89.32 80.506 89.32 92.148 90.047c.893.056 1.851.115 2.886.185C112.787 91.438 127.94 58.83 128.09 58.5a1 1 0 1 1 1.818.832c-.039.085-3.96 8.584-10.128 16.809-8.029 10.705-16.02 16.123-23.77 16.123"/>
        <path fill="#3850A2" d="M94.968 92.23a.998.998 0 0 1-.897-.558c-3.018-6.1-18.186-24.18-18.338-24.361a1 1 0 1 1 1.531-1.288c.63.752 15.475 18.449 18.6 24.764a1 1 0 0 1-.896 1.442"/>
        <path fill="#3850A2" d="M95.873 91.042a.997.997 0 0 1-.987-.84c-.08-.491-8.106-49.255-21.132-63.741a1 1 0 0 1 1.488-1.338c12.292 13.671 19.93 54.943 21.378 63.329 10.942-7.511 20.311-44.886 20.407-45.275a1 1 0 0 1 1.942.48c-.418 1.688-10.38 41.401-22.664 47.286a.982.982 0 0 1-.432.099M64.748 165.48h-.027c-13.46-.364-25.622-9.405-33.454-16.926-8.43-8.095-13.802-16.224-13.855-16.304a1 1 0 0 1 1.672-1.099c.207.315 20.9 31.4 45.38 32.319 2.192-1.488 18.41-13.3 16.454-35.55a1 1 0 0 1 1.993-.174c2.194 24.99-17.438 37.46-17.636 37.584-.159.097-.34.15-.527.15"/>
        <path fill="#3850A2" d="M64.554 164.737c-.195 0-.39-.053-.557-.163-1.2-.796-11.596-17.462-13.869-24.604-2.255-7.09-15.548-25.027-15.682-25.207a1 1 0 0 1 1.605-1.193c.555.747 13.627 18.386 15.983 25.794 1.883 5.916 8.882 17.337 11.868 21.806.338-7.962-.938-34.533-11.66-46.976a.999.999 0 0 1 .104-1.41.998.998 0 0 1 1.41.105c12.946 15.023 12.986 49.916 11.587 51.503a1.058 1.058 0 0 1-.789.345"/>
        <path fill="#3850A2" d="M41.038 174.012c-4.54 0-7.914-.471-8.267-.522a1 1 0 0 1 .288-1.98c.218.03 21.786 3.032 29.951-6.493 8.268-9.647 5.89-55.087 5.865-55.545a1 1 0 0 1 .944-1.053c.55-.06 1.023.392 1.053.944.104 1.902 2.441 46.706-6.344 56.955-5.512 6.43-16.06 7.694-23.49 7.694M174.368 139.47c-7.752.002-16-2.655-24.642-7.95a1.001 1.001 0 0 1 1.045-1.705c12.192 7.468 23.493 9.483 33.59 5.984 16.45-5.701 24.813-24.468 26.232-27.93-4.626-5.478-4.837-14.94-4.844-15.352a1.001 1.001 0 0 1 .983-1.017c.534.003 1.007.43 1.017.983 0 .096.22 9.68 4.73 14.5a.998.998 0 0 1 .208 1.03c-.346.94-8.705 23.097-27.661 29.672a32.316 32.316 0 0 1-10.658 1.786"/>
        <path fill="#3850A2" d="M215.096 109.151c-1.147 0-2.357-.158-3.625-.523a1.001 1.001 0 0 1 .555-1.922c7.907 2.283 13.528-5.223 13.584-5.298a1 1 0 0 1 1.611 1.183c-.226.308-4.915 6.56-12.125 6.56M192.807 140.398c-4.93 2.416-11.068 8.094-9.962 14.154 1.08 5.912 6.365 11.212 12.398 11.477 1.608.07 1.605-2.43 0-2.5-4.842-.213-10.177-5.56-10.076-10.67.082-4.212 5.55-8.659 8.902-10.302 1.445-.708.179-2.865-1.262-2.159"/>
        <path fill="#3850A2" d="M184.167 153.32c4.285-2.109 8.812-3.248 13.583-3.439 1.603-.064 1.61-2.564 0-2.499-5.214.208-10.164 1.475-14.845 3.78-1.443.71-.178 2.866 1.262 2.157"/>
        <path fill="#3850A2" d="M183.73 153.528c1.581 1.267 3.151 2.438 5.133 2.99 2.255.627 4.728.675 7.052.747 1.61.051 1.607-2.45 0-2.5-3.97-.123-7.238-.458-10.418-3.005-1.244-.996-3.024.762-1.768 1.768M183.194 97.533c-1 4.475-4.248 11.691 1.782 13.923 5.51 2.038 10.378-1.818 14.017-5.459 1.139-1.14-.628-2.907-1.767-1.768-2.467 2.467-5.407 5.414-9.197 5.21-1.642-.088-2.733-.35-3.558-1.77-.817-1.407-.481-2.172-.167-3.652.412-1.944.867-3.88 1.3-5.82.35-1.567-2.058-2.236-2.41-.664"/>
        <path fill="#3850A2" d="M185.455 110.486a49.535 49.535 0 0 0 9.727-9.756c.968-1.286-1.202-2.533-2.159-1.262a45.27 45.27 0 0 1-8.83 8.86c-1.266.96-.022 3.131 1.262 2.158M175.55 64.083c-.354 7.274.186 17.514 7.784 21.248 5.531 2.719 13.737-1.956 14.514-7.915.208-1.591-2.294-1.576-2.5 0-.43 3.311-4.635 5.651-7.63 6.044-3.39.445-6.075-2.129-7.666-4.905-2.344-4.092-2.225-9.892-2.002-14.472.078-1.607-2.422-1.604-2.5 0M121.07 107.991c3.126 3.758 7.745 8.33 13.114 6.115 5.14-2.12 4.355-8.947 3.928-13.434-.15-1.587-2.652-1.603-2.5 0 .318 3.35 1.408 10.076-2.886 11.31-4.165 1.195-7.567-2.968-9.889-5.759-1.03-1.238-2.79.54-1.768 1.768"/>
        <path fill="#3850A2" d="M133.607 113.174c.2-3.956.117-7.98-2.743-11.021-1.104-1.175-2.87.595-1.768 1.767 2.359 2.51 2.174 6.045 2.01 9.254-.081 1.607 2.419 1.604 2.5 0M142.789 76.417c-2.383 3.91-3.835 10.913 1.253 13.387 5.192 2.524 9.845-1.723 13.202-5.213 1.115-1.16-.65-2.931-1.768-1.768-2.344 2.437-5.213 5.718-8.968 5.125-5.072-.8-3.418-7.221-1.56-10.269.839-1.378-1.322-2.636-2.159-1.262"/>
        <path fill="#3850A2" d="M146.12 87.436c.263-3.079 2.684-5.363 4.796-7.378 1.166-1.113-.605-2.88-1.768-1.768-2.672 2.55-5.2 5.306-5.529 9.146-.137 1.603 2.363 1.594 2.5 0M151.586 73.323c1.323 2.8 3.817 4.42 6.2 6.283 1.754 1.372 3.468 2.938 5.687 3.46 5.134 1.21 9.118-2.774 11.981-6.458.976-1.256-.78-3.037-1.767-1.767-2.88 3.706-6.34 7.505-11.57 4.92-2.71-1.34-7.059-4.919-8.372-7.7-.687-1.453-2.844-.186-2.159 1.262"/>
        <path fill="#3850A2" d="M158.105 65.18c-.624 5.55.784 10.94 4.029 15.485.545.764 1.628.843 2.158 0 3.099-4.923 5.963-9.876 6.494-15.78.143-1.602-2.357-1.593-2.5 0-.487 5.414-3.322 10.02-6.152 14.519h2.158c-3.03-4.242-4.27-9.04-3.687-14.223.18-1.596-2.322-1.583-2.5 0M184.091 82.31c-.808-5.451.731-10.813 4.265-15.032 1.027-1.226-.733-3.003-1.768-1.768-4.168 4.976-5.858 11.049-4.908 17.465.235 1.586 2.644.912 2.411-.664"/>
        <path fill="#3850A2" d="M184.398 83.538a18.7 18.7 0 0 0 8.803-8.552c.723-1.432-1.433-2.7-2.158-1.26-1.728 3.424-4.431 6.032-7.907 7.654-1.456.68-.188 2.835 1.262 2.158M213.556 106.91c-.444-5.204.453-10.176 2.784-14.855.716-1.436-1.44-2.705-2.159-1.262-2.52 5.06-3.606 10.48-3.125 16.117.136 1.592 2.637 1.606 2.5 0"/>
        <path fill="#3850A2" d="M213.84 107.193a42.738 42.738 0 0 0 8.65-8.46c.982-1.275-1.19-2.52-2.157-1.263a38.627 38.627 0 0 1-7.754 7.564c-1.284.941-.038 3.112 1.262 2.16M122.84 45.934c-.618 4.965 1.675 11.59 6.966 13.19 5.537 1.674 12.342-2.624 16.144-6.25 1.167-1.111-.603-2.878-1.768-1.766-2.914 2.779-6.842 5.342-10.989 5.64-5.997.43-8.488-5.71-7.853-10.814.198-1.592-2.304-1.578-2.5 0"/>
        <path fill="#3850A2" d="M130.025 56.822c-.725-4.869.054-9.65 2.237-14.059.711-1.437-1.444-2.705-2.159-1.26-2.508 5.062-3.32 10.398-2.489 15.983.237 1.586 2.646.912 2.411-.664"/>
        <path fill="#3850A2" d="M130.416 58.3c3.574-2.564 6.17-5.957 7.705-10.08.563-1.51-1.853-2.161-2.41-.664a18.453 18.453 0 0 1-6.557 8.586c-1.295.929-.049 3.098 1.262 2.158M20.506 163.877c4.456.355 13.243 5.729 10.412 10.928-2.252 4.135-7.998 6.066-12.415 6.1-1.608.013-1.612 2.513 0 2.5 5.743-.044 15.18-3.484 15.717-10.335.49-6.254-8.431-11.272-13.714-11.693-1.604-.127-1.595 2.373 0 2.5"/>
        <path fill="#3850A2" d="M18.576 174.774c5.056.916 10.103 1.596 14.898-.687 1.452-.69.185-2.847-1.262-2.159-4.116 1.96-8.656 1.217-12.97.435-1.574-.285-2.249 2.124-.666 2.411M4.743 134.64c4.983.216 12.15 1.933 15.02-3.401 2.644-4.913 3.6-11.805 1.985-17.14-.465-1.536-2.879-.881-2.41.665 1.361 4.503.471 9.238-1.088 13.592-2 5.588-8.73 3.99-13.507 3.784-1.609-.07-1.605 2.43 0 2.5"/>
        <path fill="#3850A2" d="M2.36 122.994c2.063 2.467 4.466 4.604 7.223 6.274 1.822 1.104 5.32 3.342 7.562 2.9 2.302-.456 1.585-2.9 1.105-4.535-1.173-3.997-2.763-7.918-4.139-11.85-.527-1.509-2.944-.859-2.41.665l2.658 7.595c.437 1.25.897 2.495 1.31 3.755.177.496.333 1 .466 1.511.583.5.398.516-.555.05-4.387-.852-8.714-4.858-11.453-8.133-1.034-1.235-2.794.541-1.768 1.768M20.606 108.548c2.035 2.396 4.48 4.297 7.373 5.559 1.774.774 4.728 2.016 6.71 1.373 2.012-.654 2.822-3.641 3.29-5.47.822-3.197.767-6.562.702-9.836-.032-1.606-2.532-1.612-2.5 0 .06 3.035.86 12.294-3.415 12.797-1.55.182-4.077-1.207-5.322-1.903-1.974-1.104-3.613-2.573-5.07-4.29-1.043-1.226-2.805.549-1.768 1.77"/>
        <path fill="#3850A2" d="M30.024 100.638c2.3 3.708 3.71 7.739 4.134 12.089l2.134-.884a72.583 72.583 0 0 1-10.902-10.816c-1.016-1.247-2.776.53-1.767 1.768a72.53 72.53 0 0 0 10.901 10.816c.742.593 2.251.313 2.134-.884-.467-4.79-1.935-9.257-4.475-13.351-.847-1.364-3.01-.11-2.159 1.262M40.785 104.827c1.426 2.594 4.365 4.593 6.555 6.51 1.632 1.427 3.725 4.275 6.131 3.634.411-.11.77-.456.873-.873 1.204-4.886-1.015-11.049-3.279-15.309-.755-1.422-2.914-.16-2.158 1.262 1.924 3.621 4.06 9.188 3.026 13.381l.873-.873c-.87.233-4.716-3.885-5.295-4.406-1.493-1.34-3.587-2.805-4.568-4.588-.775-1.41-2.935-.15-2.158 1.262M57.816 92.818c1.438 4 3.68 7.478 6.216 10.866 1.23 1.643 2.54 4.045 4.105 5.372.561.477.735.824 1.566.83.436.004.864-.24 1.08-.619 2.335-4.103 2.491-10.773 2.53-15.366.011-1.609-2.489-1.61-2.5 0-.025 2.98-.253 5.913-.825 8.843-.15.765-.39 3.757-1.015 4.184l.635-.032-1.376-1.797c-3.105-4.056-6.257-8.085-8.005-12.945-.54-1.503-2.957-.855-2.41.664"/>
        <path fill="#3850A2" d="M70.282 106.167c-.004-4.597-1.007-8.972-2.947-13.135-.68-1.456-2.835-.188-2.16 1.263 1.754 3.76 2.604 7.727 2.607 11.872 0 1.608 2.5 1.611 2.5 0M74.006 114.383c-.935 4.954-.023 14.829 6.462 15.947 3.04.524 5.814-2.01 8.03-3.728 3.274-2.536 4.789-5.471 7.225-8.657.977-1.278-1.193-2.524-2.158-1.262-1.305 1.706-2.183 3.656-3.615 5.275-1.503 1.699-3.41 3.057-5.265 4.336-1.55 1.068-1.344 1.015-3.642.63-2.614-.435-3.275-1.476-4.132-3.878-.927-2.597-1.002-5.307-.494-7.998.297-1.572-2.113-2.246-2.411-.665"/>
        <path fill="#3850A2" d="M82.387 127.647c-.668-5.138-.14-10.099 1.613-14.976.546-1.516-1.87-2.17-2.41-.665-1.825 5.075-2.4 10.29-1.703 15.64.205 1.573 2.708 1.593 2.5 0M109.407 26.417c.434 5.826 2.019 15.357 8.354 17.779 6.763 2.586 11.237-7.022 14.26-11.272.935-1.314-1.232-2.564-2.158-1.262-2.534 3.562-7.948 14.244-13.27 8.539-3.292-3.53-4.338-9.108-4.686-13.784-.12-1.595-2.62-1.607-2.5 0"/>
        <path fill="#3850A2" d="M117.69 27.918l.205 12.769c.006.413.227.892.62 1.079 2.442 1.164 3.41-1.76 4.303-3.518l5.808-11.425c.727-1.43-1.429-2.697-2.159-1.261l-3.535 6.954-1.515 2.98c-.55 1.083-1.39 3.716-2.486 4.31h1.261l-.416-.199.62 1.08-.206-12.769c-.026-1.607-2.526-1.612-2.5 0M59.548 17.887c4.233 3.357 10.176 10.16 16.32 8.21 5.913-1.88 8.731-9.8 10.302-15.106.457-1.545-1.955-2.206-2.41-.665-1.197 4.04-3.114 9.975-6.942 12.38-5.554 3.492-11.497-3.411-15.502-6.587-1.248-.99-3.028.768-1.768 1.768"/>
        <path fill="#3850A2" d="M63.549 11.367c1.444 3.185 3.517 5.973 6.249 8.172 2.049 1.65 5.499 4.132 8.277 3.912.564-.045 1.04-.359 1.205-.918.7-2.37.358-5.39.415-7.853.076-3.254.084-6.508.048-9.762-.018-1.608-2.518-1.613-2.5 0 .03 2.82.03 5.64-.021 8.461-.047 2.547.37 6.045-.352 8.49l1.205-.918c-2.521.2-6.051-2.669-7.753-4.259-2.008-1.876-3.485-4.096-4.614-6.587-.663-1.464-2.82-.194-2.16 1.262"/>
        <path fill="#3850A2" d="M69.488 5.656a96.722 96.722 0 0 1 7.338 15.33c.56 1.494 2.976.848 2.411-.664a100.494 100.494 0 0 0-7.59-15.928c-.818-1.384-2.98-.129-2.159 1.262M37.654 58.057c3.098 4.508 10.019 11.599 16.209 9.35 2.949-1.073 3.773-3.588 4.504-6.396 1.219-4.678 1.473-9.538 1.68-14.346.07-1.61-2.43-1.605-2.5 0-.211 4.886.346 13.082-3.034 16.962-4.302 4.939-12.076-3.014-14.7-6.832-.906-1.317-3.074-.07-2.16 1.262"/>
        <path fill="#3850A2" d="M42.004 54.512c2.3 5.57 7.226 8.313 12.449 10.786.803.38 1.928-.058 1.88-1.08-.286-6.276-1.844-12.237-4.652-17.857-.72-1.44-2.876-.174-2.158 1.262 2.615 5.234 4.044 10.753 4.31 16.596l1.882-1.08c-4.474-2.118-9.297-4.44-11.3-9.292-.605-1.466-3.025-.823-2.411.665M60.352 55.563c3.46 3.477 6.78 7.25 10.482 10.468 1.275 1.105 3.775 3.45 5.553 2.165 1.831-1.322 1.246-6.355 1.323-8.213.193-4.604-.18-9.057-1.74-13.411-.539-1.505-2.955-.857-2.41.663 1.072 2.998 1.611 6.035 1.697 9.22a54.877 54.877 0 0 1-.077 4.235c-.033.64.067 3.728-.32 4.234-1.103 1.445-5.195-3.546-6.19-4.548-2.184-2.192-4.367-4.386-6.55-6.58-1.137-1.142-2.905.624-1.768 1.767"/>
        <path fill="#3850A2" d="M66.828 50.3a57.453 57.453 0 0 0 6.839 16.249c.843 1.367 3.006.113 2.159-1.262a55.109 55.109 0 0 1-6.587-15.651c-.39-1.56-2.802-.9-2.411.665M196.373 167.792c3.217 0 3.223-5 0-5-3.217 0-3.223 5 0 5M197.248 159.292c3.217 0 3.223-5 0-5-3.217 0-3.223 5 0 5M199.248 150.917c3.217 0 3.223-5 0-5-3.217 0-3.223 5 0 5M193.748 143.667c3.217 0 3.223-5 0-5-3.217 0-3.223 5 0 5M206.748 94.167c3.217 0 3.223-5 0-5-3.217 0-3.223 5 0 5M215.915 93c3.217 0 3.223-5 0-5-3.217 0-3.223 5 0 5M223.081 99.333c3.217 0 3.223-5 0-5-3.217 0-3.223 5 0 5"/>
        <g transform="translate(225 99.167)">
            <mask id="b" fill="#fff">
                <use xlink:href="#a"/>
            </mask>
            <path fill="#3850A2" d="M3.248 5c3.217 0 3.223-5 0-5-3.217 0-3.223 5 0 5" mask="url(#b)"/>
        </g>
        <path fill="#3850A2" d="M184.915 97.833c3.217 0 3.223-5 0-5-3.217 0-3.223 5 0 5M195.915 101c3.217 0 3.223-5 0-5-3.217 0-3.223 5 0 5M200.415 107c3.217 0 3.223-5 0-5-3.217 0-3.223 5 0 5M120.581 107.5c3.217 0 3.223-5 0-5-3.217 0-3.223 5 0 5M128.915 102.833c3.217 0 3.223-5 0-5-3.217 0-3.223 5 0 5M136.415 102c3.217 0 3.223-5 0-5-3.217 0-3.223 5 0 5M143.748 77.5c3.217 0 3.223-5 0-5-3.217 0-3.223 5 0 5M151.248 80c3.217 0 3.223-5 0-5-3.217 0-3.223 5 0 5M157.748 85.5c3.217 0 3.223-5 0-5-3.217 0-3.223 5 0 5M152.248 73c3.217 0 3.223-5 0-5-3.217 0-3.223 5 0 5M158.415 65.5c3.217 0 3.223-5 0-5-3.217 0-3.223 5 0 5M169.581 65.667c3.217 0 3.223-5 0-5-3.217 0-3.223 5 0 5M174.248 78.833c3.217 0 3.223-5 0-5-3.217 0-3.223 5 0 5M176.748 65.833c3.217 0 3.223-5 0-5-3.217 0-3.223 5 0 5M188.748 68.333c3.217 0 3.223-5 0-5-3.217 0-3.223 5 0 5M192.915 75.167c3.217 0 3.223-5 0-5-3.217 0-3.223 5 0 5"/>
        <path fill="#3850A2" d="M197.248 78.167c3.217 0 3.223-5 0-5-3.217 0-3.223 5 0 5M146.248 53.5c3.217 0 3.223-5 0-5-3.217 0-3.223 5 0 5M137.581 48.833c3.217 0 3.223-5 0-5-3.217 0-3.223 5 0 5M132.081 42.333c3.217 0 3.223-5 0-5-3.217 0-3.223 5 0 5M124.415 48c3.217 0 3.223-5 0-5-3.217 0-3.223 5 0 5M132.581 33.167c3.217 0 3.223-5 0-5-3.217 0-3.223 5 0 5M128.581 26.333c3.217 0 3.223-5 0-5-3.217 0-3.223 5 0 5M118.915 28.167c3.217 0 3.223-5 0-5-3.217 0-3.223 5 0 5M110.915 26.667c3.217 0 3.223-5 0-5-3.217 0-3.223 5 0 5M85.915 11.333c3.217 0 3.223-5 0-5-3.217 0-3.223 5 0 5M78.748 5c3.217 0 3.223-5 0-5-3.217 0-3.223 5 0 5M70.081 5.833c3.217 0 3.223-5 0-5-3.217 0-3.223 5 0 5M64.748 12.833c3.217 0 3.223-5 0-5-3.217 0-3.223 5 0 5M59.415 19c3.217 0 3.223-5 0-5-3.217 0-3.223 5 0 5M58.915 47.333c3.217 0 3.223-5 0-5-3.217 0-3.223 5 0 5M50.081 48c3.217 0 3.223-5 0-5-3.217 0-3.223 5 0 5M42.915 54.833c3.217 0 3.223-5 0-5-3.217 0-3.223 5 0 5M37.915 59.333c3.217 0 3.223-5 0-5-3.217 0-3.223 5 0 5M61.415 57.333c3.217 0 3.223-5 0-5-3.217 0-3.223 5 0 5M68.081 51.667c3.217 0 3.223-5 0-5-3.217 0-3.223 5 0 5M75.081 48c3.217 0 3.223-5 0-5-3.217 0-3.223 5 0 5M82.748 114.833c3.217 0 3.223-5 0-5-3.217 0-3.223 5 0 5M95.915 118.5c3.217 0 3.223-5 0-5-3.217 0-3.223 5 0 5M75.581 115.667c3.217 0 3.223-5 0-5-3.217 0-3.223 5 0 5M72.415 95.667c3.217 0 3.223-5 0-5-3.217 0-3.223 5 0 5M65.581 95.5c3.217 0 3.223-5 0-5-3.217 0-3.223 5 0 5M58.748 93.5c3.217 0 3.223-5 0-5-3.217 0-3.223 5 0 5M49.748 101.167c3.217 0 3.223-5 0-5-3.217 0-3.223 5 0 5M41.915 106c3.217 0 3.223-5 0-5-3.217 0-3.223 5 0 5M37.581 101.333c3.217 0 3.223-5 0-5-3.217 0-3.223 5 0 5M31.081 101.667c3.217 0 3.223-5 0-5-3.217 0-3.223 5 0 5M23.581 102.333c3.217 0 3.223-5 0-5-3.217 0-3.223 5 0 5M21.415 110.333c3.217 0 3.223-5 0-5-3.217 0-3.223 5 0 5M21.081 117.833c3.217 0 3.223-5 0-5-3.217 0-3.223 5 0 5M12.748 117.667c3.217 0 3.223-5 0-5-3.217 0-3.223 5 0 5"/>
        <g transform="translate(0 118.167)">
            <mask id="d" fill="#fff">
                <use xlink:href="#c"/>
            </mask>
            <path fill="#3850A2" d="M2.415 5.166c3.217 0 3.223-5 0-5-3.217 0-3.223 5 0 5" mask="url(#d)"/>
        </g>
        <path fill="#3850A2" d="M3.748 136.167c3.217 0 3.223-5 0-5-3.217 0-3.223 5 0 5M16.915 185c3.217 0 3.223-5 0-5-3.217 0-3.223 5 0 5M17.415 175.667c3.217 0 3.223-5 0-5-3.217 0-3.223 5 0 5M19.415 164.5c3.217 0 3.223-5 0-5-3.217 0-3.223 5 0 5"/>
    </g>
</svg>
