<svg xmlns="http://www.w3.org/2000/svg" xmlns:xlink="http://www.w3.org/1999/xlink" width="204" height="372" viewBox="0 0 204 372">
    <defs>
        <path id="a" d="M.005.258h75.684V355H.005z"/>
        <path id="c" d="M.699.251h23.963v61.498H.699z"/>
    </defs>
    <g fill="none" fill-rule="evenodd">
        <g transform="translate(52 38)">
            <mask id="b" fill="#fff">
                <use xlink:href="#a"/>
            </mask>
            <path fill="#3850A2" d="M21.142 3.352c-3.926.316-15.553 2.72-17.925 19.945-.073.408-1.403 8.305 4.625 14.174 3.362-4.052 14.736-19.004 13.3-34.12m24.9 351.65a1.521 1.521 0 0 1-1.356-2.208c41.623-82.537 29.145-163.004 11.35-215.972C37.41 81.386 9.245 43.665 6.985 40.69a1.503 1.503 0 0 1-.41-.252C-1.622 33.357.137 23.239.215 22.813 2.759 4.348 15.913.006 22.55.27a1.52 1.52 0 0 1 1.437 1.3C26.518 18.836 13.524 35.495 10 39.642c4.788 6.451 31.133 43.327 48.885 96.113C76.89 189.298 89.513 270.653 47.4 354.164c-.266.53-.801.837-1.357.837" mask="url(#b)"/>
        </g>
        <path fill="#3850A2" d="M122.945 315.664S144.025 289.38 168 288c0 0-13.53 39.544-47 37.953l1.945-10.289zM189.878 143.631c-5.494 2.276-21.803 10.982-20.387 33.677 4.288-2.47 21.909-13.887 20.387-33.677M126.514 270c-.469 0-.933-.221-1.228-.635a1.535 1.535 0 0 1 .343-2.13c.085-.062 8.58-6.325 17.969-20.271 8.546-12.694 19.576-34.497 23.955-66.608a1.527 1.527 0 0 1-.96-1.279c-1.49-15.867 5.15-25.637 10.98-31.036 6.298-5.832 12.886-7.89 13.163-7.975.423-.13.882-.066 1.256.175.372.241.621.635.682 1.078 3.177 23.373-17.816 36.462-22.04 38.842-4.414 33.117-15.81 55.602-24.63 68.662-9.68 14.335-18.25 20.63-18.608 20.89a1.5 1.5 0 0 1-.882.287M71.539 203.472c-.416 2.767-1.035 8.77.028 15.554 1.808 11.531 7.43 20.097 16.726 25.491-.367-3.638-1.29-11.08-3.258-18.668-2.291-8.845-6.456-19.594-13.496-22.377M124.489 297a1.5 1.5 0 0 1-1.05-.425c-1.062-1.032-25.737-25.148-34.458-48.255a1.433 1.433 0 0 1-.258-.103c-26.92-13.78-19.926-46.698-19.852-47.03a1.52 1.52 0 0 1 1.795-1.155c17.33 3.779 20.57 42.728 20.835 46.373 8.178 22.701 33.778 47.724 34.037 47.974.6.584.618 1.548.039 2.155a1.5 1.5 0 0 1-1.089.466M114.47 191c-.279 0-.559-.075-.811-.233-1.585-.99-38.888-24.335-45.572-31.51-6.294-6.755-21.905-12.24-22.062-12.293a1.523 1.523 0 0 1-.94-1.941 1.53 1.53 0 0 1 1.949-.937c.67.233 16.488 5.795 23.293 13.097 6.414 6.883 44.572 30.763 44.956 31.003.715.447.932 1.387.483 2.1-.29.461-.788.714-1.297.714M130.311 62.615c-5.343 1.57-17.697 6.73-19.403 21.188 4.91-3.443 16.157-12.104 19.403-21.188M98.531 149a1.524 1.524 0 0 1-1.525-1.664c.183-1.952 4.492-47.412 10.789-60.867a1.502 1.502 0 0 1-.112-.638c.931-22.47 24.29-26.768 24.525-26.81a1.54 1.54 0 0 1 1.353.433c.35.356.507.862.412 1.352-2.48 12.959-20.455 25.013-23.384 26.9-6.078 12.842-10.492 59.438-10.537 59.912a1.526 1.526 0 0 1-1.52 1.382"/>
        <path fill="#3850A2" d="M108.703 242.709c-1.906 5.332-5.305 18.4.861 31.827 1.803-6.683 4.828-21.686-.861-31.827M109.926 280c-.522 0-1.008-.28-1.277-.746-11.471-19.916-1.99-39.594-1.582-40.422.23-.463.676-.774 1.18-.825a1.476 1.476 0 0 1 1.314.578c10.882 14.274 2.137 39.358 1.759 40.418a1.487 1.487 0 0 1-1.394.997M68.625 249.963c.948 2.278 3.157 6.282 7.709 9.024 4.922 2.964 11.318 3.772 19.04 2.411-4.099-3.63-14.22-11.293-26.749-11.435M88.49 265c-5.312 0-9.934-1.177-13.816-3.529-7.737-4.687-9.563-12.3-9.636-12.621a1.441 1.441 0 0 1 .273-1.215c.27-.348.683-.562 1.13-.585 18.807-1.008 32.592 13.614 33.17 14.237.358.388.481.932.321 1.429-.16.499-.578.878-1.102 1-3.689.856-7.14 1.284-10.34 1.284M30.277 87.677c11.105 1.824 20.194-7.04 24.002-11.53-19.132.895-23.157 8.476-24.002 11.53M33.374 91a22.04 22.04 0 0 1-5.206-.628A1.533 1.533 0 0 1 27 88.856c.012-.639.63-15.648 30.463-15.856.547.067 1.089.308 1.356.809a1.54 1.54 0 0 1-.08 1.58C58.266 76.094 48.063 91 33.375 91"/>
        <g transform="translate(30)">
            <mask id="d" fill="#fff">
                <use xlink:href="#c"/>
            </mask>
            <path fill="#3850A2" d="M4.508 3.749c-.87 6.702-3.065 30.82 9.392 36.235 1.395-3.971 5.634-17.824.784-27.575-2.022-4.068-5.441-6.974-10.176-8.66m18.625 58c-.589 0-1.15-.339-1.401-.907L13.94 43.225a1.535 1.535 0 0 1-.205-.056C-4.172 36.934 1.493 2.952 1.742 1.509c.074-.423.325-.795.692-1.024.367-.23.815-.294 1.232-.177 6.484 1.81 11.116 5.437 13.767 10.775 5.717 11.508.373 27.22-.869 30.528l7.97 18.02a1.507 1.507 0 0 1-.788 1.991c-.2.086-.408.127-.613.127" mask="url(#d)"/>
        </g>
        <path fill="#3850A2" d="M28.077 45.397c-.042 5.128 1.763 20.263 24.03 24.186-2.35-5.773-9.64-20.5-24.03-24.186M54.454 73c-.066 0-.133-.005-.2-.012-16.71-2.153-23.76-10.075-26.732-16.34-3.233-6.816-2.45-13.061-2.414-13.325.056-.415.282-.788.626-1.034.345-.245.78-.341 1.193-.262 8.75 1.633 16.547 7.185 22.548 16.056 4.482 6.625 6.38 12.699 6.458 12.954a1.5 1.5 0 0 1-.3 1.426 1.553 1.553 0 0 1-1.179.537"/>
        <path fill="#3850A2" d="M25.043 75C11.132 75 1.417 70.261.828 69.967A1.482 1.482 0 0 1 0 68.627a1.483 1.483 0 0 1 .854-1.32c.765-.364 18.884-8.893 32.434-7.045.83.111 1.41.863 1.294 1.674a1.504 1.504 0 0 1-1.713 1.268C23.446 61.92 11.119 66.27 5.38 68.6c6.58 2.348 22.609 6.476 40.539-.504.784-.303 1.665.072 1.973.833.31.762-.07 1.627-.85 1.93A60.349 60.349 0 0 1 25.042 75M137.74 113.438c-6.153 1.594-25.019 7.836-35.537 26.298 8.302-1.023 32.742-5.77 35.536-26.298M99.532 143a1.54 1.54 0 0 1-1.28-.677 1.476 1.476 0 0 1-.095-1.485c12.844-25.66 39.9-30.617 41.045-30.815.461-.08.936.05 1.287.358.35.307.537.754.508 1.213-1.85 29.263-40.998 31.385-41.393 31.404l-.072.002M93.931 90.391c-1.134 3.15-3.148 12.347 7.067 21.895.124-7.239-.992-19.339-7.067-21.895M102.354 117c-.329 0-.656-.11-.925-.327-8.976-7.184-11.155-14.598-11.403-19.552-.27-5.447 1.654-9.16 1.736-9.315a1.493 1.493 0 0 1 1.616-.777c12.435 2.541 10.56 27.5 10.473 28.562a1.53 1.53 0 0 1-.895 1.28 1.483 1.483 0 0 1-.602.129M109.081 94.401c19.454 3.816 29.956-12.54 33.033-18.387-17.235.111-29.218 13.486-33.033 18.387M114.873 98c-2.723 0-5.636-.367-8.75-1.192a1.502 1.502 0 0 1-.88-2.276c.614-.936 15.259-22.94 39.336-21.46.487.03.929.29 1.19.7.258.41.303.92.119 1.369-.106.257-9.635 22.859-31.015 22.859M84 169s-27.517 3.466-31 15.902c0 0 19.981 2.349 31-15.902M68.618 158s11.285-27.152-15.274-41c0 0-8.056 16.497 15.274 41"/>
        <path fill="#3850A2" d="M23.6 172.438c22.707 3.649 32.772-12.575 35.606-18.394-15.17.114-30.305 13.286-35.606 18.394M29.904 176c-2.999 0-6.23-.345-9.719-1.121a1.512 1.512 0 0 1-1.116-1.032 1.531 1.531 0 0 1 .334-1.488c.86-.936 21.347-22.889 42.202-21.274a1.51 1.51 0 0 1 1.157.697c.255.401.308.902.144 1.35C62.81 153.387 54.15 176 29.904 176M22.99 134.347c2.5 3.549 9.28 10.868 21.83 9.351-2.878-3.673-10.222-11.055-21.83-9.351M41.572 147c-7.184 0-12.372-2.7-15.691-5.284-4.562-3.552-6.626-7.593-6.713-7.762a1.59 1.59 0 0 1-.027-1.367c.197-.436.58-.753 1.036-.86 18.518-4.337 28.505 12.142 28.603 12.308.257.435.29.97.09 1.435-.2.463-.61.798-1.095.895-2.211.44-4.28.635-6.203.635M108.877 86s1.897-14.585-9.192-21c0 0-4.418 14.802 9.192 21M144.641 252.103c1.517 3.745 3.956 6.543 7.27 8.334 7.368 3.98 17.205 2.097 20.764 1.212-2.731-8.192-19.416-9.678-28.034-9.546M163.008 266c-4.035 0-8.522-.665-12.498-2.809-4.61-2.487-7.787-6.563-9.444-12.116a1.584 1.584 0 0 1 .208-1.343 1.506 1.506 0 0 1 1.16-.661c1.286-.072 31.487-1.545 33.55 13.471a1.553 1.553 0 0 1-1.045 1.699c-.352.113-5.582 1.759-11.93 1.759M148.74 240s5.76-37.658-7.353-46.961C128.273 183.735 148.74 240 148.74 240M156.838 228.62c8.92 4.528 16.632 5.556 22.943 3.054 7.116-2.819 10.598-9.492 11.774-12.254-18.2-7.621-31.043 4.942-34.717 9.2m15.707 7.38c-5.646 0-11.923-1.867-18.761-5.595a1.498 1.498 0 0 1-.745-.97 1.477 1.477 0 0 1 .234-1.195c.161-.226 16.25-22.405 40.856-10.963a1.49 1.49 0 0 1 .804 1.792c-.143.457-3.601 11.235-13.987 15.369-2.619 1.041-5.423 1.562-8.401 1.562M150.64 162.629c-.45 2.564-1.09 7.666-.37 13.322 1.248 9.786 5.837 16.9 13.654 21.177.3-6.883.073-27.917-13.284-34.5M165.27 201c-.211 0-.422-.044-.62-.135-23.89-10.933-16.631-40.436-16.555-40.732a1.51 1.51 0 0 1 .758-.962c.375-.198.819-.225 1.214-.076 8.331 3.133 13.855 11.203 15.974 23.335 1.563 8.955.753 16.886.717 17.22a1.494 1.494 0 0 1-1.488 1.35"/>
        <path fill="#3850A2" d="M200.619 187.037c-5.264.128-21.457 1.841-32.8 17.332 10.78-2.123 30.02-7.823 32.8-17.332M164.54 208c-.51 0-.996-.25-1.284-.678a1.497 1.497 0 0 1-.028-1.632c14.535-23.3 39.11-21.677 39.353-21.66.41.032.788.223 1.053.53.266.308.396.707.36 1.11-1.435 16.458-37.68 22.081-39.223 22.313a1.69 1.69 0 0 1-.23.017"/>
    </g>
</svg>
