<?xml version="1.0" encoding="UTF-8"?>
<svg width="254px" height="138px" viewBox="0 0 254 138" version="1.1" xmlns="http://www.w3.org/2000/svg" xmlns:xlink="http://www.w3.org/1999/xlink">
    <!-- Generator: Sketch 49.3 (51167) - http://www.bohemiancoding.com/sketch -->
    <title>Group</title>
    <desc>Created with Sketch.</desc>
    <defs>
        <polygon id="path-1" points="0.00162606982 0.0907218833 27.0846568 0.0907218833 27.0846568 124.656489 0.00162606982 124.656489"></polygon>
        <polygon id="path-3" points="0.249980196 0.0881459691 8.82512555 0.0881459691 8.82512555 21.6828464 0.249980196 21.6828464"></polygon>
    </defs>
    <g id="Page-1" stroke="none" stroke-width="1" fill="none" fill-rule="evenodd">
        <g id="Mobile-Copy" transform="translate(-83.000000, -502.000000)">
            <g id="Group" transform="translate(83.000000, 502.000000)">
                <g id="facebook-app-symbol" transform="translate(25.000000, 98.000000)" fill="#000000" fill-rule="nonzero">
                    <path d="M6.49185185,19.152963 L6.49185185,10.417037 L9.42296296,10.417037 L9.86271605,7.01148148 L6.49185185,7.01148148 L6.49185185,4.83753086 C6.49185185,3.85185185 6.76444444,3.18012346 8.17950617,3.18012346 L9.98135802,3.17938272 L9.98135802,0.133333333 C9.66975309,0.0928395062 8.60012346,0 7.35518519,0 C4.75555556,0 2.97580247,1.58679012 2.97580247,4.50024691 L2.97580247,7.01148148 L0.0358024691,7.01148148 L0.0358024691,10.417037 L2.97580247,10.417037 L2.97580247,19.152963 L6.49185185,19.152963 Z" id="f_1_"></path>
                </g>
                <g id="instagram-logo" transform="translate(78.000000, 98.000000)" fill="#000000" fill-rule="nonzero">
                    <path d="M14.4806047,0 L5.51915865,0 C2.47589642,0 0,2.47601472 0,5.51927695 L0,14.480723 C0,17.5241036 2.47589642,20 5.51915865,20 L14.4806047,20 C17.5241036,20 20,17.5239853 20,14.480723 L20,5.51927695 C20.0001183,2.47601472 17.5241036,0 14.4806047,0 Z M18.2256214,14.480723 C18.2256214,16.545646 16.545646,18.2255031 14.480723,18.2255031 L5.51915865,18.2255031 C3.45435402,18.2256214 1.77449693,16.545646 1.77449693,14.480723 L1.77449693,5.51927695 C1.77449693,3.45447232 3.45435402,1.77449693 5.51915865,1.77449693 L14.4806047,1.77449693 C16.5455277,1.77449693 18.2255031,3.45447232 18.2255031,5.51927695 L18.2255031,14.480723 L18.2256214,14.480723 Z" id="Shape"></path>
                    <path d="M10,5 C7.24295847,5 5,7.24300996 5,10.0001148 C5,12.7571048 7.24295847,15 10,15 C12.7570415,15 15,12.7571048 15,10.0001148 C15,7.24300996 12.7570415,5 10,5 Z M10,13.2782012 C8.19238804,13.2782012 6.72164451,11.8076535 6.72164451,10 C6.72164451,8.19223176 8.19227326,6.72156926 10,6.72156926 C11.8077267,6.72156926 13.2783555,8.19223176 13.2783555,10 C13.2783555,11.8076535 11.807612,13.2782012 10,13.2782012 Z" id="Shape"></path>
                    <path d="M15.5,3 C15.1059091,3 14.7187727,3.15954545 14.4404545,3.43909091 C14.1607727,3.71727273 14,4.10454545 14,4.5 C14,4.89422727 14.1609091,5.28136364 14.4404545,5.56090909 C14.7186364,5.83909091 15.1059091,6 15.5,6 C15.8954545,6 16.2813636,5.83909091 16.5609091,5.56090909 C16.8404545,5.28136364 17,4.89409091 17,4.5 C17,4.10454545 16.8404545,3.71727273 16.5609091,3.43909091 C16.2827273,3.15954545 15.8954545,3 15.5,3 Z" id="Shape"></path>
                </g>
                <g id="behance-logo" transform="translate(134.000000, 100.000000)" fill="#000000" fill-rule="nonzero">
                    <path d="M23.4798647,2.29227846 L16.9652226,2.29227846 L16.9652226,0.672013512 L23.4804088,0.672013512 L23.4804088,2.29227846 L23.4798647,2.29227846 Z M12.6282734,8.9364542 C13.0486275,9.58837328 13.2586837,10.3799245 13.2586837,11.3092314 C13.2586837,12.2702537 13.0218491,13.1323775 12.5400196,13.8939081 C12.2334888,14.3978426 11.8529093,14.8235177 11.3956216,15.1662125 C10.8806063,15.5625329 10.2708692,15.8342919 9.56991635,15.9794923 C8.86672694,16.1249349 8.10562853,16.1984127 7.28577485,16.1984127 L0,16.1984127 L0,0 L7.81287978,0 C9.78220906,0.0320784618 11.1783722,0.603377709 12.0028199,1.72533704 C12.4975248,2.41345031 12.7426407,3.23913781 12.7426407,4.19888907 C12.7426407,5.18920566 12.4945629,5.98160419 11.9950221,6.58365034 C11.7171435,6.9212005 11.3066425,7.22824585 10.7632166,7.50539165 C11.5863345,7.80711077 12.2108813,8.28223516 12.6282734,8.9364542 Z M3.73095989,6.38621649 L7.15424041,6.38621649 C7.85773205,6.38621649 8.42642508,6.25233431 8.86442993,5.98469099 C9.30213254,5.71747135 9.52053048,5.24246801 9.52053048,4.56046781 C9.52053048,3.80698711 9.23134815,3.30686573 8.65159318,3.06615622 C8.15326141,2.89892454 7.51565788,2.8127969 6.74198633,2.8127969 L3.73095989,2.8127969 L3.73095989,6.38621649 Z M9.85015241,11.0778428 C9.85015241,10.2364187 9.50668793,9.65470912 8.82114929,9.34257963 C8.43778926,9.16517969 7.89690224,9.07451264 7.20338448,9.06803642 L3.73095989,9.06803642 L3.73095989,13.384829 L7.14964638,13.384829 C7.85198951,13.384829 8.39559669,13.2927698 8.78790299,13.1007227 C9.49538419,12.7476176 9.85015241,12.0756041 9.85015241,11.0778428 Z M25.8969914,8.44262747 C25.9756945,8.97258787 26.0112982,9.74150254 25.9968512,10.7465268 L17.5596664,10.7465268 C17.6062112,11.9126092 18.0082496,12.7280679 18.7707383,13.1947187 C19.2305649,13.487359 19.788075,13.6302595 20.4409114,13.6302595 C21.1292911,13.6302595 21.6903677,13.4560068 22.1222673,13.0978175 C22.3575907,12.9079493 22.5651684,12.6399429 22.744638,12.3017875 L25.8371481,12.3017875 C25.756148,12.990506 25.3837895,13.6890296 24.7146322,14.3988715 C23.6778918,15.5271255 22.2238801,16.0928564 20.3565263,16.0928564 C18.8138981,16.0928564 17.4543663,15.6157347 16.2743041,14.6649412 C15.098171,13.7108188 14.507475,12.1634264 14.507475,10.0168931 C14.507475,8.0039999 15.0377837,6.46332585 16.1019674,5.39093682 C17.1700803,4.31655045 18.5485322,3.78180854 20.2476598,3.78180854 C21.2547808,3.78180854 22.1626465,3.96205318 22.9725867,4.32441875 C23.7799881,4.68714747 24.4472715,5.25802304 24.9728048,6.0426138 C25.4484082,6.73357176 25.7542741,7.53250703 25.8969914,8.44262747 Z M22.8530209,8.74489131 C22.7963209,7.93857194 22.527449,7.32829433 22.0433225,6.91121381 C21.5631855,6.49298329 20.9633619,6.28302068 20.2476598,6.28302068 C19.4687292,6.28302068 18.8672735,6.50744886 18.4399075,6.94855798 C18.0096399,7.38875921 17.7419166,7.98723436 17.6322038,8.74495184 L22.8530209,8.74495184 L22.8530209,8.74489131 Z" id="Behance"></path>
                </g>
                <rect id="Rectangle" fill="#FFBFBF" transform="translate(88.000000, 135.500000) rotate(-90.000000) translate(-88.000000, -135.500000) " x="85.5" y="47.5" width="5" height="176"></rect>
                <g id="Page-1-Copy" transform="translate(181.000000, 0.000000)">
                    <g id="Group-3" transform="translate(18.607843, 13.343511)">
                        <mask id="mask-2" fill="white">
                            <use xlink:href="#path-1"></use>
                        </mask>
                        <g id="Clip-2"></g>
                        <path d="M7.56551388,1.17693973 C6.16056447,1.28805762 2.00010839,2.13212626 1.15104682,8.18057253 C1.12493859,8.32374367 0.649007216,11.0968831 2.80620016,13.1579064 C4.00935467,11.7347426 8.07951976,6.48442195 7.56551388,1.17693973 M16.476037,124.656702 C16.3933609,124.656702 16.3101409,124.638005 16.2312723,124.599006 C15.963119,124.465985 15.8554225,124.144919 15.990859,123.881548 C30.8850633,94.899009 26.4200111,66.6435443 20.0517774,48.0441179 C13.3871064,28.5781856 3.30878369,15.3327187 2.49997231,14.2877831 C2.44775584,14.2669485 2.39825898,14.2370321 2.35311349,14.1991024 C-0.580255529,11.7128395 0.0490617255,8.16027215 0.0768017255,8.01069036 C0.987326431,1.52685426 5.69442369,0.00218850395 8.06918525,0.0946086775 C8.32972369,0.105827311 8.54620447,0.297078306 8.58373506,0.550833118 C9.48936447,6.61423757 4.83937898,12.4639538 3.57856878,13.9202393 C5.29192173,16.1853348 14.7191704,29.1343093 21.0716304,47.6696292 C27.5143813,66.470991 32.03165,95.0384406 16.961759,124.362881 C16.8665727,124.54879 16.6751123,124.656702 16.476037,124.656702" id="Fill-1" fill="#3850A2" mask="url(#mask-2)"></path>
                    </g>
                    <path d="M43.995027,110.843874 C43.995027,110.843874 51.5383016,101.614287 60.1176471,101.129771 C60.1176471,101.129771 55.2757135,115.015364 43.2990196,114.456876 L43.995027,110.843874 Z" id="Fill-4" fill="#3850A2"></path>
                    <path d="M67.946498,50.4353575 C65.9805406,51.2344461 60.1443924,54.2914557 60.6511773,62.2609041 C62.1856094,61.393215 68.4911835,57.3843735 67.946498,50.4353575 M45.2722038,94.8091603 C45.1043584,94.8091603 44.9381373,94.7314488 44.8325571,94.5862087 C44.657673,94.3461069 44.7128995,94.0111436 44.9554633,93.8380345 C44.9857837,93.8165969 48.0259519,91.6170934 51.3855678,86.720197 C54.4436033,82.2627725 58.3906783,74.6068498 59.9575966,63.3311791 C59.7729667,63.2598989 59.6343588,63.0905414 59.6143256,62.8820602 C59.0810103,57.3104136 61.4568354,53.8798528 63.5435332,51.9836921 C65.7969935,49.9358601 68.1544097,49.2134111 68.2534927,49.1833984 C68.405095,49.1378434 68.5691504,49.1603529 68.7028853,49.2450317 C68.8360788,49.3297104 68.9254159,49.4679833 68.9470733,49.6234063 C70.0840908,57.8308126 62.5716539,62.4270459 61.0599621,63.2625786 C59.4805907,74.8914347 55.4024881,82.7869232 52.2464524,87.3729736 C48.7823392,92.4065351 45.7161821,94.6167573 45.5878616,94.7084033 C45.4920272,94.7764679 45.3815741,94.8091603 45.2722038,94.8091603" id="Fill-6" fill="#3850A2"></path>
                    <path d="M25.5995959,71.4483483 C25.4507643,72.4199623 25.2294112,74.5279793 25.6098788,76.9099315 C26.2566196,80.9590362 28.2688222,83.9669732 31.5950723,85.8609784 C31.4635593,84.5833274 31.1334238,81.9702424 30.4293153,79.3057945 C29.6093887,76.1999471 28.1189083,72.4253126 25.5995959,71.4483483 M44.5472063,104.290076 C44.4119049,104.290076 44.2766035,104.240854 44.1716096,104.140803 C43.7916832,103.778588 34.9619127,95.3101379 31.8413208,87.1964125 C31.8099309,87.187317 31.7790822,87.1755463 31.7487747,87.1600305 C22.115855,82.3212219 24.61839,70.7624402 24.6449091,70.6458038 C24.7098538,70.3590279 24.9983164,70.181398 25.2873202,70.2402513 C31.488996,71.5671249 32.6482585,85.2440891 32.7429695,86.5238801 C35.6692685,94.4952876 44.8302569,103.28208 44.922803,103.369825 C45.1376617,103.574742 45.1441562,103.913415 44.9368744,104.126357 C44.8307981,104.235503 44.6890022,104.290076 44.5472063,104.290076" id="Fill-8" fill="#3850A2"></path>
                    <path d="M40.9620636,67.0687023 C40.862494,67.0687023 40.7623773,67.0424901 40.6721081,66.986856 C40.10478,66.639143 26.7564299,58.441675 24.3645702,55.922093 C22.1122173,53.5501553 16.5259227,51.6243602 16.4695729,51.6056372 C16.1845411,51.5082775 16.0340924,51.202825 16.1336621,50.9241197 C16.2332317,50.6448794 16.5461649,50.4972351 16.8306496,50.5951297 C17.0702732,50.676976 22.7309715,52.6300532 25.1660511,55.1940355 C27.4610766,57.6109084 41.1157948,65.9961414 41.2531134,66.0806624 C41.5091496,66.2374007 41.5868358,66.5674606 41.4259925,66.817814 C41.3220462,66.9799017 41.1442433,67.0687023 40.9620636,67.0687023" id="Fill-10" fill="#3850A2"></path>
                    <path d="M46.6310547,21.9868368 C44.7188942,22.5379906 40.2980491,24.3502228 39.6878433,29.427146 C41.4445792,28.217922 45.469201,25.1766862 46.6310547,21.9868368 M35.2587893,52.3206107 C35.2418239,52.3206107 35.2248585,52.3195415 35.2073459,52.3179378 C34.9063475,52.2906741 34.6852506,52.0303328 34.7131613,51.7363128 C34.7782864,51.050979 36.3204926,35.0878324 38.5736021,30.3631987 C38.5445968,30.2947722 38.5303678,30.218327 38.5336514,30.1392089 C38.8669387,22.2487818 47.2253896,20.7396575 47.3096692,20.7252238 C47.4875318,20.6958218 47.6681309,20.7519529 47.7940029,20.877045 C47.9193277,21.0021371 47.9751492,21.1796183 47.9412185,21.3517536 C47.0540942,25.9021137 40.6214855,30.1349323 39.573464,30.7978137 C37.398614,35.307011 35.8191935,51.6689555 35.8027754,51.8352104 C35.7765064,52.1126584 35.5378968,52.3206107 35.2587893,52.3206107" id="Fill-12" fill="#3850A2"></path>
                    <path d="M38.8985244,85.2260152 C38.2167386,87.0981935 37.0001357,91.6872939 39.2067871,96.402094 C39.8519634,94.0553465 40.9343314,88.7871486 38.8985244,85.2260152 M39.3362468,98.3206107 C39.1494852,98.3206107 38.9754574,98.222075 38.8794238,98.058559 C34.7743836,91.0651875 38.1673954,84.1554382 38.3133028,83.8646247 C38.3955416,83.7021739 38.5552439,83.5929857 38.7356386,83.5748765 C38.9155027,83.5578325 39.0943057,83.6339979 39.2057259,83.7778067 C43.0995982,88.7903444 39.970281,97.5983706 39.834985,97.9706758 C39.7644189,98.1645514 39.5893299,98.2998383 39.3850595,98.3184802 C39.3686117,98.3200781 39.352164,98.3206107 39.3362468,98.3206107" id="Fill-14" fill="#3850A2"></path>
                    <path d="M24.5571007,87.7732838 C24.8961578,88.5732595 25.6867449,89.9793246 27.31542,90.9419984 C29.0767697,91.9826425 31.3655414,92.2664545 34.1287746,91.7887562 C32.6622572,90.5142011 29.0401886,87.8231849 24.5571007,87.7732838 M31.6652875,93.0534351 C29.7641656,93.0534351 28.1103751,92.6401923 26.7213877,91.8142265 C23.9526946,90.1685326 23.2991498,87.4951896 23.2729425,87.3823926 C23.2379994,87.2332093 23.2734885,87.0772686 23.3706739,86.9556349 C23.4673134,86.8334814 23.6152755,86.7586299 23.7752493,86.750313 C30.505068,86.3963277 35.4380481,91.5309343 35.6444307,91.7497711 C35.7727373,91.8859593 35.8169621,92.0767267 35.7596336,92.2513802 C35.7023052,92.4265536 35.5527051,92.559623 35.365432,92.6027666 C34.0452388,92.9032123 32.8102193,93.0534351 31.6652875,93.0534351" id="Fill-16" fill="#3850A2"></path>
                    <path d="M10.8342782,30.7872007 C14.8083119,31.427705 18.0606384,28.3149938 19.4231954,26.7387401 C12.5770837,27.0528077 11.1369472,29.7148534 10.8342782,30.7872007 M11.9427899,31.9541985 C11.3418225,31.9541985 10.7200944,31.8858995 10.0797909,31.7337058 C9.83120889,31.6745492 9.65747467,31.452981 9.66184534,31.2012967 C9.66621601,30.9770395 9.88693496,25.7067268 20.5628482,25.6335878 C20.7584358,25.6572504 20.9523844,25.741683 21.0479928,25.9175393 C21.1436013,26.0928579 21.1326746,26.3068971 21.0195834,26.4725355 C20.8496736,26.7199175 17.1985233,31.9541985 11.9427899,31.9541985" id="Fill-18" fill="#3850A2"></path>
                    <g id="Group-22" transform="translate(10.735294, 0.000000)">
                        <mask id="mask-4" fill="white">
                            <use xlink:href="#path-3"></use>
                        </mask>
                        <g id="Clip-21"></g>
                        <path d="M1.61302636,1.31634854 C1.30216592,3.66973971 0.516258189,12.1386557 4.9739312,14.0401661 C5.47305923,12.6457606 6.99014573,7.78127127 5.25469072,4.35738447 C4.53117399,2.92899497 3.30743466,1.90841333 1.61302636,1.31634854 M8.27791794,21.6828464 C8.06721148,21.6828464 7.86635623,21.5639024 7.77660075,21.3642465 L4.98816073,15.1780987 C4.96407999,15.1733197 4.93945196,15.1669477 4.91482393,15.1584517 C-1.49284158,12.9691395 0.534318743,1.03651164 0.623526932,0.529937814 C0.649796828,0.381257866 0.739552307,0.250631912 0.870901788,0.17045094 C1.00225127,0.0897389685 1.16260709,0.0669059765 1.31201713,0.108323962 C3.63197734,0.743930739 5.28971724,2.01726829 6.23816995,3.89169764 C8.28393812,7.93260622 6.37170859,13.4496943 5.92730952,14.6115219 L8.77923512,20.9389157 C8.9001861,21.2076016 8.77376223,21.5203605 8.49738103,21.6382424 C8.4256861,21.6685094 8.35125473,21.6828464 8.27791794,21.6828464" id="Fill-20" fill="#3850A2" mask="url(#mask-4)"></path>
                    </g>
                    <path d="M10.0471034,15.9410107 C10.0321736,17.7414729 10.6780263,23.056309 18.6461243,24.4336358 C17.805078,22.4066467 15.196231,17.235527 10.0471034,15.9410107 M19.4860647,25.6335878 C19.4622876,25.6335878 19.4385105,25.631985 19.4141804,25.6293137 C13.4350657,24.8733333 10.9119268,22.0914322 9.84859212,19.8913423 C8.69180787,17.4983838 8.97215663,15.3052392 8.98487462,15.2128119 C9.00478105,15.0669584 9.08551264,14.9360643 9.20882186,14.8495139 C9.33213108,14.7634978 9.48806471,14.7298393 9.635704,14.7576209 C12.7670946,15.3308838 15.5567584,17.280405 17.70444,20.3956854 C19.3080128,22.7218611 19.9875959,24.8546341 20.0152437,24.9443901 C20.0699864,25.1180252 20.0296206,25.3066196 19.9079703,25.4449934 C19.8023556,25.5657365 19.6475279,25.6335878 19.4860647,25.6335878" id="Fill-23" fill="#3850A2"></path>
                    <path d="M8.96163105,26.3358779 C3.98350753,26.3358779 0.507136963,24.6718215 0.296250193,24.5685029 C0.112539554,24.4782295 -0.00214371565,24.2966392 3.03747569e-05,24.0983509 C0.00220446517,23.9005844 0.12014887,23.7210813 0.305490077,23.6344606 C0.579425469,23.5066169 7.0631066,20.5119417 11.9118717,21.1605531 C12.2091786,21.199689 12.4162607,21.4637255 12.374953,21.7486345 C12.3341888,22.0345871 12.0602534,22.2365281 11.7618595,22.1937396 C8.38984527,21.7434164 3.97915935,23.2702363 1.92518743,24.0889583 C4.27972735,24.9134202 10.0155214,26.3630121 16.4318057,23.9120643 C16.7122634,23.8056147 17.0275065,23.9371112 17.1378416,24.2042786 C17.2487202,24.4719678 17.1128395,24.775662 16.8334689,24.8821115 C13.9989985,25.96487 11.3129098,26.3358779 8.96163105,26.3358779" id="Fill-25" fill="#3850A2"></path>
                    <path d="M49.28903,39.8331979 C47.0873397,40.3927703 40.3364762,42.5846924 36.5727205,49.0677235 C39.5433854,48.7083747 48.289308,47.0412494 49.28903,39.8331979 M35.616846,50.2137405 C35.4326867,50.2137405 35.2600373,50.1246936 35.1586401,49.9761066 C35.05231,49.8201429 35.0391558,49.6220269 35.1246583,49.4544713 C39.7209676,40.4444069 49.4030333,38.703515 49.8124589,38.6339636 C49.977435,38.6060377 50.1473439,38.6518783 50.2728572,38.7598937 C50.3983705,38.8673822 50.4652379,39.0243997 50.4548241,39.1856324 C49.7927276,49.461321 35.7840144,50.2063638 35.6426064,50.2132136 C35.6338369,50.2132136 35.6250674,50.2137405 35.616846,50.2137405" id="Fill-27" fill="#3850A2"></path>
                    <path d="M33.6125938,31.7404126 C33.2068097,32.846532 32.4860727,36.0759911 36.141354,39.4288313 C36.1859634,36.886858 35.7866289,32.6380234 33.6125938,31.7404126 M36.6266825,41.0839695 C36.5089783,41.0839695 36.3918115,41.0451772 36.2956057,40.9692089 C33.0837308,38.4466317 32.303873,35.8432373 32.2151917,34.1035103 C32.1184485,32.1908344 32.8069377,30.886982 32.8364982,30.832565 C32.9488278,30.6235176 33.1842363,30.5141449 33.4148076,30.5599414 C37.8644583,31.4521643 37.1931678,40.2165305 37.1625325,40.5893676 C37.1464086,40.7871006 37.0233297,40.9595108 36.8422049,41.0387118 C36.7728723,41.0688836 36.6997774,41.0839695 36.6266825,41.0839695" id="Fill-29" fill="#3850A2"></path>
                    <path d="M39.0340072,33.1484914 C45.9952296,34.4883225 49.753326,28.7447547 50.8546036,26.6919326 C44.687124,26.7310441 40.3989634,31.4275881 39.0340072,33.1484914 M41.1066182,34.4122137 C40.1320362,34.4122137 39.0897749,34.2832517 37.9755029,33.9936156 C37.8076582,33.9497474 37.6717582,33.8302989 37.6094932,33.6722676 C37.5472282,33.5142362 37.5667199,33.3366491 37.6609295,33.1944738 C37.8802104,32.8657263 43.1207542,25.1391028 51.7366003,25.6586507 C51.9109422,25.6692213 52.069041,25.7606575 52.1621678,25.904947 C52.2547531,26.048708 52.2709961,26.2278807 52.2049411,26.3853835 C52.1670407,26.4757627 48.7570866,34.4122137 41.1066182,34.4122137" id="Fill-31" fill="#3850A2"></path>
                    <path d="M30.0588235,59.3435115 C30.0588235,59.3435115 20.2119326,60.5604757 18.9656863,64.9272605 C18.9656863,64.9272605 26.1158725,65.7521266 30.0588235,59.3435115" id="Fill-33" fill="#3850A2"></path>
                    <path d="M24.5546152,55.480916 C24.5546152,55.480916 28.5927951,45.9466651 19.0888819,41.0839695 C19.0888819,41.0839695 16.2061381,46.8769522 24.5546152,55.480916" id="Fill-35" fill="#3850A2"></path>
                    <path d="M8.44494311,60.5507764 C16.5705259,61.8319807 20.1721647,56.1349491 21.1863759,54.0918609 C15.7579676,54.131932 10.3419937,58.7571971 8.44494311,60.5507764 M10.7009682,61.8015267 C9.627829,61.8015267 8.4714337,61.6802451 7.22313226,61.4077621 C7.03391377,61.3666225 6.88145772,61.2287782 6.82361093,61.04552 C6.76576413,60.8627961 6.81171719,60.6635095 6.94308889,60.5229938 C7.25124472,60.1944114 14.5821098,52.4858141 22.0448872,53.0526856 C22.2141026,53.0655083 22.3676399,53.156336 22.4590054,53.297386 C22.5503709,53.438436 22.5692927,53.6142143 22.5103647,53.7712927 C22.4763054,53.8615861 19.3774471,61.8015267 10.7009682,61.8015267" id="Fill-37" fill="#3850A2"></path>
                    <path d="M8.22688498,47.1752203 C9.12146871,48.4213826 11.5478442,50.9916946 16.0386437,50.4588716 C15.0085991,49.16908 12.3806578,46.5769533 8.22688498,47.1752203 M14.8763893,51.6183206 C12.3053415,51.6183206 10.4489855,50.6699284 9.26126435,49.762984 C7.62868968,48.515731 6.8901569,47.0966875 6.85927182,47.0372426 C6.78233003,46.8872668 6.77907897,46.7100227 6.84951863,46.5573201 C6.9199583,46.4040722 7.05704472,46.2928174 7.22013963,46.2551871 C13.8468865,44.732524 17.4203448,50.5188619 17.4555646,50.5772161 C17.547678,50.7299187 17.5595986,50.9180701 17.4880753,51.0811347 C17.4160101,51.2436539 17.2697123,51.361453 17.0957805,51.3952657 C16.3046889,51.5501498 15.5645306,51.6183206 14.8763893,51.6183206" id="Fill-39" fill="#3850A2"></path>
                    <path d="M38.9607707,30.1984733 C38.9607707,30.1984733 39.6397269,25.0771877 35.6714143,22.8244275 C35.6714143,22.8244275 34.0906211,28.0219404 38.9607707,30.1984733" id="Fill-41" fill="#3850A2"></path>
                    <path d="M51.7589071,88.5247205 C52.3017844,89.8398291 53.1744013,90.8223438 54.3604879,91.4510006 C56.9967781,92.848985 60.5170743,92.187614 61.7904768,91.8768297 C60.8131892,89.0001661 54.8426237,88.4783755 51.7589071,88.5247205 M58.3314644,93.4045802 C56.8872264,93.4045802 55.281915,93.1712193 53.858828,92.4182487 C52.2095874,91.5447811 51.072311,90.1135374 50.4795389,88.1637745 C50.4307288,88.0034752 50.4583879,87.829545 50.5538388,87.6921456 C50.6492898,87.5547462 50.8027706,87.4685989 50.9692674,87.4598752 C51.4291674,87.4347943 62.2362761,86.9173656 62.9749363,92.1903402 C63.0123574,92.4547795 62.8539956,92.7066784 62.6007252,92.7868281 C62.4749035,92.8266303 60.6033055,93.4045802 58.3314644,93.4045802" id="Fill-43" fill="#3850A2"></path>
                    <path d="M53.2257514,84.2748092 C53.2257514,84.2748092 55.286788,71.0514356 50.5942021,67.7845284 C45.9016161,64.5176212 53.2257514,84.2748092 53.2257514,84.2748092" id="Fill-45" fill="#3850A2"></path>
                    <path d="M56.1234028,80.2788747 C59.3154898,81.8687851 62.0749357,82.2297463 64.333257,81.3512498 C66.8796435,80.3613651 68.1259325,78.0180073 68.5466162,77.0480884 C62.0341718,74.372142 57.4381752,78.7835392 56.1234028,80.2788747 M61.7439326,82.870229 C59.7236726,82.870229 57.4773086,82.2145092 55.0303862,80.9056966 C54.8955934,80.8337145 54.7988471,80.7097162 54.7640619,80.5647013 C54.7292766,80.4196863 54.7597137,80.2673155 54.8477638,80.1454189 C54.9053768,80.066081 60.6628734,72.2778317 69.4678809,76.2956919 C69.7119209,76.4070802 69.8347562,76.6755681 69.7554024,76.9251409 C69.7043116,77.085393 68.4667189,80.8699683 64.7501361,82.3216941 C63.8131094,82.6873841 62.8097733,82.870229 61.7439326,82.870229" id="Fill-47" fill="#3850A2"></path>
                    <path d="M53.9056608,57.106213 C53.7443753,58.0065637 53.515575,59.7982404 53.7733103,61.7842145 C54.2196584,65.2205177 55.8619838,67.7187786 58.6590273,69.2206018 C58.7667295,66.8035636 58.6852831,59.4176086 53.9056608,57.106213 M59.1407404,70.5801527 C59.065188,70.5801527 58.9896357,70.5647575 58.9189059,70.5329055 C50.3702406,66.6936741 52.9674188,56.3338012 52.9947462,56.2297513 C53.0327903,56.0842937 53.1313834,55.9616634 53.2658773,55.8921198 C53.4003711,55.8225762 53.5589774,55.8130205 53.7004371,55.8655764 C56.6818069,56.9655332 58.6584915,59.7993021 59.4166939,64.0595112 C59.9761026,67.2038375 59.6862174,69.9887666 59.6733575,70.1060883 C59.6551392,70.2754349 59.5554744,70.4256703 59.4065131,70.5106091 C59.3245308,70.5567945 59.2323676,70.5801527 59.1407404,70.5801527" id="Fill-49" fill="#3850A2"></path>
                    <path d="M71.7900538,65.6771856 C69.9065822,65.7219203 64.1117938,66.323708 60.0527969,71.76323 C63.9106624,71.0176523 70.7954177,69.0163087 71.7900538,65.6771856 M58.8796222,73.0381679 C58.6966753,73.0381679 58.5230962,72.9502963 58.4200508,72.8001156 C58.3015761,72.6270351 58.2977188,72.4033618 58.410132,72.2270859 C63.611445,64.0454355 72.405571,64.6152699 72.492085,64.621128 C72.638663,64.6323117 72.77422,64.6994137 72.8689998,64.8075225 C72.9643305,64.9156312 73.0106183,65.0556933 72.9979443,65.1973531 C72.4843704,70.976113 59.514426,72.9508288 58.962279,73.0323098 C58.9347267,73.0360377 58.9071745,73.0381679 58.8796222,73.0381679" id="Fill-51" fill="#3850A2"></path>
                </g>
            </g>
        </g>
    </g>
</svg>