<svg xmlns="http://www.w3.org/2000/svg" width="20" height="20" viewBox="0 0 20 20">
    <g fill="#FFF" fill-rule="nonzero">
        <path d="M14.48 0H5.52A5.526 5.526 0 0 0 0 5.52v8.96A5.525 5.525 0 0 0 5.52 20h8.96A5.526 5.526 0 0 0 20 14.48V5.52A5.526 5.526 0 0 0 14.48 0zm3.746 14.48a3.75 3.75 0 0 1-3.745 3.746H5.519a3.749 3.749 0 0 1-3.745-3.745V5.519A3.749 3.749 0 0 1 5.52 1.774h8.962a3.75 3.75 0 0 1 3.745 3.745v8.962z"/>
        <path d="M10 5c-2.757 0-5 2.243-5 5s2.243 5 5 5 5-2.243 5-5-2.243-5-5-5zm0 8.278A3.282 3.282 0 0 1 6.722 10 3.282 3.282 0 0 1 10 6.722 3.282 3.282 0 0 1 13.278 10 3.282 3.282 0 0 1 10 13.278zM15.5 3A1.507 1.507 0 0 0 14 4.5c0 .394.16.781.44 1.06.279.28.666.44 1.06.44.395 0 .781-.16 1.06-.44.28-.279.44-.666.44-1.06 0-.395-.16-.783-.44-1.06A1.506 1.506 0 0 0 15.5 3z"/>
    </g>
</svg>
