<svg xmlns="http://www.w3.org/2000/svg" xmlns:xlink="http://www.w3.org/1999/xlink" width="95" height="111" viewBox="0 0 95 111">
    <defs>
        <path id="a" d="M0 111h94.937V.092H0z"/>
    </defs>
    <g fill="none" fill-rule="evenodd">
        <path fill="#F8BFC0" d="M0 95h95V0H0v95zm1.875-1.875h91.25V1.875H1.875v91.25z"/>
        <g>
            <path fill="#F8BFC0" d="M26.574 29.09c1.48.298 2.487 1.193 3.227 2.983l3.226 7.757h-1.332l-3.078-7.399c-.71-1.73-1.51-2.208-3.375-2.208h-4.38v9.607h-1.333V18.648h1.332V28.97h4.322l6.157-10.322h1.45L26.575 29.09z"/>
            <mask id="b" fill="#fff">
                <use xlink:href="#a"/>
            </mask>
            <path fill="#F8BFC0" d="M65.405 39.83h1.332V18.648h-1.332zM20.861 68.463h11.1V58.02h1.333v21.182h-1.332v-9.487h-11.1v9.487h-1.333V58.02h1.332zM66.63 79.203L58.758 58.02h1.45l7.105 19.481 7.104-19.48h1.45l-7.873 21.18zM3.567 110.11h1.115c1.15 0 1.687-1.028 1.687-2.187 0-1.534-.666-2.397-2.128-2.397-.207 0-.432.017-.674.052v4.533zm-.865.829v-6.093a8.45 8.45 0 0 1 1.54-.157c2.006 0 2.992 1.142 2.992 3.234 0 1.621-.822 3.016-2.552 3.016h-1.98zM21.194 110.939h1.05v-6.19h-1.05zM38.112 111c-.76 0-1.53-.218-2.119-.514l.139-.898c.536.305 1.22.584 1.998.584.622 0 1.159-.21 1.159-.793 0-1.247-3.157-1.09-3.157-3.164 0-1.081.977-1.526 2.04-1.526.632 0 1.298.14 1.809.331l-.156.828a4.712 4.712 0 0 0-1.644-.33c-.63 0-1.184.13-1.184.714 0 1.273 3.157 1.116 3.157 3.173 0 1.168-.978 1.595-2.042 1.595M56.371 106.145l-.787 2.179h1.566l-.779-2.18zm-2.664 4.794l2.232-6.19h.865l2.231 6.19h-.943l-.64-1.787H55.29l-.64 1.787h-.943zM72.797 110.939h1.05v-6.19h-1.05zM89.153 107.478l-.528-1.177v4.638h-.865v-6.189h.969l1.98 3.574.52 1.194v-4.768h.864v6.189h-1.02z" mask="url(#b)"/>
        </g>
    </g>
</svg>
