<svg xmlns="http://www.w3.org/2000/svg" width="90" height="68" viewBox="0 0 90 68">
    <g fill="#000" fill-rule="nonzero">
        <path d="M1.5 16.622H6c.828 0 1.5-.676 1.5-1.51 0-.835-.672-1.512-1.5-1.512H1.5c-.828 0-1.5.677-1.5 1.511 0 .835.672 1.511 1.5 1.511zM7.5 21.156c0-.835-.672-1.512-1.5-1.512H1.5c-.828 0-1.5.677-1.5 1.512 0 .834.672 1.51 1.5 1.51H6c.828 0 1.5-.676 1.5-1.51zM28.5 46.844c5.796-.006 10.493-4.738 10.5-10.577v-3.023c0-.834-.672-1.51-1.5-1.51h-18c-.828 0-1.5.676-1.5 1.51v3.023c.007 5.839 4.704 10.57 10.5 10.577zM21 34.756h15v1.51c0 4.173-3.358 7.556-7.5 7.556-4.142 0-7.5-3.383-7.5-7.555v-1.511z"/>
        <path d="M82.5 36.474V12.089H87c.828 0 1.5-.677 1.5-1.511V1.51C88.5.677 87.828 0 87 0H72c-.828 0-1.5.677-1.5 1.511v1.79a4.504 4.504 0 0 0-3.001 4.255A4.504 4.504 0 0 0 70.5 11.81v2.492l-8.333 5.59c-.418.282-.669.756-.667 1.263v28.71H51V39.29c-.006-4.805-2.53-9.25-6.638-11.69 2.89-1.742 4.266-5.214 3.365-8.482-.902-3.268-3.86-5.527-7.227-5.517h-24c-3.367-.01-6.325 2.249-7.227 5.517-.901 3.268.476 6.74 3.364 8.482C8.53 30.039 6.006 34.484 6 39.289v18.133c0 .835.672 1.511 1.5 1.511h10.62c.741 5.201 5.164 9.063 10.38 9.063 5.216 0 9.639-3.862 10.38-9.063h27.24c.741 5.201 5.164 9.063 10.38 9.063 5.216 0 9.639-3.862 10.38-9.063h1.62c.828 0 1.5-.676 1.5-1.51V49.11c-.004-5.281-2.884-10.134-7.5-12.637zm3-27.407h-3V3.022h3v6.045zm-6-6.045v32.255c-1.95-.56-4.001-.67-6-.325V11.811a4.504 4.504 0 0 0 3.001-4.255A4.504 4.504 0 0 0 73.5 3.3v-.278h6zM72 6.044c.828 0 1.5.677 1.5 1.512 0 .834-.672 1.51-1.5 1.51s-1.5-.676-1.5-1.51c0-.835.672-1.512 1.5-1.512zm-7.5 15.92l6-4.03v17.843a14.312 14.312 0 0 0-6 4.556V21.964zM45 21.156c0 2.503-2.015 4.533-4.5 4.533h-12v-9.067h12c2.485 0 4.5 2.03 4.5 4.534zm-19.5-4.534v9.067h-3v-9.067h3zm-9 9.067c-2.485 0-4.5-2.03-4.5-4.533 0-2.504 2.015-4.534 4.5-4.534h3v9.067h-3zM9 39.289c.007-5.84 4.704-10.571 10.5-10.578h18c5.796.007 10.493 4.739 10.5 10.578V55.91H9V39.29zm19.5 25.689c-3.563-.005-6.632-2.53-7.35-6.045h3.125a4.475 4.475 0 0 0 4.224 3.024 4.475 4.475 0 0 0 4.223-3.024h3.128c-.718 3.516-3.787 6.04-7.35 6.045zM51 52.888h10.5v3.023H51V52.89zm25.5 12.09c-3.563-.005-6.632-2.53-7.35-6.045h3.124a4.475 4.475 0 0 0 4.225 3.024 4.475 4.475 0 0 0 4.224-3.024h3.127c-.718 3.516-3.787 6.04-7.35 6.045zM87 55.91H64.5v-6.8c0-6.26 5.037-11.333 11.25-11.333S87 42.852 87 49.11v6.8z"/>
    </g>
</svg>
