<svg xmlns="http://www.w3.org/2000/svg" width="90" height="54" viewBox="0 0 90 54">
    <g fill="#FFF" fill-rule="nonzero">
        <path d="M74.59 23.784a14.935 14.935 0 0 0-3.004.297l-2.963-9.444V4.46h5.221c1.236 0 2.238.999 2.238 2.23a2.234 2.234 0 0 1-2.238 2.23h-2.237a1.49 1.49 0 0 0-1.492 1.486 1.49 1.49 0 0 0 1.492 1.487h2.237c2.884 0 5.222-2.33 5.222-5.203s-2.338-5.203-5.222-5.203H62.656a1.49 1.49 0 0 0-1.492 1.487 1.49 1.49 0 0 0 1.492 1.486h2.983v8.92H35.803v-4.46h5.967a1.49 1.49 0 0 0 1.492-1.487C43.257 3.33 39.921.005 35.803 0h-8.95a1.49 1.49 0 0 0-1.492 1.486c.005 4.103 3.341 7.428 7.459 7.433v5.418l-9.706 11.904a14.952 14.952 0 0 0-17.989 1.216 14.82 14.82 0 0 0-3.661 17.592c2.878 6.018 9.428 9.388 16.02 8.244 6.59-1.145 11.61-6.524 12.276-13.158h6.192a7.446 7.446 0 0 0 5.862 5.826 7.47 7.47 0 0 0 7.65-3.155 7.41 7.41 0 0 0 .013-8.25l16.965-16.902 2.297 7.323c-7.043 2.996-10.665 10.82-8.382 18.103 2.283 7.284 9.73 11.662 17.232 10.131 7.502-1.53 12.623-8.472 11.85-16.064-.774-7.591-7.19-13.366-14.849-13.363zM28.6 2.973h7.203a4.483 4.483 0 0 1 4.22 2.973H32.82a4.483 4.483 0 0 1-4.22-2.973zm23.613 13.378v2.973h-8.95v-2.973h8.95zm-8.367 19.622l-.666-1.767c.029 0 .054-.01.082-.01.665.004 1.32.156 1.917.447l-1.333 1.33zm-3.454-.71l.718 1.9H39.06a4.44 4.44 0 0 1 1.331-1.907v.008zm-6.564-17.44l5.478 14.557a7.433 7.433 0 0 0-3.354 4.782H29.76a14.8 14.8 0 0 0-4.326-9.048l8.394-10.291zm-10.093 19.34a8.867 8.867 0 0 0-2.104-4.392l1.9-2.33a11.817 11.817 0 0 1 3.217 6.721h-3.013zm-10.16 2.125c.247.516.77.846 1.343.847h5.755a5.974 5.974 0 0 1-5.215 4.46 5.984 5.984 0 0 1-5.981-3.373 5.944 5.944 0 0 1 1.151-6.751 5.996 5.996 0 0 1 6.763-1.215l-3.634 4.46a1.482 1.482 0 0 0-.182 1.572zm4.476-2.126l1.653-2.027c.45.607.78 1.296.97 2.027H18.05zm-3.133 13.379c-5.073.013-9.6-3.17-11.287-7.938a11.866 11.866 0 0 1 3.794-13.236 11.969 11.969 0 0 1 13.791-.8l-1.896 2.325A8.976 8.976 0 0 0 8.81 32.125a8.896 8.896 0 0 0-1.983 10.36 8.958 8.958 0 0 0 9.319 5 8.936 8.936 0 0 0 7.59-7.35h3.013c-.755 5.94-5.821 10.396-11.83 10.406zm32.82-11.892a4.454 4.454 0 0 1-3.709 4.393 4.467 4.467 0 0 1-4.968-2.907h4.201c.175-.003.348-.037.51-.1.033-.013.063-.022.094-.037.157-.067.3-.163.424-.28 0-.008.02-.011.027-.018l2.973-2.961c.291.595.444 1.248.448 1.91zm-.369-6.195a7.432 7.432 0 0 0-4.107-1.238 7.275 7.275 0 0 0-1.159.118L36.464 16.35h3.815v4.46a1.49 1.49 0 0 0 1.491 1.486h11.935a1.49 1.49 0 0 0 1.492-1.486v-4.46h8.333L47.37 32.454zM74.59 50.541c-5.613.002-10.468-3.895-11.66-9.36-1.193-5.465 1.6-11.02 6.707-13.34l.895 2.867c-4.295 2.157-6.21 7.239-4.4 11.68 1.81 4.441 6.737 6.755 11.326 5.317 4.59-1.437 7.303-6.143 6.238-10.818-1.066-4.674-5.554-7.75-10.316-7.071l-.895-2.867a11.955 11.955 0 0 1 11.688 4.573 11.857 11.857 0 0 1 1.112 12.463A11.94 11.94 0 0 1 74.59 50.54zm-1.425-11.446a1.491 1.491 0 0 0 1.873.972 1.482 1.482 0 0 0 .98-1.863l-1.726-5.472c.098 0 .192-.03.298-.03a6.011 6.011 0 0 1 6.004 5.125 5.996 5.996 0 0 1-4.27 6.629 6.025 6.025 0 0 1-7.175-3.304 5.985 5.985 0 0 1 2.3-7.537l1.716 5.48zM8.95 4.46h11.935a1.49 1.49 0 0 0 1.492-1.487 1.49 1.49 0 0 0-1.492-1.487H8.951a1.49 1.49 0 0 0-1.492 1.487 1.49 1.49 0 0 0 1.492 1.486zM4.475 10.405H16.41a1.49 1.49 0 0 0 1.492-1.486 1.49 1.49 0 0 0-1.492-1.487H4.475A1.49 1.49 0 0 0 2.984 8.92a1.49 1.49 0 0 0 1.491 1.486z"/>
    </g>
</svg>
